<svg xmlns="http://www.w3.org/2000/svg" viewBox="0 0 626 417" xmlns:v="https://vecta.io/nano"><path d="M313.11 416.89q-154.43 0-308.84.11c-3.79 0-4.26-1-4.26-4.43Q.15 208.48.01 4.38C.01.86.63 0 4.32 0Q312.9.18 621.49 0c3.91 0 4.52 1.05 4.52 4.67q-.15 203.85 0 407.69c0 3.67-.73 4.63-4.55 4.63q-154.18-.19-308.35-.1z" fill="#fefefe"/><path d="M421.12 210.13a8.59 8.59 0 0 1-7 4.05c-5.67.32-10.73 2.48-16.07 5.11a45.21 45.21 0 0 0 13 8.27 12.88 12.88 0 0 1 5.86 4.43c-1.52 1.6-3.48 0-5.38.55.33 3.72 3.79 5.49 4.67 8.74 1.29 4.75 3.3 9.2 3.68 14.3.37 4.89.51 9.89 1.93 14.74a6.83 6.83 0 0 1-2.65 7.16c-3.35 2.54-3.54 5.68-1.77 8.8 2.57 4.52 1.81 9.47 1.91 14.08.16 7.57-8.09 14.08-15.71 13.28a34.88 34.88 0 0 0-13.35.84 5.8 5.8 0 0 1-2 .4c-6.65-.47-13.21-1.54-19.62 2-3 1.67-5.57-2.48-8.76-2.64-3.72-.18-4.89-2.87-5.85-5.86s-4.25-3.5-6.41-5.2c-2.38-2.43-6.88 1.61-8.62-2.79-.22.9-.16 1.9-.95 2.6a1.59 1.59 0 0 1-2-1.61c-.56-5.36-3.81-9.36-6.65-13.58 2.74-8.11 1.35-15.71-1.83-23.52-1.83-4.51.95-8.94 3.51-12.88.64-.5 1.3-.9 2.12-.37-.46 10.06 3.64 19.82 2.13 29.93-.68 4.55 1.78 7.55 4.38 10.61 1.22 1.43 2.57 1.24 4 .42 3.15-1.79 5.72-.63 7.11 2.21 3.76 7.66 11.6 8.11 18.21 10.76a1.28 1.28 0 0 0 1 0c8.5-4.41 18.61.33 27-4.73A5.48 5.48 0 0 1 400 300c5.72.16 6.44-.34 4.8-5.65-2.5-8.11.53-14.33 5.94-19.79 2.5-2.52 3.09-4.91 1.53-8a12.16 12.16 0 0 1-1.42-4.23c.42-4.59.32-9.19.36-13.78.07-7.76-4.78-13.62-8.24-19.94-1.68-3.08-5.12-4-8.71-3.53-4 .59-7.94-1.16-12-.84a4.51 4.51 0 0 1-2.24-.9 1.35 1.35 0 0 1-.2-1.46c2.94-2 6.28-.89 9.44-1.18 2.41-.22 5 .1 6.13-2.81 4.39-5.65 9.39-10.11 17.28-9.36 1.85.18 3.49-.79 5.06-1.72 2.33-.07 2.91 1.57 3.39 3.32z" fill="#fd82b6"/><path d="M333.94 60.28c6.41 3.61 13.79 5.88 17.73 12.92.54 1 1.79 1.67.5 2.9-2.23 6.83-1 9 5.51 9.33 1.82.09 3.34 1.67 5.24.81 3.6 2.52 3.19 6.18 2.48 9.71-.44 2.2-.4 4 1.55 5.25 3.17 2 4.27 5.08 4.08 8.53-.2 3.65 1.82 2.95 4 2.41.23 2.38-1.52 3-3.14 2.68-2.63-.48-3.57.71-4.13 2.91-.82 3.27-5.08 4.37-5.16 8.12-1.58 5.84-.21 11.88-1.23 17.75.32 3.42-1.41 7.08 1.23 10.23 1.28 3.44-.52 5.75-3 7.55a47.93 47.93 0 0 0-9.17 8.88c-1.81 1.32-3.59 2.71-6.06 2.25-4.56-3.21-4.57-3.21-5.49 2.2a2.6 2.6 0 0 1-1.26 2c-3.11 1.14-5.67.19-7.91-2a5.08 5.08 0 0 1-1.44-2.8 4.31 4.31 0 0 1 3-4.63 6.06 6.06 0 0 0 3.53-3.28c1.31-2.57 3.55-3.13 6.25-3.19 7.5-.16 12.39-6.09 13.86-13.22 1.77-8.58.87-17.15 1.84-25.67a14.65 14.65 0 0 1 .3-2c.81-3.35.61-13.92-.23-16.93-1.36-4.86-5.17-7.93-8.34-11.46-.74-.82-2.46-1.09-2.67-2.11-1.24-6-6.58-8.71-9.91-13-4.58-5.91-15.13-7.68-20.83-3a7.15 7.15 0 0 1-5.56 1.68 18.28 18.28 0 0 0-6-.09c-4.67-1.21-9.08.53-13.58 1.26-1.21-4.29.51-7 5.31-6.71a12.36 12.36 0 0 0 10.47-4c3.81-3.77 9.75-2.92 14.21-5.62 1.22-.73 2.63.43 3.47 1.43 2.83 3.38 5.53 3 8.33 0a7.41 7.41 0 0 1 2.22-1.09z" fill="#fb5fa8"/><path d="M208.27 270c.11-9.42 7.92-13.94 13.13-20 2.89-3.33 5.46-8.4 11.55-6.79 2.13 2.72 4.09.88 5.57-.57 1.26-1.22 2.28-2.77 3.44-4.15 3.33-.85 5.54-3.42 8.2-5.31 2.75-.46 5.79-4.88 8.13.56-1.95 2.8-5.49 3.16-8 5.14-2.29 1.48-3.83 3.68-5.52 5.73-1.41 1.69-2.91 3.67-5 3.91-8.89 1-9.76 10.36-15.59 14.48a1.68 1.68 0 0 0-.44 1.87c2.24 4.48.8 8.69-.77 12.94a4.76 4.76 0 0 0 .51 3.86c.45.88 1.23 2 .74 2.81-4.65 7.8 1 14.89 1.44 22.32 0 .65-.09-.15.1.49 1.07 3.5 12.18 11.67 15.88 11.61 1.66 0 3.38-.34 5 .18 7.25 2.39 13.69 1.16 19.31-4.08a46.64 46.64 0 0 1 6.89-2.88c3.6-1.22 6.48-.74 8.36 3 1.73 3.45 3.15 2.15 4.18-.52 1.2-3.14 3.29-4.07 6.72-4.66 5.15-.89 9.1-4.62 11.26-9.49 1.39-3.15 3.26-4.9 6.69-4.82 3 .06 4.24-1.58 5.15-4.32 2.48-7.49 3.91-14.7 2.09-22.86-1.21-5.46-.26-11.89 5.44-15.82a3 3 0 0 1 2.14 2.21 5.56 5.56 0 0 1-.16 3.18 14 14 0 0 0-1.4 11.98c3.15 10.87-1.69 20.13-6.37 29.35a8.46 8.46 0 0 1-4.16 3.49 13.72 13.72 0 0 0-6.62 5.79 7.28 7.28 0 0 1-4.71 3.46c-1.89.49-3.39 1.34-3.66 3.53-.42 3.49-2.45 3.46-5 2.25-1.46-.69-2.61-1.19-3.51 1-1.55 3.72-7.27 5.44-10.34 3.11-1.93-1.47-3.12-3.9-6.22-3.3-4 .77-7.91 1.37-10.75 4.66a13.22 13.22 0 0 1-1.08 1 12.19 12.19 0 0 1-4.6 2.48 7.29 7.29 0 0 1-6.13-1.18c-3.91-3-8.13-3.21-12.62-1.82a6.92 6.92 0 0 1-5.61-1.47c-3-2.18-5.74-4.72-9.9-5.2-2.67-.31-3.58-3.39-3.88-5.87a26.15 26.15 0 0 0-6.15-13.9c-2.09-2.54-2.28-5-.1-7.61a9.72 9.72 0 0 0 1.34-11.11c-1.4-3-2.1-6 .75-8.68.48-.47 1-.94-.08-1.34-1.31-.51-2.56-.77-3.33.86-.65.75-1.35 1.21-2.31.5z" fill="#fb88c1"/><path d="M295 339.93h-23c-1.72-.81-4-.44-5.22-2.29a2.12 2.12 0 0 1 1.47-1.64 93.57 93.57 0 0 1 12.75-1.54c5.6-.26 11.12-1.22 16-4.36 3.52-.8 5.17-5 9.1-5.06 9.14-1.61 18.73-1.54 26.27-8.47 2.61-2.39 5.86-4.1 8.22-6.85 5 4.91 9.18 10.61 15 14.7 3.62 2 5.29 6.11 8.92 8.19a17.7 17.7 0 0 0 5.77 2.45 59.86 59.86 0 0 0 7.34 3.45c.64.66.88 1.32 0 2-5.24 1.71-10.28.22-15-1.57-8.08-3-16.23-3.87-24.86-3.81-10.34.07-20.43.39-30.41 3.52-3.93 1.18-8.35.18-12.35 1.28z" fill="#fcd7e0"/><path d="M348 302c4 2.06 8.14 4 8.35 9.39a1 1 0 0 0 .25.43c2.33 2.94 14.07 4.39 17.09 1.85 2.07-1.74 4.13-2.19 6.41-1.09 4 2 8.1 1.49 12.11.16a23 23 0 0 1 10.86-.49c8.9 1.37 16-6.71 14.71-15.39a71.7 71.7 0 0 0-2.66-13.06 5.28 5.28 0 0 1 2.78-6.77 5.31 5.31 0 0 0 2.83-5.89c-1.54-4.76-1.55-9.66-2.18-14.46s-1.26-9.13-3.21-13.53c-1-2.27-1.56-4.65-3.53-6.32s-3.12-4.36-2-6.06c1.43-2.19 3.4.55 5.16 1.08a10.8 10.8 0 0 0 2 .19c3.9 2.79 7 6.43 10.18 9.92-1 1.09-2.17 2-1 3.79a4.36 4.36 0 0 1 .17 4.7c-4.07 6.08-4.29 12.48-1.16 18.91 1.32 2.7 1.27 4.74-1.17 6.52-4 2.93-4.6 6.45-2.22 10.77a9.67 9.67 0 0 1 .7 8.21 8.57 8.57 0 0 0 0 4.89c1.35 6.24-1.28 11.5-7 14.39-1.64.82-3.46 1.36-4.78 2.67-2.4 2.39-4.81 2.74-8.11 1.5-3.71-1.39-7.7-.32-11.11 1.42-4.4 2.25-8.46 2.68-12.67-.17-.68-.46-1.63-1.05-2.31-.81-6.05 2.14-12.29-1.19-18.33.68-2.86.89-4.47-.36-5.16-3.07a18.1 18.1 0 0 1-.32-4.47c0-2.54-.87-4.18-3.78-4.07-1.52.05-3.18-.06-3.46-2s.86-3.17 2.56-3.82z" fill="#fc71ad"/><path d="M435 254c2.83 9.54 5.92 19 4.94 29.23-.16 1.6.47 3.35-.89 4.73-1.42-1.49-2.74-1.93-4.46-.19-1.55 1.56-1.11 2.81-.06 4.26a11.33 11.33 0 0 1 2.23 3.73c-.07 2.82.71 5.94-2.6 7.67-1.49 4-3.67 7.78-4.17 12.14a4.75 4.75 0 0 1-2.26 3.71c-5.74 2.87-10.55 7.59-17.51 8.13a56.36 56.36 0 0 0-12.43 2.9c-1.78.57-3.46 1.1-5.26.28-1.68-1.56 0-2.26.88-3a29.59 29.59 0 0 1 7.76-4c1.38-1.19 2.68-2.74 4.69-2.52 3.49.38 5.75-1.88 8.55-3.29 8.91-4.48 10.62-13 12.81-21.34.52-2 2.47-4.33 0-6.47-4.47-5.3-4.4-6.43.62-10.94 6.9-6.18 7.1-6.81 3.58-15.63-1.14-2.86-2.32-5.63-.54-8.54.9-1.45 2.06-3.4 4.12-.86z" fill="#fc468e"/><path d="M295 339.93c10.26-2.31 20.48-6.19 30.79-6.43 8.41-.21 17.12-.93 25.59.51a35.21 35.21 0 0 1 9.42 2.94 30.93 30.93 0 0 0 17.41 2.84 2.4 2.4 0 0 1 2.11-.31c4.69 1 9.32.28 13.95-.47a13.7 13.7 0 0 1 1.33-.66 7.44 7.44 0 0 1 1.45-.47c3.53-.65 7.18.24 10.68-.82 5.21-1.5 10.69-1.56 15.84-3.62a31.2 31.2 0 0 0 12.43-8.59c4.07-4.73 4-10.33 3.37-16-.17-1.65-.71-3.26-.46-4.94a2.55 2.55 0 0 1 1.34-2c1.81 3.83 1.89 7.94 1.72 12.42 2.16-1 4.1-1.74 5.34.64 1.79 3.45-.52 6.06-2.58 7.85-2.35 2-5.42 3-4 7.13.29.88-1 1.55-1.9 2.05a50.17 50.17 0 0 1-19.66 6.19c-6.87.72-14.11.58-20.57 3.9a3.72 3.72 0 0 1-1.39.51c-12 .7-23.82.84-35.83-2-7.49-1.78-15.44-3.33-23.52-2.8-7.52.5-15.19-1.47-22.65.23a74.1 74.1 0 0 1-20.21 1.9z" fill="#fae1e9"/><path d="M198.93 214.11l-2.59-4.19c2.69-7.09 2.83-13.53-4.33-18.35-1.45-1-.67-3.74-3-4.27-3.61-1.1-5.06-4-6.06-7.26a6.8 6.8 0 0 1 .36-3.13c2-4 1.7-8.32 1.57-12.62-.08-2.9-1-6 1.85-8.31a1.69 1.69 0 0 1 1.44 0c4.52 6.83 3 14.12.63 20.93-1.21 3.49-.39 4.43 2.34 5.39 3.9 2 7.8 3.93 10.54 7.5a16.09 16.09 0 0 1 4 14.23 2.52 2.52 0 0 0 .5 2.35c4.09 3.88 6.8 9.2 11.33 12.44 8.49 6.08 18.9 5.42 28.66 6.88a8 8 0 0 1 1.35-.55c2.91-.39 5.87-1.48 8.57.67.49 1.67-.86 2.19-1.84 2.94a21.83 21.83 0 0 1-5.66 2.37c-4.63 1-9.23-.9-13.86-.12a10.69 10.69 0 0 1-1.49.21c-8.71-1.8-17.32-4-25-8.72-2.12-1.31-3.54-3.48-5-5.54-1.04-1.6-2.18-2.96-4.31-2.85z" fill="#fc80bc"/><path d="M362 125c-1.09-1.77.12-2.83 1.31-3.71 2.07-1.53 3.56-3.21 3.89-6 .22-1.8 1.15-3.45 3.71-1.62 1.49 1.07 3.18.17 4.1-1.57 13.78-7.56 27.45-8.41 41 .55 1.91 1.26 4 2.17 6.09 3.24-3.08 1.95-3.39 5.42-4.33 8.43-.89 2.82 2.55 1 3.19 2.45-1.93 4.79-6.51 5.74-9.8 2.07-2.54-2.83-2.39-6.42-2.86-9.83-.25-1.79-.12-3.61-2.25-4.58-3.23-1.48-12.47 0-15 2.5-2.84 2.75-6 4.75-10.23 3.63s-5.27 3.43-8.21 4.6c-3.16-.75-6.31-1.46-9.37.39A2.09 2.09 0 0 1 362 125z" fill="#fb4690"/><path d="M222 334c-13-4.52-17.88-15.64-21.48-27.42-.8-2.59-.22-6 1.24-8.84 2.08-1.08 4.21-.51 6.3-.07 1.16.24 2.73 1 2.45 2.08-1.56 6.29 6 9.2 5.4 15.19-.17 1.59 1.49 3.08 3.19 3.42 6.45 1.29 12.49 4 18.9 5.39.64 3.78-2.16 7.23-7 7.88a48.26 48.26 0 0 0-9 2.37z" fill="#fb64a9"/><path d="M184 180c1.7 2.3 1.8 6.18 6 6 1.32 3.07 1.92 6.29 4.35 9.07s.66 6-3.29 6.88a5 5 0 0 1-2.34-2.89c.19-.27.5-.67.38-.89-3.57-6.42-6.76-13.1-12.17-18.3 1.46-1.94 1.23-3.8.36-6.05-1.72-4.44-3-9.06-4.45-13.61-.16-.47-.53-1.08-.36-1.41 3.79-7.62 4.11-17.44 13.35-21.61 2.65-1.2 2.63-5.26 6.14-5.3 4.15 4.57 4.74 7.44 1.17 11.14-5.27 5.45-8.25 12-10.49 19-.37.72-1.27 1.42-1 2.19 1.65 5.19 1.92 10.51 2.35 15.78z" fill="#fa4393"/><path d="M182 162c.62-8.35 5.46-14.61 10.72-20.43 1.92-2.12 2.53-3.33.25-5.06-1.7-1.3.11-3.22-1-4.54.54-.62 1.11-1.78 1.62-1.76 8.85.37 14.07-10 23.59-7.83 2.39.55 4.12-2.72 6.83-2.18 3.79 7.47 1.63 11.32-6.26 12.25-8.37 1-14.17 6.37-19.43 12.52A105.36 105.36 0 0 1 188 156c-3.49 2.23-2.11 5.76-1.75 8.58.46 3.52-.68 6.82-.41 10.25.08 1-.89 1.71-1.82 2.17-.51.13-1.23-.09-1.07-.5 1.53-4.16.68-8-1.26-11.78A2.35 2.35 0 0 1 182 162z" fill="#fb66ac"/><path d="M259.92 119.94c2.75-3.86 2.54-8.7 4.27-12.9 2.47-.73 2.44-.72 3 1.82 1.3 5.58 2.56 11.12-.45 16.63-.85 1.57-.76 3.51-1.34 5.21-1 1.46-2.33.64-3.58.42.7 5.41 1.1 5.71 5.91 4.64a3.85 3.85 0 0 1 2.69.48c3.06.78 4.51 3.91 7.34 5 4.75 3.43 8.76 7.48 11.21 12.92.74 1.65 1.4 3.48 2.92 4.53 3.17 2.18 4.23 5.46 4.72 8.91a25 25 0 0 0 4.06 10.48 6.59 6.59 0 0 1-1.05 6c-3.42 1.39-5.91.61-6.4-3.06-1.65-12.24-11-20.1-16.58-30.11-2-3.71-6.48-6-10.65-7.79a19.5 19.5 0 0 1-5.29-2.67c-2.4-3.49-5.18-6.89-2.86-11.55v.1c1.25-2.93.65-6.22 2.08-9.06z" fill="#fa3687"/><path d="M188 156c3.07-7.4 9.45-12.39 14.71-17.8 3.19-3.28 8-7.3 14.08-7.24 7.21.06 8.09-1.16 7.24-8.31-.1-.82 0-1.66-.07-2.49 7.37.13 14.69.42 21.08 4.82-.18 1.79.93 3.12 1.6 4.61.44 1 1.33 2.1-.26 2.95-1.76.36-3.22-.59-4.78-1.1-1.27-.42-2.64-1.1-3.87-.55-11.34 5.1-24.28 6.89-33.55 16.26a57 57 0 0 0-5.8 6.12c-2.88 3.94-5.72 4.56-10.34 2.76z" fill="#fc80bc"/><path d="M421.12 210.13L418 207c-2.58-5.7-1.51-8.9 4-12a24.83 24.83 0 0 1 3.45-.43c6.38-.84 6.64-1.05 7.94-7.39 1.11-5.45 2.41-10.45 8.78-12.57a7.64 7.64 0 0 0 5.41-8.06c-.11-2.35 1.4-4.65 3-6.66a6.76 6.76 0 0 0 .43-8.66c-2.33-3.54-1.9-4.41 2.74-5.79 8.53 3.67 9.72 10.3 3 16.54-4.72 4.36-4.66 6.28.29 10-2.32 3.77-1.81 9-6.09 11.76a29.88 29.88 0 0 0-6.84-2.67c-2.48-.66-4 1.18-5.33 2.79-1.09 1.29.51 1.51 1.13 2.08 2.24 9.2 1.33 10.28-7.7 13.2-3.81 1.24-9.15 1.89-8.46 8.28.13 1.64-1.67 1.9-2.63 2.71z" fill="#fb52a6"/><path d="M457 172c-1.91-.12-4.35.45-4.82-2.23-.41-2.36-.91-5 1.44-6.87l2.29-1.86c5.33-4.57 4.86-10.21-1.11-13.87-.38-.23-.57-.78-.85-1.19v-.7c.55-1.91 1.34-3.84-1-5.25-1.23-.75-1.48-2-1.76-3.36-.71-3.5-3.31-5.17-6.62-5.54-2-.23-4.41-.16-5.27-2.08-1.86-4.14-5.81-5.1-9.23-6.93.7-3.54 3.67-4.38 6.46-4.72 2.47-.3 3.66 1.83 4.34 4 .91 2.92 3.3 3.44 5.88 3.55 3 .13 2.21-2.78 3.31-4.18 7.64 2.59 13.86 12.21 13.18 20.53-.1 1.16-.68 2.43.07 3.39 3.83 4.86.73 9.77.22 14.65-.07.63-.37 1.63-.78 1.76-5.54 1.79-4.88 6.76-5.75 10.9z" fill="#fa3e96"/><path d="M238.05 324c-7.1-.11-13.57-3.17-20.42-4.51-2.48-.48-3.51-3.35-3.55-6 0-1.88-.12-3.92-1.5-5.07-2.56-2.15-6-3.5-2.81-7.83.79-1.09-1.25-1.62-2.3-1.85-1.89-.41-3.83-.63-5.74-.93-.28-3.67-2.34-7.36.13-11 2.34-.36 4.6.41 7 .45.06-.92-1.38-1.16-1.09-1.74 1.37-2.8 1.78-4.67-2-6.28-1.61-.69 1.35-3.36 1.09-5.38l1.4-3.85a1.89 1.89 0 0 0 1.78-1c2-1.21 3.59-.41 5 1.11-2.65 2.49-2.39 5.51-.72 8.13 3 4.8 1.44 8.83-1.67 12.52-1.77 2.11-1.7 3.46 0 5.52 3.53 4.18 6.17 8.74 6.63 14.54.23 2.91.91 7.05 6.14 5.36 1.53-.49 2.5 1.36 3.59 2.33 2.58 2.3 5 4.88 9 4.47l.3.3v.42z" fill="#fc7eba"/><path d="M222 334c1.44-3.13 4.5-3.35 7.2-3.44 4.69-.16 7.46-2.37 8.88-6.64h0c3.48 1.53 8-.15 10.81 3.3 1.78 2.18 3.61.29 5.42.28 2.28-.57 4.63-1.2 6.73.26 3.93 2.74 8.35 2.95 12.86 2.75 6.74-.29 13.52.15 20.18-1.48 1.45-.36 3.44-.79 3.85 1.71-3.9 3.48-8.84 4.2-13.69 4.84-5.36.7-10.77.9-16.16 1.33a22.46 22.46 0 0 1-8.68-2.67c-4.32-2.14-8.92.23-13.29 1.54-8.11.39-16.36 2.27-24.11-1.78z" fill="#fb4190"/><path d="M333.94 60.28c-.68 2.46-3.08 3.33-4.71 4.86-2.36 2.22-3.89-.2-5.29-1.68-1.92-2-3.26-3.66-6.35-1-2.52 2.17-6.8.81-9.7 3.08-3.92 3.07-7 7.54-13.47 5.18-1.73-.63-5.52 1.38-4.41 5.34 1.06 2.23.41 3.63-2 4.16-2.78-4 .13-7.54.85-11.26 10.19-13.65 31.64-17.78 45.08-8.68z" fill="#fb3e92"/><path d="M435 254c-3.41.34-5.38 3.66-3.32 6.78 2.28 3.42 1.54 7.73 4 11a2 2 0 0 1-.72 2.64c-2.64 1.72-4.28 4.63-6.79 6.24-3.88 2.49-4.24 4.57-.8 7.53.42.36.43 1.2.63 1.81-4.61.58-5.83-3.16-7.34-6.12s.54-5.1 2.4-7c4.56-4.77 4.64-4.75 1.74-11-1-2.22-1.57-4.6-.8-6.78 1-3 1.3-6 2-9-.1-1.39.19-2.79-1-4-3.3-3.39-1.2-4.09 2.15-4A21.2 21.2 0 0 1 435 254z" fill="#fc5d9e"/><path d="M270 137.05l-1.91-1c-1.69-1.24-3.45-2.44-3.08-5-1.41-1.95-.27-3.82.37-5.58 1.64-4.58 3.68-9.11.69-13.86-.91-1.44 2-4.39-1.87-4.57a17.58 17.58 0 0 1 4.3-8.19l11.44-12.88c1.7-.42 2.43-2 3.56-3.05 1.47-1.42 3-2.44 5-.75 1.62 3.95-.14 6-3.31 8.63-5.18 4.22-10.36 8.71-14 14.5-1.4 2.21-2.11 4.42.82 6.41 2.53 1.72 1.41 4.29.31 6.28-2.38 4.28-3.95 8.16-.13 12.71 1.87 2.3-.19 4.63-2.19 6.35z" fill="#fb4a95"/><path d="M450.07 120.82c1.12 2.4 1.24 5.26-1.65 5.59s-6.9.17-8.66-3.36c-2.77-5.53-2.65-5.6-7.83-2.49a21.39 21.39 0 0 0-1.95 1.49l-.31.56c-1.44 1.61-3.61 2.17-5.18 3.61a6 6 0 0 1-1.08.69c-.79.32-1.59.75-2.44.15-5.53.21-5.41.25-3.42-5.52.88-2.52-.21-6.33 4.55-5.61 4 .18 10.55-1.22 16.61-3.59-.57 4.16 1.33 5.91 5.34 5.54 2.56-.24 4.23 1.51 6.02 2.94z" fill="#f90a67"/><path d="M267 337.9c1.73.55 4.4-1.2 5 2.05-2.92 1.84-6.09.86-9.16.73-1.07 0-2.47-1.09-2.62.88-.1 1.32.93 2.06 2.22 2.26a8.34 8.34 0 0 0 1.5.1c1.62-.06 3.21.23 3.35 2.14s-1.86 2.45-3.12 2.56c-7.5.67-15 1.15-22.53.26-.87-.1-1.81-.4-1.95-1.26-.18-1.1.83-1.72 1.64-2.3 3-2.14 7.17-2.77 8.85-6.69a20.55 20.55 0 0 1 16.82-.73z" fill="#fbe3ec"/><path d="M198.93 214.11c1.47-2.55 2.78-2.43 4.21.1 4 7 9.59 11.26 18 11.94 4.11.34 7.25 4.61 11.92 3.85 0 2.16-2.53 3.46-2 5.81-14.56-1.58-26.06-7.63-32.13-21.7z" fill="#fb67a8"/><path d="M231 235.81c-3.71-3.45.47-4.17 2-5.81h1c5 1.34 10 1.74 15 0l5-2.08a1.36 1.36 0 0 1 2.1.25 1.57 1.57 0 0 1-.73 2.43c-2 .89-3.5 2.34-5.29 3.44-2.08 2.59-4 5.46-8 5-.67.56-1.1 1.75-2.32.88.33-2-.46-2.92-2.58-3a54.42 54.42 0 0 1-6.18-1.11z" fill="#f9509a"/><path d="M247 132c-3.31-4.87-3.31-4.87-1.95-7 4.35 1 7.78 5.06 12.81 3.88-.34 4.1 1.94 7.48 3.13 11.17 1 1.07 2.09 2.15 1.28 3.84-1 .78-1.8.18-2.58-.44a7.34 7.34 0 0 1-.85-1.14c-3.09-4.38-8.35-6.31-11.84-10.31z" fill="#f86eac"/><path d="M191 202c3.8-2.57 4.35-5.29 1-7.89-3-2.36-1.5-5.36-2-8.06 3.28 4.3 7.44 8.21 9.56 13 1.47 3.32-.72 7.61-3.21 10.84z" fill="#fa65a7"/><path d="M440.26 301.92l-.4 2c-2.37.23-2.49-1.51-2.94-3.16s0-3.33-1-4.79l-2.16-2.71c-3-3.92-2.23-7.14 2.43-8.7 3-1 2.26 1.89 2.77 3.38.34 1.39-.29 2.85.67 4.26 2.13 3.05 4.77 6.23.63 9.72z" fill="#f20a5a"/><path d="M267 337.9c-5.09.44-10.38-1-15.25 1.68-.26.15-1-.61-1.53-1-.54-2.15-2.3-2.51-4.11-2.81 5.44-4.11 10.94-5.78 16.8-.68 1.45 1.26 3 1 4.37-.44.69-.74 1.72-.6 2 .33.13.51-.74 1.27-1.15 1.92z" fill="#f80a63"/><path d="M206.87 273.83c1.72 1.9-1.53 3.17-.36 5.23 1.61.33 4.31-.5 5.16 1.88s-2.5 2.16-3.16 3.88c.53 2.13 3.18.22 3.94 1.95-4.29 2.42-5.31 2.42-10.59 0 1.36-4.42 2.26-9.03 5.01-12.94z" fill="#f865a6"/><path d="M176.91 179.93c2 0 4 0 4.79 2.51 1.8 5.63 6.3 9.68 8.92 14.84.34.67 1.49 1.16.8 2-.81 1-1.79-.24-2.72-.17-5-5-6.77-12.59-13.45-16.44-1.98-1.13.83-1.92 1.66-2.74z" fill="#f32774"/><path d="M362.92 86.24l-2 2.11c-2.61-3.24-7.45 0-9.75-3s-2-6.44 1-9.23c-.53 3.85 2.5 5.16 5 6.43a22 22 0 0 1 5.75 3.69z" fill="#f84592"/><path d="M288 82c-2.09-.2-3.26.91-4.35 2.6-.72 1.11-1.55 3.44-3.68 1.35 2.94-5.68 4.56-12.06 8.9-17 1.1 3.81-1.75 7.34-.77 11.14A1.32 1.32 0 0 1 288 82z" fill="#f52277"/><path d="M439.86 186c-1.15.4-2.39 1.79-3.46.25s.32-2.38 1.23-3.3c4.48-4.57 9.16-4.26 13.27.85a10.42 10.42 0 0 1-7.06.65c-1.68-.45-3.24-.45-3.98 1.55z" fill="#f81b77"/><path d="M239.77 239.9l2.32-.88c-2.19 3.48-3.32 8.64-9.41 6.05-2.1-.89.35-1.2.27-1.84 2.65-.33 4.78-1.75 6.82-3.33z" fill="#f25f9f"/><path d="M259.92 119.94c-.09 3.14-.08 6.3-2 9 .56-3.01-.53-6.42 2-9z" fill="#f86eac"/><path d="M382 223c4.41-.68 8.6 1.48 13 1 4.78 1.49 7.91 4.46 10.46 9 2.82 5 6 9.73 6 15.5 0 4.53-.31 9 .53 13.51a27.13 27.13 0 0 0 1.61 4.14c2.38 4.05 1 6.6-2.14 9.88-4.1 4.24-8.33 9.2-5.62 16.17a21.64 21.64 0 0 1 1 3.84c1.05 5.5-.19 6.78-5.69 5.44a7.52 7.52 0 0 0-5.25.55c-5.2 2.37-10.56 3.41-16.29 2.14-1.56-.34-4.08-.6-4.8.25-4.85 5.72-9.08-.29-13.51-.55-5.11-.31-8.55-3.82-11-8.21-1.65-3-3.42-5.23-6.75-1.77-.86.9-2.44 1.67-3 .67-2-3.39-6.34-5.16-6.6-9.89-.19-3.3.28-6.56.4-9.8.3-8.07-4.33-15.8-1.39-23.94.2-1.06.68-1.34 1.54-.56 2 3.83-.45 8.38 1.94 12.15a6.17 6.17 0 0 1 .56 1.42c.28 5.92 3 11.48 2.21 17.63-.32 2.46 1.11 5.52 4.46 4.33 4.83-1.72 8 .76 11.28 3.33 7.19 5.64 13.89 4.11 17.22-4.6 1.65-4.3 3.58-8.56 4.64-13.11 1-4.3 4.24-5.78 8.28-4a21 21 0 0 1 3.28 2.26c2 1.38 4.18 2.51 6.46 1a7.16 7.16 0 0 0 3.61-7.16 21.21 21.21 0 0 0-2.68-7.46 63.19 63.19 0 0 1-4-8.6c-1.27-3.55-1.76-6.68 2-9.21 2-1.35 1.8-3.4.63-5.33-2.29-3.78-4.84-7.19-9.69-7.87-1.2-.15-2.87-.15-2.7-2.15z" fill="#fe9dc6"/><path d="M382 223a17.18 17.18 0 0 1 13.63 9.26c1.68 3.05 2.11 5.7-1.41 7.56-2.62 1.37-2.35 2.86-1.77 5.58 1.29 6 5.39 10.55 7.09 16.3 1.48 5-.85 8.41-4.14 10.67-2.93 2-6.45.3-8.85-2.41a6 6 0 0 0-6.33-1.81c-2.69.63-1.58 3.22-2.34 4.85-3.1 6.71-3.74 14.72-10.29 19.68-2.21 1.67-9.46 2.1-11.07-.12-1.75-2.42-4.33-3.51-6.5-5.24a4 4 0 0 0-4.53-.66c-5.09 2-7.87.92-7.52-4.36.44-6.4-2.41-12.14-2-18.34 3.29-.13 3.39 2.78 4.19 4.71 2.66 6.45 7.58 10.45 13.82 12.86 4.26 1.65 5.42.74 5.67-3.71.15-2.51.21-5.06 1.37-7.3a16.73 16.73 0 0 0 1.43-12.95c-1-3.56.28-4.53 3.93-3.88a26.72 26.72 0 0 0 2.92.65c3.09.16 4.36-1.35 3.53-4.31-.55-1.94-1.81-3.54-2.79-5.27-1.76-3.09-2.91-6.23-2.33-10 .65-4.17-1.92-7.17-4.37-10.18-1.2-1.47-3.88-2.62-1.81-5.29 4-.49 16 1.88 18.43 3.61z" fill="#fdafd2"/><path d="M380 222.94L361 220a1.17 1.17 0 0 1-1.44 0c-.73-.82-1.34-1.65-.18-2.59a8 8 0 0 1 7.28.45c-2-3.14-2.78-6.33-1-9.76.64-.42 1.48-.43 1.74.2 1.78 4.51 5.5 4.65 9.48 4.43a7.91 7.91 0 0 1 4.4.68c7.13 4 12.76.79 18.15-3.62 1.54-1.26 2.9-2.76 5-3.05 3.18-.43 4.91-2.72 6.24-5.26 4.66-8.89 11.31-16.32 17.46-24.13 4.28-5.43 7.6-11.36 7.48-18.59 0-2.86.91-5.6.9-8.43 0-3.22-.44-6.2-4.88-5.72a4.39 4.39 0 0 1-3.26-1.05 11.65 11.65 0 0 0-11.67-2.33 5.41 5.41 0 0 1-4.78-.91c-6.88-4.88-13.43-2.95-19.43 1.35-7.14 5.12-14.75 3.68-22.46 2.67-.35-4.38 2.9-5.71 6-5.33 6.21.79 10.47-1.41 14.06-6.26 2.38-3.23 5.84-3.09 9.52-2.05 5.2 1.48 10.6.41 15.9.7a17 17 0 0 0 4.71-2.16c3.25-.66 6.66.17 9.85-1.11a2.14 2.14 0 0 1 1.95.06c3.81 3.54 10.13 4.12 11.75 10.26a51 51 0 0 0 5.94 14.67c1.88 3 .52 5.55-1.71 7.53a11.12 11.12 0 0 0-3.91 7.77c-.38 4.31-4.38 6-6.81 8.84-3 3.49-6.16 6.8-6.56 11.83-.36 4.6-5 4.79-7.79 6.86-6.38 1.58-4.77 6.74-5 11.08-.14 1.42-.61 2.88-2.26 2.63-8.33-1.29-14.28 2.86-19.71 8.32-4.87 3.21-10.73 2.44-16 4 .04.31.04.63.04.96z" fill="#fc80c3"/><path d="M426 250c.69 2.66 2.32 4.94-.49 7.93-1.5 1.61-1.11 5.26.77 7.91 3 4.29 2.45 7.62-1.53 11-5.47 4.61-4.39 9 3.27 13.15 1.21.13 2.88.62 2.47 1.84-3.81 11.54-6.3 24-19.08 29.81-1.28.58-2.71 1.49-4.26.86-2.72-1.12-4 .54-5.14 2.51-3.31-.34-6.37 0-9.06 2.33-1.18 1-2.82.77-4.32.58-8.18-1.06-16.25-2.77-24.5-3.62-3.47-.36-6.28-.69-9.28.87-5.55-4.27-11.14-8.42-13.85-15.17-.67-2.46-4.3-3.57-3.14-6.87l.55-5.86c1.42 4 3.19 4.82 5.94 3.81a3 3 0 0 1 3.65.92c.07 1.73-5.85 6.39 2.2 4.27 2.06-.55 3.82.88 3.79 3.47 0 1.66-.05 3.33 0 5 .21 4.4 1.45 5.07 5 2.67 1-.64 2-1.89 3-1 3.73 3 7.41 2.42 11.52.8 2.39-.94 4.78.38 7 1.82 2.54 1.67 4.9 1.95 8.19.47 5.18-2.33 10.83-5.46 16.74-1.28.34.23 1.23.3 1.37.1 3.92-5.39 14.14-4.68 14.21-13.11 0-5.73 1.79-11.7-.26-17.3-2.77-7.61-3.09-7.65 3.3-13.49 2.51-2.3.24-3.58-.59-5-3.16-5.71-2.01-15.67 2.53-19.42z" fill="#fc67a5"/><path d="M297.9 330.78a2.83 2.83 0 0 0-3.19-.75c-8.38 2.67-17 1.74-25.55 1.85-2.43 0-5-.05-6.94-1.87-2.51-2.36-5.27-2.24-8.2-1.08a1.57 1.57 0 0 1-.51-1.17c.19-1.48 1.8-1 2.51-1.82l4-2c.28-.19.62-.54.86-.46 5 1.48 10.2-.58 15.45 1.05a21.33 21.33 0 0 0 18.07-2.17c7.82-4.89 13.08-12.63 20.37-18.13a14.78 14.78 0 0 0 5-8.47 6.19 6.19 0 0 1 1-2.79c6.08-6.61 4-14.29 2.79-21.76-.69-4.47-1.66-8.85.34-13.21v-3c.8-3.32-2.34-5.9-1.73-9.19.57-1.58 1.56-2.55 3.38-2.29 1.45.66 2.71 2.14 2.4 3.32-.95 3.63 1.27 4.35 3.83 5-2.56 5.47-4.81 10.45-1.36 17a19.33 19.33 0 0 1-.46 19.28 4.17 4.17 0 0 1 .24 4.28c-4.86 12.38-11.53 23.53-21.81 32.24a9 9 0 0 1-2.68 1.27c-3.18.56-4.11 4.94-7.81 4.87z" fill="#fb5d9f"/><path d="M305.81 325.87c7.48-6.21 12.92-14.06 18-22.23a44.29 44.29 0 0 0 6.27-15.56c5.61 3.44 6.42 9.37 7.81 15-.3 2.9 4.74 3.37 3.13 6.87-5.18 7-11.83 12-20.41 13.92-3.37.77-7 .71-10.08 2.34-1.78.92-3.21.43-4.72-.34z" fill="#fcf2f6"/><path d="M412 262c-2.53-4.45-1.15-9.32-1.69-14-1.17-10.26-6.79-18.17-15.3-24 3.95-.94 7.66.57 9.09 3.75 2.87 6.35 8.13 11.62 8.22 19.34A127.48 127.48 0 0 1 412 262z" fill="#fc80c3"/><path d="M331.88 251.84l-5.69.36c.62-2.78 1.61-5.56-.17-8.15.25-3.15 2.56-3.66 5.05-3.95 2.12.39 4.4.46 5.63 2.71.47 2.9.18 5.5-2.73 7.1l-1 1z" fill="#fa2a6c"/><path d="M380 222a46.2 46.2 0 0 1 16-4c1.09 3.52-1.41 3.85-3.74 3.94-4.09.14-8.18.06-12.26.06z" fill="#fb519e"/><path d="M303 74.07a5.66 5.66 0 0 1 4.75-.64c3.33 1.18 5.75.74 7.81-2.84 1.74-3 5.5-1.56 8.3-1.27 3.09.32 6 1.8 9.22 1.8a2.57 2.57 0 0 1 2.66 1.86c1.17 3.89 3.24 6.8 7.6 7.43.29 0 .77.38.76.56-.36 6.25 4.93 8.79 8.16 12.72 1 1.26 1.58 2.82 3.18 3.66a4.45 4.45 0 0 1 2.54 4.5 5 5 0 0 0 1.34 4.12c3.62 3.56 3.27 7.1.39 11-3.06 4.15-1.88 9.26-2.11 13.89-.22 4.37 1.35 8.83-1.32 13a2.19 2.19 0 0 0-.25 1.45c1.15 6.45-1.44 10.81-6.9 14.32-2.64 1.7-4.78 3.18-8.07 2.5-2.38-.49-4.5-.1-5.35 3-.47 1.7-1.41 3.49-4.2 3.18-1.94-.22-2.18 2.1-2.59 3.69-3.77-1.85-1.8-4.52-1-7a46 46 0 0 1 12.78-14.26c10.91-8.16 13.15-25.22 8.29-39.41-1-2.82-2.2-5.55-3-8.44-.41-1.45-.9-3.07-2.31-3.72-3.72-1.73-5.15-4.53-5.76-8.55s-4.75-4.33-7.92-4.67c-2.85-.3-5.68.1-7.47-2.79-.26-.42-.91-.87-1.25-.65-4.93 3.19-10.3-1-15.56 1.18-3.77 1.56-5.93 3.39-6.19 7.31-.24 3.7-1.19 6.09-5.75 6.4-4.22.29-8.1 6.79-8 13.11.12 6.05-.74 11.55-4.85 16.25-1.73 2-1.35 4.75-2.36 7a2 2 0 0 1-2 .84 2.22 2.22 0 0 1-1.26-.81 6.6 6.6 0 0 1-.27-7.84c3.43-5.73 4.83-12.12 6.07-18.63.93-4.86 3.64-9.2 5.46-13.81 1.13-4.52 2.62-8.81 7.15-11.18a4.06 4.06 0 0 0 2.21-2.58c.83-3.93 3.65-5.14 7.07-5.68z" fill="#fd87c5"/><path d="M329 165c-1 2.31-1.88 4.63-.06 7l1.17 2c-4.91 4-10 7.08-16.31 2.8-1.78-2.1-4.71-3.44-4.54-6.83a10.17 10.17 0 0 0-3.58-9.4c-8.33-7.48-12.13-17.64-16.76-27.27-2.37-4.92-1.48-10.43-.66-15.66.39-2.45 2.26-3.82 4.82-2.73 3.84 1.63 5.56-.23 6.58-3.57.15-.48.33-.94.5-1.41 3.21-9 4-9.5 13.7-9.12 1.42 3.27.11 6.5-.58 9.59-.53 2.34-2.71 3.18-4.4.76-1.54-2.19-2.31-1-3.29.27a22.37 22.37 0 0 0-3.49 5.45 9 9 0 0 1-5.72 5.73c-3.54 1.25-4.07 5.63-1.89 10.33 2.83 6.09 7 11.25 11.28 16.33a48.68 48.68 0 0 1 4.8 7c2.28 3.9 6.09 4.64 9.67 1.89a14.39 14.39 0 0 0 5.38-7.63 10.15 10.15 0 0 1 5.46-6.76c3.93-1.94 7.7-3.93 9.39-8.41a1.85 1.85 0 0 1 2.81-1.13c.9 5.12-.92 9.58-3.92 13.42A73.72 73.72 0 0 0 329 165z" fill="#fcb4cd"/><path d="M303 74.07c-2.82 1.3-5.44 2.66-5.79 6.35a4.09 4.09 0 0 1-2.74 3.27c-5 1.71-5.84 5.95-6.48 10.35-4.71 6.74-9.62 13.41-10.73 21.87a24.35 24.35 0 0 1-2.12 6.08c-1.69 4.12-2.49 8.25.86 12.05h0c2.38 2.36 2.16 5.06 1 7.88-3.26-.3-4-4.29-7.06-4.86 1.56-3.37 2.12-6.29-1.27-9.31-1.62-1.44-1-4.23.41-6.43a48.6 48.6 0 0 0 3-6.22c.65-1.46.37-2.72-1.4-2.93-3.53-.44-2.76-2.5-1.94-4.67 1.11-2.91 2.14-5.95 5-7.63 5-3 6.66-9.61 12.92-11.5 2.46-.74 1.09-4.13 1.31-6.34 0-.64.06-1.28.1-1.92a5.9 5.9 0 0 0 2-4c4.05-2.11 8.12-4.54 12.93-2.04z" fill="#fc6dae"/><path d="M416 132c-.57.57-1.5 1.73-1.63 1.64-4.31-2.78-9.13.32-13.47-1.19-6.67-2.33-8.23-2.22-12.15 3.57-2.63 3.89-5.67 5-10 4.11-3.75-.78-6.89.18-8.73 3.86-2 5-3.61 10.17-5.66 15.12-2.15 5.2-7.65 7.47-11.74 11a2.42 2.42 0 0 1-2.11.31l-.56-.48c1.48-4.3 5-6.74 8.5-9.16 2.48-1.7 4.15-3.76 3.42-7-.89-3.35 1.26-6.28 1.34-9.5a14.58 14.58 0 0 1 2.23-4c4.23-6.12 9.25-10.4 17.43-10.78 3.42-.16 7.17-2.49 10.24-4.84 2.41-1.84 4.69-1.89 7.39-.43 5.06 2.77 10.28 5.27 15.5 7.77z" fill="#fc79b1"/><path d="M314 176c4.11 1.28 8.19 3 12-.94 1-1 2.63-1.17 4.13-1.15 2.45 1.6 5 2.81 8 1.87a1.81 1.81 0 0 1 2 0c2.57 4.1 4.64 8.56 8.4 11.83a7 7 0 0 1 1.7 4A29.72 29.72 0 0 1 351 196a3.24 3.24 0 0 1-.79 2c-4.55-1.74-6.25-6-8.67-9.67-.83-1.23-1.32-2.64-2.17-3.85-2.52-3.59-5.27-4-8.59-1-2.21 2-4.32 4-7.06 5.24-1.93.46-4.38.19-4.39-1.76-.05-4.64-8.22-5.11-5.33-10.96z" fill="#fcaaa0"/><path d="M366 141.05l-1.9 3.08c-1.27-3.59-2.82 1.07-4.17-.14 1.64-6.22-1.44-12.93 2-19h1c2.43 3.64 1.94 8.34 4.35 12a8.32 8.32 0 0 1-1.28 4.06z" fill="#fb3c93"/><path d="M360 144l1-1c.86-1 .95-3.38 2.77-2.69 1.66.62-.35 2.57.4 3.83.35 3.48-1.14 6.53-2.28 9.66-4.71-2.5-.79-6.64-1.89-9.8z" fill="#fa0c6a"/><path d="M340 176l-1.89-.21a7.52 7.52 0 0 1-.4-2.42c.28-1.74-1.43-4.68 1.1-4.9 1.6-.14 5.12.1 5.37 3.56.34 1.6-.81 2.44-1.74 3.4-.71.57-1.44 1.13-2.44.57z" fill="#f91669"/><path d="M341.93 175l2.28-2.91 5.72-2.11.11.12c-.59 3.9-3.32 5.55-8.11 4.9z" fill="#fc79b1"/><path d="M266 315.94c-4.64 4.92-10 7.35-16.81 5-2.87-1-5.82-.9-8.75-.71-3.23.21-5.71-.36-7-3.88a5 5 0 0 0-3.15-3c-5.31-.71-5.14-4.81-6.52-8.56-1.65-4.48-.62-9.45-3.15-13.62-.25-.41-.61-1.2-.46-1.35 4.95-4.95-1.27-12 3.22-17.07a3.76 3.76 0 0 0-.06-4.7c-2.44-3.1-1.12-5.42 1.08-7.84 3-3.34 7.4-5.72 7.83-11 .1-1.22 1.45-1.38 2.4-1.22 5.16.88 7.89-2.48 10.62-5.91 1.32-1.66 2.37-3.64 4.71-4.13 4.94-1.63 9.66-4.15 15.13-3.44 1.91.24 4-.11 5.2 2 .17 1.5-.82 2.07-2 2.49-5.47.09-10.53 3.1-16.13 2.37-2.93-.19-4.56 1.78-5.83 3.89a12.3 12.3 0 0 1-6.2 5.39 11.08 11.08 0 0 1-1.36.5c-1.23.18-2.34.69-2.63 2-1.15 4.94-4.28 9-6.05 13.59-1.47 3.83.46 7.79 1.28 11.67 1.26 5.88 3.53 11.78-.61 17.66-2 2.88.42 6.11.65 9.19.29 3.79 9.33 10.82 13.13 10.67 5.15-.2 10.69.31 15.21-2.15 6.8-3.71 15.12-4.61 20.41-11.21a18.81 18.81 0 0 1 8.35-6.13 5.72 5.72 0 0 0 3.8-6.4c-.66-4.28.87-7.84 2.53-11.48 7.14-6.55 10.31-16 16.7-23.07 2.3-2.56 4.56-5.32 8.66-4.5 1.36 2.28-.26 3.85-1.49 5.3a33.35 33.35 0 0 0-7.2 12.93c-1 3.58-3.55 6.39-5.65 9.34a47.31 47.31 0 0 0-7.81 18.66c-.58 2.93-1.93 5.48-4.52 6.86-3.33 1.78-5 4.54-6.44 7.85-2 4.7-3.75 5-7 1.23-1.69-1.93-3.2-2.41-5.6-1.25-2.78 1.36-5.92 2.09-8.49 4.03z" fill="#fda6d1"/><path d="M266 315.94c2.83-3.6 7.41-4 11.08-6.09 1.91-1.08 2.58.48 3.3 1.86s1.23 3.38 3.4 3 2.91-2.38 3-4.1c.22-3.65 1.91-5.67 5.28-6.93a7.35 7.35 0 0 0 4.73-6c1.14-9.37 5.75-17 11.22-24.4a16.24 16.24 0 0 0 2.8-5.76c1-4.54 3.54-8.15 6.59-11.46 1.37-1.48 2.9-2.79 2.54-5.09-.34-1.81-.14-3.21 2.22-3.05.75 1.6 2.13 3.11.79 5-3.93 5.18-6.12 11.06-4.19 17.33s.72 11.69-1.14 17.38a11.2 11.2 0 0 0-.92 2.82c-.25 5.15-2.65 7.4-7.94 6.5-2.36-.4-3.51.95-3.91 3.4-.61 3.78-3.7 5.49-6.55 7.62-2.53 1.9-3.77 4.82-8.12 3.39-3.06-1-3.19 3-4.11 5-.5 1.14-.08 3-2 2.8-1.58-.15-3.61-.33-3.91-2.42-.79-5.48-4.07-4.58-7.66-3.21-2.12.92-4.31 1.64-6.5 2.41z" fill="#fd9ac5"/><path d="M324 258c-.88 9.17 2.95 18 2.09 27.15-.23 2.51.13 4.95-2.73 6.37a4.32 4.32 0 0 0-1.86 2.81c-1.33 8.34-7.15 13-13.63 17.26-.42.27-1.09.45-1.22.82-2 5.8-7.93 7.52-11.77 11.39-2.44 2.45-5.4 2.51-8.21 2.74-5 .4-10.19 1.14-14.73-2.11-.13-.1-.41-.22-.44-.18-4 5-7.62-.54-11.44-.31 3.16-5.86 9.12-5.88 14.56-6.92a3 3 0 0 1 3.4 1.59c1.13 2.81 2.82 2.58 5.56 2.82 3.8.33 4.46-.26 4.6-3.8.16-4.15 2.66-2.8 4.71-1.28 2.27 1.69 4.08 3.16 3.38-1.62-.3-2.08 1.39-3.21 3.33-3.68 1.11-.27 3-.12 3.25-.72 3.34-7.43 13.32-8.31 15.91-16.58 2.66-8.48 6.33-16.66 2.83-25.85A8.59 8.59 0 0 1 324 258z" fill="#fc7eba"/><path d="M250.08 234.05a9.71 9.71 0 0 1 4.61-4.24c2-1 .54-1.59-.69-1.88l2-2c2.14-4.68 6.88-4.12 10.74-5.17 1.85-.51 3.9-.15 5.86-.16a22.82 22.82 0 0 1 3.2.11c4.57 1.91 8.7.1 12.85-1.55a3.32 3.32 0 0 1 2.56 1.47 2.19 2.19 0 0 1 .06 1.43c-1.08 2.3-5.63 2.09-5 4.53.83 3.18 4.62 4.14 7.73 5.14a2 2 0 0 1 .58 1.36 4.69 4.69 0 0 1-2.77 3.57 5.45 5.45 0 0 1-1.54.39c-1.19.05-2.51 0-3.2-1-3.29-4.73-8-4-12.59-3.28-3.76.57-7.47 1.47-11.26 1.91-1.77.21-3.62.77-5.16-.75-2.72-4.67-5.31 1.13-7.98.12z" fill="#fc6da8"/><path d="M258 234c5.13.06 10.11-1.19 15-2.31 4.38-1 8.45-.5 12.65.31 1 .18 2.12.21 1.85 1.64-.63 3.44 2 2 3.45 2.37-2.08 4.2-5.1 5.12-7.68 2.36-3.56-3.81-7.05-4.18-11.9-1.27a1.15 1.15 0 0 1-1.41-.15c-4.42-1.74-9-1.37-13.33-.12A19.91 19.91 0 0 1 250 238a19.47 19.47 0 0 1 8-4z" fill="#fc8fbd"/><path d="M256 325.94l-2 1.95c-1 .77-2.62 1.16-3.14.55-3.4-4-9.09-2.42-12.81-5.48h0a10.2 10.2 0 0 1 11.6 1.08 8.87 8.87 0 0 0 6.35 1.9z" fill="#fc7eba"/><path d="M215.05 270.06l-5-1.11c0-1.25-.32-2.93 1.9-2.09 1.87.71 4.4.27 5.42 2.28.38.76-1.46.71-2.32.92z" fill="#f64493"/><path d="M323 253l-1-5c-.59-1.14-.67-2 1-2 .16 3 3.84 5.62 1 9z" fill="#fc7eba"/><path d="M354.82 325.12l4-4.31c.74-.75 2.18-1.27 2.54-.29 1.91 5.18 6 2.21 9.17 2.74l17.35 3.18c2.21.46 3.9.73 5.74-1.28 2.45-2.69 5.54-.73 8.37-.2a26.26 26.26 0 0 0-10 5 3.43 3.43 0 0 1-3.64 1.05c-3.76-1-7.27-1.63-10.68 1.3-1.83 1.58-3-1.33-4.58-1.69-1.54 1.51-1.48 3.82-3.07 5.16-4.23.89-7.19-2.36-9.4-4.53-1.9-1.89-4.24-3.77-5.8-6.13z" fill="#fb468e"/><path d="M370 335.75c-.34-2.09.77-3.67 1.63-5.46 1.58-3.31 2.8-2.11 3.59.17.62 1.8 1.59 1.7 2.41.76 2.8-3.25 5.75-3.59 9.48-1.52 1.27.7 3.22.19 4.86.23 4.37.55 8.12-2 12.32-2.63 2.6-.39 5.27-1.34 8.05-1.38 4.31-.05 6.36-4.51 10.66-5.22s6-4.18 6.33-8.82c.28-3.51 2.36-6.95 4.62-9.94 2.17 3.47 2.82 7 .66 10.76a4.5 4.5 0 0 0-.74 2.36c.14 4.39-2.32 6.44-6.22 7.83-2.9 1-6.09 1.77-8.39 4.15-3.86 2.47-8.61 2.26-12.68 4.13-7.84.67-15.5 2.9-23.49 2.32-3.59-.26-5 2.61-6.13 5.49-3.26.96-4.89-1.59-6.96-3.23z" fill="#fc3082"/><path d="M377 339c-1.73-2.78-.58-4.63 2-6a6.54 6.54 0 0 1 4.26-1c8.11 1.34 15.79-2.2 23.79-2 .36 1.82-.87 2.54-2.24 2.56-6.37.08-11.8 4.23-18.29 3.87 2.91 2.48 7-.19 9.64 2.72l-1.15 1c-5 .3-10 .89-14.94 0l-1.78-.29z" fill="#fc146e"/><path d="M418 326c3.31-2.52 7.3-3.57 11.1-5 1.59-.58 3.28-1.45 3.07-2.77-.79-5 4.7-9.12 1.83-14.32-.28-.51 0-1.31 0-2 3-1.2.66-4.21 2-6 3.13 1.75.58 6.29 3.9 8a63.79 63.79 0 0 1 1.06 11.18 16.19 16.19 0 0 1-4 10.58c-3.93-2.68-7.86-2.51-12-.41-2.16 1.04-4.45 2.74-6.96.74z" fill="#f81b72"/><path d="M418 326c3.57.2 6.44-1.85 9.5-3.13 4.1-1.73 7.16-1 9.42 2.83-5.27 7-13 9.51-21.07 11.33-2.54.58-5.18.69-7.78 1-3.93 1.26-8.14-.65-12 1.06h.05l-8.9-.16c-1.86 0-3.32-.31-3.17-2.67.16-2.66 1.72-2.34 3.44-1.63 3.54 1.46 6.8-.73 9.34-2 3.39-1.71 7.43.31 10.18-2.67 3.3-1.11 6.32-3.34 10.12-2.43.14.02.57-1.02.87-1.53z" fill="#f80354"/><path d="M380 340.08h14.94c-4.94.51-9.94 2.86-14.94 0z" fill="#fcd7e0"/><path d="M396 339.08c3.83-2.36 8-.8 12-1.06-3.88 1.09-7.93.98-12 1.06z" fill="#fc146e"/><path d="M276 222h-3c-5.28-2.06-10.48-.81-15.64.49A48.89 48.89 0 0 0 247 226h0c-4.37.61-7.76-2.59-11.91-3-3.12-.33-6.16-1.31-9.25-1.92-5.62-1.12-9.48-4.6-11.62-9.89-1.33-3.28-2.8-6.36-6.14-8.13-1.19-.63-2.46-1.89-2.32-3.08.53-4.43-2.64-6.9-4.75-9.94l-10-7c-2.5-1.52-3.21-3.42-1.95-6.29 1.53-3.48 1-7.35 1.19-11 .34-5.57 1.48-7.53 6.65-9a6.57 6.57 0 0 0 4.44-3.58 22.81 22.81 0 0 1 14.77-11.72 30.42 30.42 0 0 0 9.52-4.21 9.84 9.84 0 0 1 5.69-1.5 36.83 36.83 0 0 0 11.74-2c3-1.11 5.55-.7 7.7 1.65 2.62 2.86 5.94 4.73 9.22 6.67v1a.85.85 0 0 1 0 1.3c-4 1.6-7.84.29-11.61-.94-2-.64-3.9-1-5.71.21-2.71 1.86-6 1.51-8.78 2.44-6.28 2.14-13.17 1.18-19.13 4.5-3.29 1.83-6.21 3.75-7.62 7.43-1 2.71-3.29 4.1-6 4.81-4.23 1.12-5.69 4.14-5.85 8.17-.14 3.31.74 6.55.41 9.91-.25 2.58 2.11 3.46 4.24 4.12a11.89 11.89 0 0 1 5.82 5.14 36.66 36.66 0 0 0 12.33 12.4 9.43 9.43 0 0 1 3 2.65c4.48 7.3 11.56 10.64 19.35 13.13a21.91 21.91 0 0 0 13.23.4c5.81-1.73 11.66-2.73 17.69-1.19 3.43.88 6.9-1.35 10.34.06 1.36 2.32-.6 2.78-2 3.42-1.14.47-2.61-.02-3.69.98z" fill="#fd9cce"/><path d="M260 142c-3.88-.39-7.1-1.82-9.27-5.3-1.34-2.16-3.66-3.43-6-2.35a29.31 29.31 0 0 1-14.37 2.65c-4.1-.25-6.14 3.4-9.76 4.36-6.68 1.78-13.85 3.83-17.16 10.94-1.75 3.75-3.54 6.34-8.24 6-1.88-.13-2.7 2-3.37 3.83-2.05 5.61.09 11.75-2.34 17.35-.35.81 1 2.35 1.54 3.55-5.25-1.15-4.87-1.8-3.12-6.73s3-10.54.93-15.9a11.56 11.56 0 0 1-.77-4.33c4.74.25 7.42-1.84 10.9-5.54 5.49-5.83 11.87-11.21 20.25-14.17 5.63-2 12.37-2 17.06-6.76 1-1 2.48-.53 3.78 0 2.31.88 4.64 1.67 7 2.49A28.7 28.7 0 0 1 260 142z" fill="#fc90c3"/><g fill="#fd97c6"><path d="M201 190c3 2 5.34 4.54 5.28 8.4a3.28 3.28 0 0 0 2 3.2c4.72 1.94 5.88 6.4 7.72 10.4 2.32 4.94 6.25 7.24 11.62 8.11 6.68 1.08 13.35 2.53 19.38 5.89-1.37 2.54-3.28 2.05-5.53 1.27a42.13 42.13 0 0 0-12.86-2.64 19.67 19.67 0 0 1-14.71-7.31c-2.8-3.39-5-7.37-9-9.63a1.81 1.81 0 0 1-.85-2.16c2.03-5.8-.29-10.69-3.05-15.53z"/><path d="M247 226c7.26-6.2 15.79-6.69 24.68-5.46.49.07.87.93 1.31 1.42a27.28 27.28 0 0 0-17 4z"/></g><path d="M182 162c2.57 4.76 3.9 9.69 2 15v3c-.57-.56-1.69-1.2-1.62-1.66.75-4.8-.94-9.14-2.25-13.59A2 2 0 0 1 182 162z" fill="#fc63aa"/><path d="M249 230c-.1.31-.09.76-.3.9-3 2-12.25 1.4-14.72-.91C239 228.13 244 231 249 230z" fill="#fb67a8"/><path d="M366 141.05l.91-4.08c.78-4.35 2.14-8.46 5-11.92l5-5.49c.79-.84 1.67-1.75 3-.88 4.76 3.13 7.88-.17 10.58-3.16 2-2.25 3-4.07 6.75-2.31 2.16 1 5.53-1.65 8.74-.26 2.26 1 4.31 1.17 3.43 4.64a13.55 13.55 0 0 0 .63 6.81c1.69 5.5 5.55 8.36 10.86 2.66l2-1c1.54 3.24-1.7 2.86-3 3.95a5.68 5.68 0 0 1-4 2c-6.1-.38-10.91-4-16-6.7-2.48-1.3-3.84-1.13-6.19.21-4.45 2.55-8.42 6.11-14.39 5.74-3.1-.19-6.6 1.61-8.85 4.58-1.31 1.85-2.93 3.49-4.47 5.21z" fill="#fd61a3"/><path d="M372 125.05c-1.08 4.23-2.29 8.4-5 11.93-2-.8-3.47-1.78-2.74-4.44s-2.71-4.67-1.19-7.49c2.93-2.24 5.93-4.05 8.93 0z" fill="#fa1b7c"/><path d="M262 144l-1-4c8.74 2.59 16.06 6.79 20.25 15.57 1.87 3.94 5 7.29 7.68 10.83a27.79 27.79 0 0 1 5 12.64c.48 2.94 1.1 5.48 4.95 4.86.87 1 .53 1.86-.42 2.6-4.37 1.64-6.33-1.69-8.63-4.24-1-1.12-1.09-2.87-2.25-3.86-10-8.62-14.28-21.67-23.91-30.56-1.01-.92-2.26-2.01-1.67-3.84z" fill="#fc63a0"/><path d="M277.05 141.91l-1-7.88h2c2.06-1.28 3 .28 4 1.62l3 4.46c3.58 6.24 8.83 10.9 13.91 15.81 2.64 2.55 5.31 5.54 4.82 9.84a8.39 8.39 0 0 0-.26 4.74c.58 3.35-.5 6-3.63 7.71-2.3-2.23-4.15-4.68-3.89-8.12.49-6.52-5.5-9.58-7.73-14.63-2.5-5.62-6.63-9.75-11.22-13.55z" fill="#fc85b9"/><path d="M299.86 178.2c1.88-3.08 3.9-6.09 1.83-9.94-.61-1.14.39-1.76 1.31-2.23a4.16 4.16 0 0 1 1.77 2.21 10.34 10.34 0 0 1 .47 1.39c.7 3 2.6 5.64 3.29 8.66s2 6-.23 8.88a2.51 2.51 0 0 1-2.79-.13c-1.29-.77-2.34-3.62-4.12-.53-1.3 2.24-3.49 4.42-.52 7 2.18 1.87 4.21 3.85 4.2 7s-1.13 5.23-4.86 3.92a9.07 9.07 0 0 0-4.59-8.06c-2.51-1.64-3.2-4.52-3.85-7.29 1.44-2.28 4.13-1.93 6.17-2.93a2.07 2.07 0 0 0 1-2.18c.43-1.91 1.39-3.73.92-5.77z" fill="#fca9b0"/><path d="M265 131.05c.9 1.74 2.94 2.76 3.08 5-2.42 2.65-5.69 2.61-6.82-.29-.81-2.08-1-4.42-1.43-6.78 2.45-.23 3.17 2.4 5.17 2.07z" fill="#fa086b"/><path d="M420 130.05c.93-1.37 3.16-1.75 3-3.95a4.29 4.29 0 0 1 .86-.2 4.37 4.37 0 0 1 2.12-.78 16.71 16.71 0 0 0 4.38-.71c3.13-.89 5.46-.05 7 2.95a5.9 5.9 0 0 0 5.87 3.6c4.15-.07 7.41 2.62 7.58 6.74.14 3.33 4.35 4.75 3.14 8.32h0c-2.9 1.09-6.07 1.57-1.05 4.95 2.74 1.85 1.19 7 0 8.44-2.64 3.26-4.48 5.72-3.93 10.37.26 2.19-3.29 5.3-6 6-6.25 1.67-7.37 6.21-8.33 11.5-1.44 8-2.46 8.58-11.72 8.67 1-1.59 2.12-3.16 3.87-3.71 2.58-.8 3.14-1.88 2.62-4.7-.72-3.92 2.9-6.61 5.09-8.89s6.18-5.19 6.84-7.36a49.58 49.58 0 0 1 8-15.07 1.65 1.65 0 0 0-.18-2.28c-5-4.43-4.72-11.1-7.12-16.63a11.07 11.07 0 0 1-.44-2.4c-6 1.87-7.89-10.36-15.37-4.38-1.23.96-4.12-.26-6.23-.48z" fill="#fc68b6"/><path d="M453.94 146c-4.36-3-2.54-9.92-7.08-12.39s-10.15-3.13-13.48-8.32c-1-1.56-4.65 2.16-7.41.72.32-2.34 2.76-2.56 4-4h0c4.13.16 7.81.95 9.42 5.54a3.4 3.4 0 0 0 3.46 2.38c5.78-.45 9.39 1.53 9.49 7.88a1.48 1.48 0 0 0 .85 1c5.33 1.94 3.35 4.53.75 7.19z" fill="#fb52a6"/><path d="M238 323c4.21 1.93 9.68.3 13.09 4.71.39.5 1.88.17 2.86.22v1c-2.51.39-5.54 2.71-6.69-1.9-.11-.42-1.28-1-1.58-.88-3.34 1.83-5.32-.84-7.7-2.19.07-.33.02-.67.02-.96z" fill="#fb64a9"/><path d="M430 122.05c-.71 1.95-2.79 2.53-4 4l-2.13-.13c1.32-2.41 3.8-2.99 6.13-3.87z" fill="#fa3e96"/><path d="M297.94 186.13a12.88 12.88 0 0 1-6 3 5.79 5.79 0 0 1-5.59 1.59c-3.16-1.84-4.34-4.15-1.45-7.16 1.39-1.44 1.17-2.56-.21-3.76a22.11 22.11 0 0 1-3.11-3.23c-4.27-5-7.31-11.06-12.27-15.56a9 9 0 0 1-1-.9c-4.44-2.87-5.68-8.1-8.8-11.95a5.26 5.26 0 0 1-.4-1.39 3.37 3.37 0 0 1 .92-2.7L260 143l2 1c10.65 9.43 15.53 23.41 26 32.94 2.22 2 2.47 5.29 5 7.22a7.26 7.26 0 0 0 4.94 1.97z" fill="#fc90c3"/><path d="M360.07 219.86l.92.13 4.27 4.82c2.56 3.29 5 6.7 3.59 11.27-.73 2.31.32 4.23 1.27 6.13 1.2 2.36 2.64 4.6 3.92 6.91.92 1.67 1.44 3.37.08 5.11s-3.33 2-5.39 1.52c-5.93-1.27-6.1-1.21-4.42 4.55a8.57 8.57 0 0 1-.55 7.15 20.64 20.64 0 0 0-2.8 11.93c.27 3.71-1.19 5.21-5.11 4.07-7.7-2.25-13.48-6.54-16.75-14.06-.81-1.88-.7-4.41-3.1-5.43v-1c-2.4-3.72-1.81-7.78-.67-11.56.81-2.7 1.27-5.47 2.21-8.12 2.6-1.07 3.05.91 3.48 2.61a9 9 0 0 1-.34 5.4c-2.79 7.44 1.49 12.45 6.16 17 3.1 3 4.85 2 5.91-2.23 1.4-5.69 1-11.24.78-17-.18-6-1.71-13.61 4.74-18.56 1.63-1.25 1.78-3.46 1.27-5.55-.44-1.74-1.17-3.56.53-5.09z" fill="#fdc3e1"/><path d="M338 243c0 3.09.2 6.09-1.76 9-2.31 3.43-.9 7.31-.25 11-2.4-.34-2-2.21-2-3.77v-9.29a21.42 21.42 0 0 0 2.23-7 1.17 1.17 0 0 1 1.36-1c.48.06.62.54.42 1.06z" fill="#fdafd2"/><path d="M352 170c.94-3.43 4.54-4 6.75-6.06 2.85-2.66 5-5.35 5.94-9.26s1.91-7.92 5.3-10.67c4.09.09 8.17-.74 12.29 0 2.93.5 5.47-.58 7.85-2.4a23.94 23.94 0 0 1 11.16-5.17c1.14-.16 2.55-.75 3.4-.3 6.46 3.35 13.45 3.58 20.46 3.86 1.62.06 2.59 1.38 3.67 2.4.83.79 1.61 1.83 3 1.17 5.34-2.56 6.05 1.91 6 4.82-.25 11.95-1.83 23.2-11 32.77a97.64 97.64 0 0 0-16.6 23.42c-1.14 2.28-2.84 3.21-5.47 3.56-3.86.5-6 4.16-9.24 6.1-4 2.46-7.79 3.34-12.09 1.43-2-.88-3.89-1.95-6.16-1.63-5.22.72-9.6-.1-11.27-6a11.52 11.52 0 0 0-8.13-3.87 2.17 2.17 0 0 1-.19-1.42c.87-1.91 2-3.5 4.36-3.62 3 .33 4.37 2.63 5.6 5s2.46 4.25 4.87 5.29c2.16 1.74 4.73 1.28 7.19 1.35 1.66.05 3.54-.43 4.94.32 4.77 2.56 8.07-.15 11-3.09 5.63-5.72 11.15-11.44 13.57-19.61 1.25-4.2 4.59-7.59 8.56-10 6.21-3.77 8.1-10.08 8.27-16.58.16-6.09-4.94-8.87-10.55-6.65-5.43 2.15-7.59 1-8.79-4.64-.88-4.17-7.29-6.84-12.66-5.13-4 1.26-7.43 3.69-11.1 5.63-3.35 1.77-6.52 2.92-10.38 1.11s-4.79 1.39-5 4c-.72 7.25-5.28 11.13-11.31 13.92-1.47.6-2.85 1.24-4.24-.05z" fill="#fda0d8"/><path d="M338 243c-.55-1.05-1.2-.19-1.8-.09-1.31-1.81-3.86-.2-5.2-1.9a2 2 0 0 1-.54-1.3 3.13 3.13 0 0 1 1.63-2.22c1.56-1 4.14-.05 4.89-2.59a5.8 5.8 0 0 1 .68-1.15c2.09-1.64 3.93-3.57 6-5.24a13.37 13.37 0 0 0 4.12-3.08 10.37 10.37 0 0 1 2.61-2.14c3.43-.32 6.57-1 7.3-5.19a1.08 1.08 0 0 1 1.31-.1l1.09 1.84c-.09 1.49-.29 3 .58 4.36 1.26 1.95 1.1 4.79-.23 5.51-6.52 3.5-3.26 10.42-5.85 15.2a6 6 0 0 0 .21 5.74c3.3 6.7-.91 12.86-1.46 19.27-.19 2.27-2.39 2.25-4.37 1.49-6.47-2.48-11.65-13.16-9.71-19.93.84-2.95 2.08-6.1-1.26-8.48z" fill="#fdd5ee"/><path d="M359 218a6.1 6.1 0 0 0-.84-.33 1.34 1.34 0 0 1-.24-1.9c1.49-1.5 4.39.7 5.26-1.65 1-2.71-2.24-3.22-3.29-4.93-.68-1.12-1.69-2-2.3-3.21a1.85 1.85 0 0 1 .47-2c4.28-1.93 6.73-.21 8 4-.09 3.7-.22 7.4 2.08 11-3.2-1.23-6.14-.98-9.14-.98z" fill="#fa5592"/><path d="M330.91 240l.09 1a8.65 8.65 0 0 0-5 3.06 3.09 3.09 0 0 0-3 1.95c-.85.39-1 1.16-1 2l-2 3c-7.33 3.37-11.94 9.21-14.7 16.58-1.82 4.89-6.81 7.1-9.27 11.41-2.34.52-1.79 4.92-5.27 3.92a2.8 2.8 0 0 1-.33-2.84c2.49-5.23 3.59-11.28 7-15.83 3.63-4.82 6.39-10.51 11.61-14.08.83-.58 1.65-1.4 1.05-2.47s-1.89-1.18-3.09-.89a8 8 0 0 0-2.57 1.48c-5.61 3.85-8.95 2.43-9.32-4.39-.16-2.87-1-4.66-3.43-5.89a2 2 0 0 1 .29-2.08l2.09-3c.77-1-.2-1.87-.2-2.81 0-1.49-.27-3.33 1.37-3.93s1.91 1.42 2.83 2.24c3.43 3 8 4.66 10.47 9 .83 1.47 2.75.49 4.15 0a9.76 9.76 0 0 1 8.22.43c3.1 1.76 7.1-.47 10.01 2.14z" fill="#fdb9d1"/><path d="M304 168a2 2 0 0 1-1-2c-.57-6-4.49-10.06-8.88-13-5.88-4-8-10.57-12.36-15.54-1.15-1.3-1.45-3.38-3.74-3.43a12.22 12.22 0 0 1 3.27-10c3.11-3.46 3.76-7.87 3-12.46-.69-4.39 3.53-13.29 7.31-15.55.29-.17.64-.55.84-.48 6.42 2.21 5.27-2.74 6-6.14 1-4.87 7.31-8.85 12.61-8.14 3.42.47 7.14 3.54 10-1.33.45-.78 1.57.15 1.83.93 1.24 3.73 3.42 4.38 7.26 3.52 2-.46 4.59 1.51 6.95 2.24 3.39 1.06 2.36 3.57 2.44 6 0 1.57.36 4.05 2.71 4.25 3.46.29 4.16 2.73 5 5.34 2.1 6.75 5 13.26 5.56 20.46.75 9.93-2.74 24.28-13.26 30.92-3.71 2.34-6.61 4.87-8.23 8.89A4.12 4.12 0 0 1 329 165c1.26-5 2.32-10 6.33-14 4.55-4.56 6.88-10.5 7.66-16.95-.54-3.74-2.81-6.82-4.06-10.15-3.43-9.07-10.93-17-9-27.8.26-1.46-1-4-2.2-2.2-3.5 5-9.58 4.11-13.78 7.16-8.65-.28-12.28 4.76-13.87 12.51-.7 3.4-3 5.13-6.61 2.74-3.15-2.07-4.36 0-4.4 2.65-.1 6.35-.35 12.37 3.39 18.55 3.41 5.64 5.29 12.25 9.88 17.37 2.83 3.15 6.35 5.8 7.67 10.15.51 1.71 1.78 3.31 0 5-1 .61-1.69-.05-2.4-.59-.9-1.26-2-2.05-3.61-1.44z" fill="#fda8d4"/><path d="M276 134c-4.44-4.54-4.86-7.79-1.63-13.58.73-1.29 1.66-2.4 1.65-4-.08-9.05 6.34-15 10.56-22 .18-.3.93-.24 1.41-.35-2 5.7-5.35 10.71-6.1 17.24-.41 3.61-1 8.56-4 12.16-2.44 2.98-3.76 6.58-1.89 10.53z" fill="#fc85b9"/><path d="M314 101.06c1.48-2.32 3.15-4.38 6.31-4 2.72.32 4.4-.83 5.4-3.33.63-1.6 1.63-3.23 3.68-2.32s2.69 2.37 2.14 4.86c-1.35 6.08-.55 11.78 4.61 16.1 1.25 1 .8 2.44.85 3.71.14 3.51 1.53 7.09 3.95 8.85 3.89 2.82 3.11 5.7 2.06 9.11-2.82 5.67-7.37 9.26-13.12 11.83-4 1.78-3 6.88-5.6 10.05-5.92 7.15-11.22 7-15.94-1-2.15-3.65-5.17-6.78-7.79-10.12-4.31-5.51-9-11.15-8.56-18.95.14-2.47 1.09-4.57 3.56-4.6 3.21-.05 4.27-1.72 5.11-4.33 1.08-3.38 3.56-6 5.79-8.6 1.07-1.26 3.48-3 2.91 1.16-.16 1.19.33 2.12 1.45 2.13a2.11 2.11 0 0 0 1.92-2.45c-1.1-3.05.73-5.44 1.27-8.1z" fill="#fdc3e0"/><path d="M308.05 169l2 1.05c-.26 3.05 3.73 3.31 4 6-.42.92-.79 1.8.19 2.65 2.68 2.34 5.79 4.23 6.24 8.4.15 1.35 2.27.79 3.53.93.78.89.43 1.72-.15 2.53-3 3.23-5 7.62-10.2 8.1A18.64 18.64 0 0 1 308 187c.92-4.43-.37-8.46-2.18-12.4-.83-1.78-2.06-3.43-1.81-5.56 1.33-.71 2.67-1.04 4.04-.04z" fill="#fa819a"/><path d="M352 170c8.82-1.88 12.91-6.15 14-14.62.63-4.92 3.42-6.55 7.62-4.23a5.9 5.9 0 0 0 6.12-.05 93.43 93.43 0 0 0 9.51-5.28c5.52-3.85 11.08-2.16 16.58-.49 2.18.66 2 3.12 2.17 5.14.3 4.56 2.44 5.89 6.53 3.64 3.25-1.8 6-3.42 9.22.09s5.22 7.14 3.15 12c-1.22 2.87-1.95 5.87-3.57 8.65a10.82 10.82 0 0 1-4.75 4.55c-4.21 2.28-6.59 6.23-8.81 10.56-2.51 4.89-2.9 11-9.11 14.18-2.92 1.51-5.11 5.56-8.12 8-1 .86-1.9 2.35-3.24 1.62-4.69-2.53-9.72-1.59-14.64-1.87A3.08 3.08 0 0 1 372 210c1.83-1.74 4-1.23 6.14-.92a16.9 16.9 0 0 0 5.88-.37c6.31-1.24 10.46-4.16 13-10.62 1.7-4.29 4.77-8.14 6.07-12.83.79-2.86 3.44-4.34 5.68-6.08 2.57-2 2.72-3.64 1-7-3.29-6.24-6-10.18-13.61-5.51-2.75 1.69-5.61-1.13-6.29-5.09-1.16-6.69-4-7.9-9.88-4.38a56.58 56.58 0 0 0-10.74 8.06 36.26 36.26 0 0 1-11 7.57c-5.34 2.3-8.56 6.13-9 12.08A4 4 0 0 1 348 188a18 18 0 0 1-8-12l1.9-1.07c3.11-1 6.5-1.46 8.11-4.9z" fill="#fdb0dd"/><path d="M348 188c-.69-8.15 2.69-13.9 10.4-16.63 5.92-2.1 9.47-7.15 14.2-10.7 2.53-1.9 5.5-3.14 7.73-5.34 2.69-2.64 5.21-1.45 8.09-.42 3.15 1.12 2.46 3.49 2.59 5.72.3 5.18 3.1 6.65 7.64 4 5.84-3.4 8.36-2.47 10.27 4a5.89 5.89 0 0 0 1.42 3c3.51 3.3 3.59 5.82-.3 8.24-4.45 2.76-5.65 6.81-7.53 11.38a60.16 60.16 0 0 1-8.82 15.18c-2.7 3.28-7.89 2.9-11.92 4.18-2.89.92-6.42-1-9.76-.63a5.24 5.24 0 0 1-4.34-3.24c-1.33-2.58-2.09-5.95-5.66-6.78.49-3.24 2.48-4.55 5-3.28a4.27 4.27 0 0 1 2.08 2.09c4 9.52 8.65 7.23 18.08 1.22 6.06-3.85 6.6-11.2 2-17.34-2.28-3.05-2.25-3.08-4.94-4.26-.85 1.22.26 2.17.48 3.22.6 2.86-.7 4.85-2.92 6.35a4.88 4.88 0 0 1-6.42-.52c-2.85-2.54-5.94-4.85-8.52-7.65-2.8-3.05-5.79-2.58-9.1-1.48s-4.63 3.5-4.52 6.87a12.39 12.39 0 0 1-.36 4.46c-.62 1.75-1.34 3.57-3.84 2.35z" fill="#fdc2ea"/><path d="M349.05 192c4.13-.64 2.84-3.91 2.89-6.32.16-6.7 6.7-12 12.7-9.37 3.13 1.35 5.46 4.58 8.12 7 1.11 1 2.14 2.11 3.2 3.17 2 2 4 2 6.07 0 1.9-1.84 2.78-3.71.83-6.08-.84-1-2.75-2-.48-3.51a3.09 3.09 0 0 1 4.45.5c8 8.62 11.19 19.17-2.41 25.88l-2.23 1.13c-8 4-9.29 3.6-13.64-4.27-2.26-4.13-3.61-4.13-6.55-.13-2.12 0-2.27 2.52-4 3-1-4.18-3.42-6.68-7.83-7z" fill="#fdd0ec"/><path d="M342 188l8 10.06a2.16 2.16 0 0 1 .47 2.64c-.39 1.1-2.91.27-2.22 2 1.55 3.93 1.51 8.61 5.19 11.59a3.53 3.53 0 0 1-1.19 3.81c-4.22-.7-5-5.32-8.29-6.94 0 1.83 2.28 4-.06 6.05-3.17-.93-4-3.68-4.81-6.35a39.47 39.47 0 0 1-.92-4.87c-.88-5.17-2.12-9.89-8.93-9.41a5.61 5.61 0 0 1-2.08-5.26c3.15-5.06 8.39-6.23 14.84-3.32z" fill="#f6983a"/><path d="M350.06 201l-.1-2.89.2-2.06c7.36-1.26 7.81-.86 7.84 7v1l-.28 1.84c-.48 3.39.82 6.71.35 10.1v1.72c-.6 6.67 1.49 6.27-8.12 6.31-1.42-2 .09-3.48.92-5.08a13.17 13.17 0 0 1 1-.95l.94-3.94c-1.44-4.25-3.06-8.47-2.75-13.05z" fill="#fae8e1"/><path d="M342 188c-3.3.06-6.65-.19-9.88.31A4.79 4.79 0 0 0 328 192c-1 .78-1.35 2.61-3 2a2.91 2.91 0 0 1-2-3.9 2.13 2.13 0 0 0 1-2.07l7.27-6.69c3.49-3 6.24-.81 8.56 1.71A8.07 8.07 0 0 1 342 188z" fill="#fc9c6a"/><path d="M292 238c2.83 0 5.59-.2 4.18 4.27a6.47 6.47 0 0 0 2.54 7.13c2.18 1.51 3.73-1.25 5.31-2.51 1.36-1.08 2.7-2.08 4.46-1.78s3.52.78 4.06 2.48-1.24 2.56-2.29 3.54c-6.29 5.79-12.12 11.86-14.64 20.4-1.16 3.95-4.46 7.07-4.62 11.44-.78 6.28-3 11.69-7.74 16.26-5 4.78-8.79 10.41-16.91 10.8-6.17.3-11.59 4.61-18.13 4.74-7.8.16-15-9.08-12.67-16.53s3.88-14.74-1.68-21.61c-1.6-2-1-4.43-.21-6.71 1.54-4.32 3.6-8.44 2.34-13.41-.62-2.45 1-4.81 3-6.51h1c3.41-.6 5.06-3.22 6.92-5.75A16.83 16.83 0 0 1 251 240c5.89 1.28 11.19-2.45 17-2-.64 3.65-4.08 3.76-6.47 4.34-6 1.47-9.28 5.45-11.8 10.59-1.31 2.67-2.09 5.25-.47 8.06a4 4 0 0 1 .76 2.85c-1.81 5.46-.35 11-.56 16.5s-2.08 10.81.57 16.1c1.55 3.08 3.66 3.08 5.19.44 3-5.2 7.82-8.57 11.82-12.76 1.15-1.2 2.18-2.83 4.06-2.48 2.13.39 1.86 2.46 2.18 4a2 2 0 0 0 1.19 1.8c1.67-1.62 1.07-3.51.42-5.31-.8-2.21-.35-3.94 1.65-5.17s4.33-2.77 6.39-.76c3.76 3.68 4.54.66 5.62-2.12.24-.62.22.13.14-.46-1.23-8.4 3.43-16.29 2-24.71-.47-2.84-1.69-3.4-4.06-2.11s-4.83 3-7.78 3.22c-3.75.26-5.84-1.49-4.67-5 1.29-3.87-.29-6.22-2.44-8.76 2.57-2.1 5.25-1.59 8-.35 1.33 1.17 1.34 2.83 1.54 4.4.14 1.09.53 1.83 1.82 1.54 3.23-.68 5.43-3.73 8.9-3.85z" fill="#fdb9db"/><path d="M272 237c3.94.1 5.46 1.81 4 5.74-.7 1.81-2 4.07-.25 5.56 1.94 1.65 4.41.67 6.54-.43l3-1.72c1.65-1 3.2-2.79 5.35-1.61 2 1.09 1.48 3.27 1.3 5-.52 5.05 2.3 10.68-2.54 15.06-.37.33-.25 1.73.14 2.29 2.13 3.09 1.06 5.84-.28 8.88-2.37 5.4-2.3 5.56-6.33 1.63-2.32-2.28-3.93-.2-5.75.55s-2.48 2.09-1 3.85c1 1.11.85 2.5.76 3.81-.13 1.87-.43 4-2.68 4.18-2.95.24-2-2.29-2.3-3.94-.17-1.21.66-3-1.15-3.36-1.17-.23-1.85 1.17-2.61 2.05-4.2 4.81-9.83 8.32-12.79 14.31-.65 1.31-3.34 2.79-4.19 1.73-2-2.45-5-5.36-4-8.55 1.39-4.69-1-9.63 1.57-14.06.29-.51.41-1.67.11-1.91-3.78-3-1.85-5.76-.09-8.92.76-1.38.32-3.53-.43-5.32-2.88-6.87 2.7-17.66 10.14-19.77 3.32-.94 6.71-1.73 9.46-4a2.06 2.06 0 0 0 2-1.06h1c.37-.51.71-.48 1.02.01z" fill="#fec5e2"/><path d="M239 250c-1.12 3.85-3 7.27-.73 11.82.93 1.85-2.2 5.75-3.53 8.69-.86 1.91-1.6 4.41.13 5.55 5.71 3.73 3.24 9.4 3.77 14.27a13.17 13.17 0 0 1-2 8.7c-2.72 4.31 1.1 7.72 3.16 10.61a9.47 9.47 0 0 0 8.46 3.88c8.51-.53 15.7-6.31 24.41-5.68a1.75 1.75 0 0 0 1.32-.58c4.65-6.46 12.53-10.45 14.46-19 .42-1.86.77-3.95 2.54-5.26 2.18-.68 2.09-4.21 5-4-1.35 3.63-3.13 6.91-2.27 11.31.64 3.27-1.36 6.53-5.39 7.74-4.3 1.28-6.84 5-9.86 8-2.69 2.66-5.58 4.65-9.53 4.38-.71 0-1.33-.13-1.78.44-5 6.33-12.48 4.54-18.95 6.29-8.74 2.36-12-5.14-17.43-8.49-2.25-1.38.13-5.5-1.49-8-2-3.17-.22-5.3 1.89-7.34 1.35-1.31 2.29-2.51 0-3.89-.46-.28-1-1.28-.83-1.63 3.08-6.31-1.81-11.6-2.29-17.46-.26-3.07 1.19-5 2.4-7.31 1.52-2.89 3.62-5.42 3.78-9A4 4 0 0 1 239 250zm12-10c-3.06 4-4.49 9.81-11 10 2.77-1.6 4.53-4.1 6.32-6.68 1.09-1.56 2.4-3.32 4.68-3.32z" fill="#fda6d4"/><path d="M330.91 240c-4.16-.39-8.43 1-12.47-1.69-1.56-1-4.1-.56-6.12.76-2.71 1.77-5.23 1.46-6.11-2.05-.68-2.71-2.86-3.75-4.82-4.59-2.74-1.16-4.79-2.7-5.76-5.89-1.33 2.32.33 4.78-1.58 6.42 0-.33-.07-.67-.11-1-1.72-3.06-1.55-6.72-3.13-9.83L291 221c-.27-2.74 1-4.56 3.59-5.13 2.8-.61 4.12-2.47 5.12-4.83 3.5 1.05 4.41 4 2.45 7.31-1.2 2.05-4.91 2.84-3.08 6.46 1.94 3.85 5.37 5.09 9.21 5.8 4-.47 5.91 4.2 9.81 4s7 2.45 10.87 2.09a7.82 7.82 0 0 1 2.2.39 2.72 2.72 0 0 1 1.14.93z" fill="#fbb0a9"/><path d="M300 211c.74 3.46-.69 5.7-4.15 5.76-3.15.05-3.42 2.63-4.83 4.26l-2.02-1.11c-1.32-1-3.15-.59-4.5-1.56-1.57-1.62-4.23-2.57-3.49-5.62a2.08 2.08 0 0 1 .83-.49c6.32-1.49 6.32-1.49 5.18-7.53 2.65-1.43 4.74.57 7.07 1.13 2.6 1.02 5.44 1.75 5.91 5.16z" fill="#fcc8cc"/><path d="M290.81 222.11c4.2 2.28 3.34 6.16 3.13 9.83-2.73.79-9.13-2.42-9.73-4.94-.28-1.15-.34-2.35 1.13-2.88l5.47-2.01z" fill="#fb468a"/><path d="M272 237l-1-.05c1.85-3.12 11.21-4.6 12.27-1.66 2.4 6.68 5 2.68 7.76.71l1-.08V238c-3 1.63-5.37 4.47-9 5-3-1-1.22-4.39-3-6-2.69-1.18-5.35-1.87-8.03 0z" fill="#fda6d4"/><path d="M285 218c1.68-.06 3.2.23 4 2-4 2.59-8.23 4.23-13 2.08.9-3 5.09-1 6-4a2.21 2.21 0 0 1 3-.08z" fill="#fd97c6"/><path d="M285 218l-3 .05c-10.65 1.89-21.43.55-32.3 2.37-11.14 1.87-22-3.26-28.81-13.62-1.06-1.61-2.75-2.34-3.87-3.76 1.79-1.73 4.16-1.56 6.35-2a77.49 77.49 0 0 1 11.78 1.76c8.66 1.77 17.16-.75 25.75-.3a3.62 3.62 0 0 0 2.82-.78c4.33-4.66 9.48-3.63 14.77-2.44 2.58.59 5.27.63 7.84 1.28 2.83 1.64 6.61.53 9.12 3.13A3.25 3.25 0 0 1 294 207c-2.48-.17-4.36-2.42-7-2a2.16 2.16 0 0 1-2.69.62c-4.88-3.09-9.75-1.35-14.79.06 5.31.21 8.12 4.19 11.49 7.31L285 218z" fill="#fdb0d2"/><path d="M223 202c-1.85 1.19-3.93 1-6 1-6-2.81-9.46-8.13-13-13.38-1-1.44-2.63-2.42-4-3.61-3-.89-4.44-2.71-3.75-5.93a5.67 5.67 0 0 0 0-2.46c-1.87-8.93-1.73-9.27 5.62-14.28 2.33-1.59 4.65-3.15 5.91-5.88 3.14-6.82 9.51-8.49 15.86-8 6.67.47 12.63-1.61 18.85-2.86a77.34 77.34 0 0 1 14.3-1.54 3.46 3.46 0 0 1 3.18 2v1c2.09 4.68 4.4 9.2 9 12h0a1.69 1.69 0 0 1 .2 2.07c-5 .84-7.33-3.4-9.86-6.16s-4.44-3-7.58-1.44a57 57 0 0 1-31.73 5.3c-3.8-.4-6.05 1.41-7.45 4.51-2.45 5.4-4.43 10.83.41 16.16 2 2.23 2.94 4.7.53 7.53-2 2.38.57 3.54 1.89 4.75 2.94 2.73 6.62 4.83 7.62 9.22z" fill="#fdacd8"/><path d="M260 147c-5.76-2.25-11.76-.82-16.88 1s-10.56 2.34-15.51 3.18c-3.72.62-8.4-.21-12.59 1a7.44 7.44 0 0 0-5.21 4.29c-1.79 4.38-5.33 7-9.25 9.31-4.53 2.64-5.67 6.09-3.42 10.82.6 1.28 1.24 2.55.57 3.75-1.66 3 .63 4.16 2.3 5.67-4.35-.52-6.47-2.41-5.53-7.29.51-2.63-.52-5.52-.41-8.27.18-4.36 1.36-8.1 6.67-8.88a6.57 6.57 0 0 0 5.61-4.85c1.79-5.14 10.92-10.38 16.5-9.82 2.77.27 5.18-1.32 7.52-1.48 5.83-.41 11.05-4.38 16.33-3.82 4.27.45 8.77 1.9 13.26 2.45.04.94.04 1.94.04 2.94z" fill="#fdaad5"/><path d="M294 207l1-3a3.46 3.46 0 0 1 5 0c4-.47 5.24-3.14 3.14-6.58a3.33 3.33 0 0 0-.55-.8c-2-1.71-5.46-3.19-5-5.58.58-3.1 3.15-5.83 4.89-8.76 2.72 1 2.32 4.95 5.52 4.75q3 5.48 6 11a1.62 1.62 0 0 1 .37 1.95c-2.84.83-5.37 1.79-5.78 5.44-.19 1.65-2.27 2.18-3.55 3.13-1.55 1.64.23 3.16.21 4.75a15.39 15.39 0 0 1 .13 5.36c-1.19 4.94 2.29 8.8 2.72 13.33-3.72-.72-7.31-1.66-9.55-5.15-1.84-2.88-3.27-5.17 1.13-7.67 3.07-1.74 4.11-5.23.32-8.1-1.87-1.63-3.5-3.48-6-4.07z" fill="#fca98f"/><path d="M300 204h-5c-2.52-1.3-5.67 0-8-2-.35-2.34-.37-4.64-2.09-6.73-1.41-1.7-1.45-4 1.11-5.28l5.91-.88a29.09 29.09 0 0 0 8.6 9.95c2.54 1.85.29 3.35-.53 4.94z" fill="#fcc8cc"/><path d="M308.05 169c-1.35.12-2.68 1-4 .08v-1.05c.16-1.05.5-2 1.81-1.81 1.49.17 2.02 1.33 2.19 2.78z" fill="#fc85b9"/><path d="M286 190c-.9 1.82-1.94 4 .13 5.34 3.12 2.08 2.36 4.22.85 6.67-4.88-.79-9.81-1.34-14.6-2.47-2.51-.59-4.62-.13-5.73 1.69-1.61 2.63-3.73 2.78-6.33 2.81-11 .14-22.07 1.93-33-1-1.43-.38-2.89-.67-4.33-1l-11.38-10.9c-1.4-1.34-2.19-2.86.18-3.84 3.56-1.49 2.12-3.21.69-5.35s-4.54-4-4.18-7c.62-5.23 1.45-10.54 5.22-14.71 3.31-3.65 8.33-2.46 11.53-1.77 9.81 2.11 17.86-2.18 26.27-5.24 3.78-1.37 6.17-3.29 8.93 2A14.58 14.58 0 0 0 269 162c3.91.82 5.19 4.49 7.36 7.06 1.91 2.27 3.74 4.64 5.65 6.93 1.24 1.07 2.43 2.19 3.72 3.18 2.31 1.79 3.89 3.23-.06 5.2-3.49 1.76-.5 3.77.33 5.63z" fill="#fdc4df"/><g fill="#fdaad5"><path d="M282 176c-3.53-1.23-4.4-4.94-6.76-7.27l-6.25-6.72v-2c1.89.05 2.9 1.33 3.86 2.72L282 176z"/><path d="M269 160c-5.39-2.21-8.69-6-9-12 4.05 3.24 5.19 8.63 9 12z"/></g><path d="M330 196a3 3 0 0 0 2.84.06c3.72-1.89 4.45.46 5.18 3.46 1.46 6 1.08 12.64 5.91 17.5 4.37 4 1.67 8 .22 12.1-1.73 2-3.1 4.4-6 5.05-1.51.72-2.43 0-3.1-1.28-.44-1.64-1.55-3.08-1.48-4.88a3.79 3.79 0 0 1 3.4-2.44c4.42-.46 4.2-3.4 3.41-6.52-1.31-5.2-5.42-8.53-8.52-12.53-1.25-1.9-2.6-3.73-3-6.05-.15-1.61-.12-3.19 1.14-4.47z" fill="#f28034"/><path d="M344.17 229.14c-.42-.87-1.49-2-.75-2.69 3.38-3.05.93-6.26.53-9.41.1-1.84.16-3.66-1.44-5-1.38-1.18-1.14-2.3.31-3.15a1.9 1.9 0 0 1 2.85 1.08c1.25 3.38 4.59 5.05 6.29 8v1c-3.9.91-2.26 4.86-3.87 7-.53 2.03-2.19 2.66-3.92 3.17z" fill="#f8ab5b"/><path d="M336 232c0 1.46.9 2 2.2 2.22l-.15 1c-1.09 1.38-2.4 2-4.13 1.2-2.88-3-6.46-5.22-9.09-8.46-1-1.16-2.1-2.54-.81-4s3.09-1.07 4.52 0c2.93 2.29 5.13 5.22 7.46 8.04z" fill="#f9d380"/><path d="M348.11 226l-.11-3.85c-.4-3.29.77-4.48 4-3.18-.49 1.73-2.07 3-2 5-.09 1.2-.58 2.03-1.89 2.03z" fill="#fcd1a2"/><path d="M334 236l4.07-.8c-.26 4.34-3.7 2.22-5.78 2.85l-.36-.12c-.61-2.01-.04-2.78 2.07-1.93z" fill="#fdb9d1"/><path d="M358.11 216c-1-3.34-3.74-6.61-.35-10.1 3 .7 3.71 4.18 6.52 5.4 1.33.59 1 3 .14 4.49s-2.08 1.25-3.45.76a17 17 0 0 0-2.86-.55z" fill="#f84073"/><path d="M330 196v5c-1.07.52-1.92-.12-2.76-.61-2.83-1.62-5.2.05-5.34 2.26-.31 4.69-2.79 3.42-5.36 2.77-1.94-1.31-3.22-2.93-2.57-5.45v-2c2.07-.23 4.88.17 3.07-3.46-.34-.69-.48-1.56.4-1.4 2.76.48 4.14-1.24 5.56-3 1 2.42 2.18 4.25 5 1.9a5.67 5.67 0 0 0 2 3.99z" fill="#f67061"/><path d="M350.06 201c1.82 4.17 3.87 8.29 2.84 13.08-3-.43-3.65-3-4.18-5.25a16 16 0 0 0-1.63-5.1c-.76-1.18-1.58-2.36-.44-3.58 1.46-1.59 2.19.78 3.41.85z" fill="#e77223"/><path d="M280 237c2.79 1.1 1.53 4.23 3 6-1.66 1.54-2.7 1-2.94-1a45.39 45.39 0 0 1-.06-5z" fill="#fdb9d1"/><path d="M314 200l3 5c2.95 1.62 3.07 5.06 4.84 7.45 3 4.49 6.82 8.24 10.28 12.32.8.95 2.23 1.48 2 3.09.41 1.47 2.16 2.31 1.93 4.08-2.46-1.39-4.36-3.44-6.39-5.35-1.3-1.22-2.88-4-4.75-2.05-1.63 1.7 1.45 2.71 2.29 4.11 1.76 2.92 6.32 3.24 6.83 7.33a2 2 0 0 0-2.07 1.93h-2c-2.8-1.2-5.77-1.87-8.61-2.93-1.27-.48-2.53-.55-3.33.9a4.59 4.59 0 0 1-4.8-1.68 5.48 5.48 0 0 0-5.15-2.26c-6-5.7-3.7-13.06-3.94-19.91 2.65-.45 3.73 1.78 5.23 3.16 3.25 3 6.06 6.5 11.25 9.09-3-6.47-7.71-9.69-12.09-13.2-1.39-1.11-3.42-1.36-4.37-3.12 1.85-1.66 4-2.7 4.09-6 .11-3.79 3.39-2.39 5.76-1.96z" fill="#fca956"/><path d="M318 235.88c.43-.87-1.32-3.07.61-2.61 3.94 1 8.4 1.08 11.33 4.64-4.32 1.33-7.84-2.06-11.94-2.03z" fill="#f68c30"/><path d="M281 213a6.51 6.51 0 0 1-4.94-2.87c-1.35-2.13-3-3.33-5.77-2.4a2.18 2.18 0 0 1-3.1-2.15c0-1.82 1.08-2.68 3-2 .46.16 1.12.5 1.4.32 5.43-3.45 10.33 0 15.4 1.1 1.5 1.68 3.68 3.05 2.53 5.89-1.23 3-3.85 1.89-6 2.09-.84.08-1.68.02-2.52.02z" fill="#fdc4df"/><path d="M304.13 208c7.72 2.26 12.57 8 17 14.14.76 1.07 1.2 2.2.35 3.15-1.25 1.4-2.29.1-3.39-.6-5.36-3.45-9-8.77-14-12.62.05-1.4-4.09-2.77.04-4.07z" fill="#fb7a41"/><path d="M334.08 227.89A60.35 60.35 0 0 1 321 213a1.76 1.76 0 0 1 .73-2.88c2-.86 2.3 1.32 3.41 2.17.22 0-.07-.05-.23-.43-1-2.26-5.15-4.66-2.76-6.53 3.24-2.54 4.81 2.51 6.37 3.28 1 .67.7.56.57.17-.63-1.84-4.53-2.94-2.37-5 2.4-2.32 4.24 1.16 6.27 2.26 2.54 3.43 6 6.07 7.76 10.22 2.89 6.76 2 9-5 10.61a6.46 6.46 0 0 0-1.67 1.02z" fill="#e8531e"/><path d="M333 206c-2.18.08-3.43-2.91-6.09-1.71a36.51 36.51 0 0 1 3 3.55 48.68 48.68 0 0 1 2.45 4.9c-4.28-2.09-5.93-6.12-10.19-7l6.15 10.11c-2.94-.94-3.58-3-4.9-4.19-2.27-2.1-2 .07-2.4 1.32-2-2.32-2.72-5.32-4-8 1.23-1.86 2.23.13 3.83.25-2.35-3.81.71-5.3 3-6.76 2.92-1.9 4.15 1.66 6.26 2.49z" fill="#f15f45"/></svg>