<svg id="Layer_1" data-name="Layer 1" xmlns="http://www.w3.org/2000/svg" viewBox="0 0 289.32 289.83" width="10%" 
    height="10%">
    <defs><style>.cls-1{fill:#fd82b6;}.cls-2{fill:#fb5fa8;}.cls-3{fill:#fb88c1;}.cls-4{fill:#fcd7e0;}.cls-5{fill:#fc71ad;}.cls-6{fill:#fc468e;}.cls-7{fill:#fae1e9;}.cls-8{fill:#fc80bc;}.cls-9{fill:#fb4690;}.cls-10{fill:#fb64a9;}.cls-11{fill:#fa4393;}.cls-12{fill:#fb66ac;}.cls-13{fill:#fa3687;}.cls-14{fill:#fb52a6;}.cls-15{fill:#fa3e96;}.cls-16{fill:#fc7eba;}.cls-17{fill:#fb4190;}.cls-18{fill:#fb3e92;}.cls-19{fill:#fc5d9e;}.cls-20{fill:#fb4a95;}.cls-21{fill:#f90a67;}.cls-22{fill:#fbe3ec;}.cls-23{fill:#fb67a8;}.cls-24{fill:#f9509a;}.cls-25{fill:#f86eac;}.cls-26{fill:#fa65a7;}.cls-27{fill:#f20a5a;}.cls-28{fill:#f80a63;}.cls-29{fill:#f865a6;}.cls-30{fill:#f32774;}.cls-31{fill:#f84592;}.cls-32{fill:#f52277;}.cls-33{fill:#f81b77;}.cls-34{fill:#f25f9f;}.cls-35{fill:#fe9dc6;}.cls-36{fill:#fdafd2;}.cls-37{fill:#fc80c3;}.cls-38{fill:#fc67a5;}.cls-39{fill:#fb5d9f;}.cls-40{fill:#fcf2f6;}.cls-41{fill:#fa2a6c;}.cls-42{fill:#fb519e;}.cls-43{fill:#fd87c5;}.cls-44{fill:#fcb4cd;}.cls-45{fill:#fc6dae;}.cls-46{fill:#fc79b1;}.cls-47{fill:#fcaaa0;}.cls-48{fill:#fb3c93;}.cls-49{fill:#fa0c6a;}.cls-50{fill:#f91669;}.cls-51{fill:#fda6d1;}.cls-52{fill:#fd9ac5;}.cls-53{fill:#fc6da8;}.cls-54{fill:#fc8fbd;}.cls-55{fill:#f64493;}.cls-56{fill:#fb468e;}.cls-57{fill:#fc3082;}.cls-58{fill:#fc146e;}.cls-59{fill:#f81b72;}.cls-60{fill:#f80354;}.cls-61{fill:#fd9cce;}.cls-62{fill:#fc90c3;}.cls-63{fill:#fd97c6;}.cls-64{fill:#fc63aa;}.cls-65{fill:#fd61a3;}.cls-66{fill:#fa1b7c;}.cls-67{fill:#fc63a0;}.cls-68{fill:#fc85b9;}.cls-69{fill:#fca9b0;}.cls-70{fill:#fa086b;}.cls-71{fill:#fc68b6;}.cls-72{fill:#fdc3e1;}.cls-73{fill:#fda0d8;}.cls-74{fill:#fdd5ee;}.cls-75{fill:#fa5592;}.cls-76{fill:#fdb9d1;}.cls-77{fill:#fda8d4;}.cls-78{fill:#fdc3e0;}.cls-79{fill:#fa819a;}.cls-80{fill:#fdb0dd;}.cls-81{fill:#fdc2ea;}.cls-82{fill:#fdd0ec;}.cls-83{fill:#f6983a;}.cls-84{fill:#fae8e1;}.cls-85{fill:#fc9c6a;}.cls-86{fill:#fdb9db;}.cls-87{fill:#fec5e2;}.cls-88{fill:#fda6d4;}.cls-89{fill:#fbb0a9;}.cls-90{fill:#fcc8cc;}.cls-91{fill:#fb468a;}.cls-92{fill:#fdb0d2;}.cls-93{fill:#fdacd8;}.cls-94{fill:#fdaad5;}.cls-95{fill:#fca98f;}.cls-96{fill:#fdc4df;}.cls-97{fill:#f28034;}.cls-98{fill:#f8ab5b;}.cls-99{fill:#f9d380;}.cls-100{fill:#fcd1a2;}.cls-101{fill:#f84073;}.cls-102{fill:#f67061;}.cls-103{fill:#e77223;}.cls-104{fill:#fca956;}.cls-105{fill:#f68c30;}.cls-106{fill:#fb7a41;}.cls-107{fill:#e8531e;}.cls-108{fill:#f15f45;}</style></defs><title>floral-background-best2</title><path class="cls-1" d="M786.13,388a8.5,8.5,0,0,1-6.92,4c-5.6.31-10.6,2.44-15.87,5a44.47,44.47,0,0,0,12.86,8.15,12.76,12.76,0,0,1,5.79,4.37c-1.5,1.58-3.44,0-5.32.54.33,3.67,3.75,5.42,4.62,8.62,1.27,4.68,3.26,9.07,3.63,14.1.37,4.82.51,9.75,1.91,14.53a6.72,6.72,0,0,1-2.62,7.06c-3.31,2.5-3.49,5.61-1.75,8.68,2.54,4.45,1.79,9.34,1.89,13.88.16,7.47-8,13.89-15.52,13.09a34.45,34.45,0,0,0-13.19.84,6,6,0,0,1-1.93.39c-6.57-.46-13.05-1.52-19.39,2-3,1.65-5.5-2.45-8.65-2.6-3.68-.18-4.84-2.83-5.79-5.78s-4.19-3.45-6.33-5.13c-2.36-2.39-6.79,1.59-8.52-2.75-.21.89-.15,1.88-.93,2.57a1.59,1.59,0,0,1-2-1.59c-.55-5.28-3.75-9.23-6.56-13.39,2.7-8,1.33-15.49-1.81-23.19-1.81-4.45.94-8.81,3.47-12.7.63-.5,1.28-.89,2.09-.37-.45,9.93,3.6,19.54,2.11,29.51-.68,4.49,1.75,7.45,4.33,10.47,1.2,1.41,2.54,1.21,4,.41,3.11-1.76,5.65-.63,7,2.17,3.71,7.56,11.45,8,18,10.62a1.26,1.26,0,0,0,1,0c8.4-4.35,18.39.32,26.7-4.67a5.43,5.43,0,0,1,2.91-.28c5.66.15,6.36-.33,4.74-5.57-2.46-8,.53-14.13,5.87-19.51,2.47-2.49,3.06-4.85,1.51-7.9a12,12,0,0,1-1.4-4.17c.41-4.52.31-9.05.36-13.58.07-7.65-4.73-13.43-8.14-19.66-1.67-3-5.07-3.95-8.61-3.48-4,.58-7.84-1.15-11.83-.83a4.47,4.47,0,0,1-2.22-.89,1.33,1.33,0,0,1-.19-1.44c2.9-2,6.21-.88,9.33-1.16,2.37-.22,4.93.1,6-2.78,4.34-5.56,9.29-10,17.08-9.22,1.83.18,3.45-.78,5-1.7C785.08,384.68,785.66,386.3,786.13,388Z" transform="translate(-540.37 -235.48)"/><path class="cls-2" d="M700,240.27c6.33,3.56,13.62,5.8,17.51,12.74.54,1,1.78,1.64.5,2.86-2.21,6.74-1,8.88,5.45,9.2,1.79.08,3.29,1.64,5.17.8,3.55,2.49,3.15,6.09,2.45,9.58-.44,2.16-.4,3.94,1.54,5.17,3.12,2,4.21,5,4,8.41-.19,3.59,1.8,2.91,3.9,2.38.23,2.34-1.5,2.93-3.09,2.64-2.6-.48-3.54.7-4.09,2.87-.81,3.22-5,4.3-5.1,8-1.56,5.75-.21,11.71-1.21,17.5.32,3.37-1.4,7,1.21,10.08,1.27,3.4-.51,5.67-3,7.45a46.44,46.44,0,0,0-9.06,8.76c-1.78,1.3-3.55,2.66-6,2.21-4.51-3.16-4.51-3.16-5.43,2.17a2.53,2.53,0,0,1-1.24,1.95c-3.07,1.12-5.6.19-7.82-2a4.9,4.9,0,0,1-1.41-2.76,4.22,4.22,0,0,1,3-4.56,6,6,0,0,0,3.56-3.18c1.3-2.53,3.51-3.09,6.18-3.15,7.41-.16,12.24-6,13.7-13,1.75-8.46.85-16.91,1.81-25.31a18.15,18.15,0,0,1,.29-1.94c.81-3.31.61-13.73-.22-16.69-1.35-4.8-5.11-7.82-8.24-11.3-.73-.82-2.43-1.08-2.64-2.09-1.22-5.9-6.5-8.59-9.79-12.83-4.53-5.83-14.95-7.58-20.59-2.95a7.09,7.09,0,0,1-5.49,1.66,18.13,18.13,0,0,0-5.88-.1c-4.61-1.18-9,.53-13.41,1.25-1.2-4.24.5-6.93,5.24-6.62a12.22,12.22,0,0,0,10.35-3.89c3.76-3.72,9.63-2.89,14-5.54,1.2-.73,2.6.42,3.43,1.41,2.79,3.33,5.46,2.94,8.23,0A7.25,7.25,0,0,1,700,240.27Z" transform="translate(-540.37 -235.48)"/><path class="cls-3" d="M575.81,447c.1-9.3,7.82-13.75,13-19.68,2.85-3.29,5.39-8.29,11.41-6.7,2.11,2.68,4,.87,5.51-.56,1.23-1.21,2.24-2.74,3.39-4.09,3.29-.84,5.48-3.38,8.11-5.24,2.72-.45,5.72-4.81,8,.55-1.93,2.77-5.43,3.12-7.88,5.07-2.26,1.46-3.78,3.63-5.45,5.65-1.39,1.67-2.87,3.62-5,3.85-8.79,1-9.65,10.22-15.41,14.29a1.66,1.66,0,0,0-.43,1.84c2.21,4.42.78,8.57-.76,12.76a4.66,4.66,0,0,0,.5,3.8c.45.88,1.22,1.95.73,2.77-4.59,7.69,1,14.69,1.43,22,0,.65-.1-.15.1.48,1,3.46,12,11.51,15.69,11.45,1.64,0,3.34-.33,4.9.18,7.17,2.36,13.54,1.14,19.09-4a46.56,46.56,0,0,1,6.81-2.83c3.56-1.2,6.4-.73,8.25,3,1.72,3.41,3.13,2.13,4.14-.51,1.19-3.09,3.25-4,6.64-4.59,5.09-.88,9-4.56,11.12-9.36,1.38-3.11,3.22-4.83,6.62-4.75,3,.06,4.18-1.56,5.08-4.26,2.45-7.39,3.87-14.5,2.07-22.54-1.2-5.38-.26-11.73,5.38-15.6a3,3,0,0,1,2.11,2.18,5.56,5.56,0,0,1-.15,3.13A13.76,13.76,0,0,0,689.48,447c3.11,10.72-1.67,19.86-6.3,28.95a8.37,8.37,0,0,1-4.1,3.44,13.48,13.48,0,0,0-6.54,5.71,7.26,7.26,0,0,1-4.66,3.41c-1.87.48-3.36,1.32-3.62,3.48-.41,3.44-2.42,3.41-4.94,2.22-1.44-.68-2.58-1.18-3.47,1-1.53,3.68-7.18,5.37-10.22,3.07-1.9-1.45-3.08-3.85-6.14-3.25-3.91.76-7.82,1.35-10.62,4.59a13.11,13.11,0,0,1-1.08,1,12.08,12.08,0,0,1-4.54,2.45,7.21,7.21,0,0,1-6-1.17c-3.87-3-8-3.16-12.48-1.8a6.83,6.83,0,0,1-5.54-1.44c-3-2.15-5.67-4.66-9.79-5.13-2.63-.31-3.53-3.35-3.82-5.79a25.87,25.87,0,0,0-6.08-13.71c-2.07-2.5-2.26-4.89-.1-7.5a9.56,9.56,0,0,0,1.32-11c-1.38-2.93-2.08-5.94.75-8.56.47-.45.95-.91-.08-1.31-1.29-.5-2.53-.76-3.29.84C577.45,447.3,576.75,447.76,575.81,447Z" transform="translate(-540.37 -235.48)"/><path class="cls-4" d="M661.51,516H638.79c-1.7-.79-3.91-.43-5.16-2.25a2.1,2.1,0,0,1,1.46-1.62,92.61,92.61,0,0,1,12.57-1.54c5.54-.25,11-1.2,15.79-4.3,3.48-.79,5.11-4.93,9-5,9-1.59,18.5-1.52,26-8.35,2.57-2.36,5.78-4.05,8.12-6.76,4.91,4.84,9.06,10.46,14.77,14.49,3.57,2,5.22,6,8.81,8.08a17.52,17.52,0,0,0,5.71,2.41,56.82,56.82,0,0,0,7.24,3.4c.63.66.88,1.31,0,2-5.18,1.69-10.16.22-14.85-1.55-8-3-16-3.81-24.57-3.76-10.22.07-20.18.39-30,3.48C669.83,515.91,665.49,514.93,661.51,516Z" transform="translate(-540.37 -235.48)"/><path class="cls-5" d="M713.87,478.56c3.93,2,8,3.91,8.25,9.26,0,.15.14.3.24.42,2.3,2.9,13.9,4.33,16.89,1.83,2-1.72,4.08-2.17,6.34-1.08,4,1.93,8,1.47,12,.16a22.68,22.68,0,0,1,10.72-.48c8.8,1.34,15.77-6.62,14.54-15.17a70.59,70.59,0,0,0-2.63-12.88,5.21,5.21,0,0,1,2.75-6.68,5.23,5.23,0,0,0,2.79-5.81c-1.52-4.69-1.52-9.52-2.15-14.25s-1.25-9-3.17-13.34c-1-2.25-1.54-4.59-3.49-6.24s-3.08-4.3-2-6c1.42-2.17,3.36.54,5.1,1.06a10.59,10.59,0,0,0,2,.19c3.85,2.75,6.88,6.34,10.06,9.78-.95,1.08-2.15,2-1,3.73a4.32,4.32,0,0,1,.17,4.64c-4,6-4.24,12.3-1.15,18.65,1.31,2.66,1.26,4.67-1.16,6.42-4,2.89-4.54,6.37-2.19,10.62a9.46,9.46,0,0,1,.69,8.1,8.45,8.45,0,0,0,0,4.83c1.32,6.14-1.27,11.33-7,14.18-1.62.81-3.42,1.34-4.72,2.63-2.38,2.36-4.76,2.71-8,1.48-3.66-1.37-7.61-.31-11,1.4-4.35,2.22-8.36,2.65-12.52-.16-.67-.46-1.61-1-2.28-.81-6,2.11-12.14-1.17-18.11.68-2.83.87-4.42-.36-5.11-3a18.1,18.1,0,0,1-.31-4.41c0-2.5-.86-4.12-3.73-4-1.5.05-3.14-.06-3.42-2S712.2,479.25,713.87,478.56Z" transform="translate(-540.37 -235.48)"/><path class="cls-6" d="M799.8,431.25c2.8,9.41,5.84,18.77,4.88,28.82-.16,1.58.46,3.3-.88,4.66-1.41-1.47-2.71-1.9-4.41-.18-1.53,1.54-1.09,2.77-.06,4.2a11,11,0,0,1,2.2,3.67c-.07,2.78.71,5.86-2.57,7.57-1.47,4-3.62,7.67-4.12,12a4.66,4.66,0,0,1-2.23,3.66c-5.67,2.83-10.42,7.48-17.3,8A55.53,55.53,0,0,0,763,506.49c-1.76.56-3.42,1.09-5.2.28-1.66-1.54,0-2.23.87-2.92a29,29,0,0,1,7.67-3.89c1.36-1.18,2.64-2.71,4.63-2.49,3.45.38,5.68-1.86,8.45-3.24,8.8-4.42,10.49-12.87,12.66-21,.52-2,2.44-4.27,0-6.38-4.42-5.23-4.35-6.34.61-10.79,6.81-6.09,7-6.72,3.53-15.42-1.12-2.81-2.29-5.55-.53-8.41C796.67,430.7,797.81,428.78,799.8,431.25Z" transform="translate(-540.37 -235.48)"/><path class="cls-7" d="M661.51,516c10.14-2.28,20.24-6.1,30.43-6.35,8.31-.19,16.92-.91,25.29.51a34.67,34.67,0,0,1,9.3,2.9,30.67,30.67,0,0,0,17.21,2.8,2.34,2.34,0,0,1,2.08-.31c4.64,1,9.21.28,13.79-.46a14.51,14.51,0,0,1,1.31-.65,7.26,7.26,0,0,1,1.43-.47c3.5-.64,7.1.24,10.56-.81,5.15-1.47,10.56-1.53,15.65-3.56a30.86,30.86,0,0,0,12.28-8.47c4-4.66,3.92-10.19,3.34-15.81-.17-1.62-.71-3.21-.46-4.87a2.51,2.51,0,0,1,1.32-1.93c1.79,3.77,1.87,7.83,1.7,12.25,2.14-1,4-1.72,5.28.63,1.77,3.4-.51,6-2.55,7.74-2.32,2-5.35,3-4,7,.29.87-1,1.54-1.88,2a49.69,49.69,0,0,1-19.43,6.1c-6.79.72-13.94.57-20.33,3.84a3.59,3.59,0,0,1-1.37.52c-11.87.68-23.53.82-35.4-2-7.41-1.74-15.26-3.28-23.24-2.75-7.44.49-15-1.45-22.38.22A73.6,73.6,0,0,1,661.51,516Z" transform="translate(-540.37 -235.48)"/><path class="cls-8" d="M566.57,392,564,387.82c2.66-7,2.8-13.35-4.27-18.1-1.43-1-.67-3.68-3-4.21-3.56-1.08-5-3.93-6-7.15a6.63,6.63,0,0,1,.36-3.09c2-4,1.68-8.21,1.55-12.45-.08-2.85-1-5.95,1.83-8.18a1.68,1.68,0,0,1,1.42-.05c4.46,6.73,3,13.92.63,20.64-1.2,3.44-.39,4.37,2.31,5.32,3.85,1.93,7.7,3.87,10.41,7.39a15.83,15.83,0,0,1,3.91,14,2.5,2.5,0,0,0,.49,2.32c4,3.83,6.73,9.06,11.21,12.26,8.38,6,18.67,5.35,28.32,6.79a7,7,0,0,1,1.33-.54c2.87-.39,5.8-1.47,8.47.66.48,1.64-.85,2.15-1.82,2.9a21.76,21.76,0,0,1-5.59,2.33c-4.58,1-9.13-.89-13.7-.12a9.13,9.13,0,0,1-1.47.21c-8.61-1.78-17.11-3.94-24.7-8.6-2.09-1.29-3.5-3.43-4.89-5.46C569.8,393.18,568.68,391.84,566.57,392Z" transform="translate(-540.37 -235.48)"/><path class="cls-9" d="M727.69,304.12c-1.09-1.75.11-2.79,1.29-3.66,2-1.51,3.51-3.16,3.84-5.91.22-1.77,1.14-3.4,3.67-1.6,1.47,1.06,3.14.17,4-1.54,13.61-7.46,27.12-8.3,40.54.54,1.89,1.24,4,2.14,6,3.19-3,1.93-3.35,5.35-4.28,8.31-.88,2.79,2.52,1,3.15,2.42-1.91,4.73-6.43,5.66-9.68,2-2.51-2.79-2.37-6.33-2.83-9.69-.25-1.76-.12-3.56-2.23-4.52-3.18-1.45-12.31,0-14.86,2.47-2.81,2.71-5.92,4.69-10.11,3.58s-5.21,3.38-8.12,4.53c-3.11-.73-6.23-1.44-9.25.39A2,2,0,0,1,727.69,304.12Z" transform="translate(-540.37 -235.48)"/><path class="cls-10" d="M589.34,510.21c-12.88-4.47-17.67-15.43-21.23-27a12.28,12.28,0,0,1,1.23-8.71c2.06-1.07,4.16-.51,6.23-.07,1.14.24,2.69,1,2.42,2.05-1.55,6.21,6,9.07,5.33,15-.17,1.58,1.47,3.05,3.16,3.38,6.37,1.27,12.34,3.92,18.67,5.32.63,3.72-2.13,7.13-6.89,7.76A47.22,47.22,0,0,0,589.34,510.21Z" transform="translate(-540.37 -235.48)"/><path class="cls-11" d="M551.83,358.35c1.68,2.26,1.78,6.09,5.9,5.94,1.3,3,1.9,6.21,4.3,8.94s.65,5.94-3.26,6.78a4.94,4.94,0,0,1-2.31-2.84c.19-.27.5-.66.38-.87-3.53-6.34-6.69-12.93-12-18.05,1.45-1.92,1.22-3.75.36-6-1.7-4.39-3-8.94-4.4-13.42-.15-.47-.52-1.07-.36-1.4,3.75-7.51,4.07-17.19,13.2-21.3,2.62-1.19,2.6-5.19,6.07-5.23,4.09,4.5,4.68,7.33,1.15,11-5.21,5.38-8.15,11.82-10.36,18.75-.37.71-1.26,1.4-1,2.15C551.13,347.87,551.39,353.12,551.83,358.35Z" transform="translate(-540.37 -235.48)"/><path class="cls-12" d="M549.86,340.55c.61-8.23,5.39-14.4,10.6-20.15,1.89-2.09,2.49-3.27.24-5-1.68-1.28.11-3.17-1-4.47.53-.61,1.09-1.76,1.6-1.74,8.74.36,13.9-9.89,23.3-7.72,2.37.55,4.08-2.68,6.76-2.14,3.74,7.36,1.6,11.16-6.19,12.07-8.27,1-14,6.29-19.2,12.34a103.66,103.66,0,0,1-10.14,10.92c-3.46,2.2-2.1,5.68-1.73,8.46.45,3.47-.68,6.73-.41,10.11.08,1-.88,1.68-1.8,2.14-.5.12-1.21-.09-1.06-.49,1.51-4.1.67-7.89-1.24-11.62A2.31,2.31,0,0,1,549.86,340.55Z" transform="translate(-540.37 -235.48)"/><path class="cls-13" d="M626.84,299.1c2.72-3.81,2.51-8.58,4.22-12.73,2.44-.71,2.41-.71,3,1.8,1.29,5.51,2.53,11-.44,16.4-.84,1.54-.76,3.46-1.33,5.14-1,1.43-2.3.62-3.53.41.69,5.34,1.08,5.63,5.83,4.58a3.78,3.78,0,0,1,2.67.47c3,.76,4.45,3.85,7.25,5,4.69,3.38,8.66,7.38,11.08,12.74.73,1.62,1.38,3.43,2.88,4.46,3.13,2.16,4.19,5.38,4.66,8.79a24.65,24.65,0,0,0,4,10.34,6.48,6.48,0,0,1-1,5.87c-3.38,1.37-5.84.6-6.32-3-1.63-12.06-10.92-19.82-16.39-29.69-2-3.66-6.4-5.94-10.52-7.67a19.35,19.35,0,0,1-5.23-2.64c-2.37-3.44-5.11-6.8-2.83-11.39V308C626,305.14,625.43,301.89,626.84,299.1Z" transform="translate(-540.37 -235.48)"/><path class="cls-8" d="M555.81,334.67c3-7.3,9.33-12.21,14.53-17.55,3.15-3.23,7.93-7.2,13.91-7.14,7.13.06,8-1.15,7.15-8.19-.1-.81,0-1.64-.06-2.45,7.28.12,14.52.41,20.83,4.75-.18,1.76.92,3.07,1.58,4.54.43,1,1.31,2.07-.26,2.91-1.74.35-3.19-.58-4.72-1.09-1.26-.41-2.61-1.08-3.83-.54-11.2,5-24,6.8-33.15,16a55.45,55.45,0,0,0-5.73,6c-2.85,3.88-5.66,4.49-10.22,2.73Z" transform="translate(-540.37 -235.48)"/><path class="cls-14" d="M786.13,388,783,385c-2.54-5.62-1.48-8.78,3.94-11.83a24.24,24.24,0,0,1,3.41-.41c6.31-.84,6.56-1.05,7.84-7.29,1.1-5.38,2.38-10.31,8.69-12.4a7.54,7.54,0,0,0,5.34-7.95c-.11-2.31,1.38-4.58,3-6.56a6.67,6.67,0,0,0,.43-8.54c-2.31-3.49-1.88-4.35,2.71-5.71,8.42,3.62,9.59,10.16,2.92,16.31-4.66,4.3-4.61,6.19.29,9.86-2.3,3.72-1.79,8.88-6,11.6a29.19,29.19,0,0,0-6.76-2.64c-2.45-.65-3.92,1.17-5.27,2.75-1.08,1.27.5,1.49,1.12,2.06,2.21,9.06,1.32,10.13-7.61,13-3.76,1.22-9,1.86-8.36,8.16C788.85,387,787.07,387.23,786.13,388Z" transform="translate(-540.37 -235.48)"/><path class="cls-15" d="M821.58,350.46c-1.89-.12-4.31.44-4.76-2.2-.41-2.33-.91-4.91,1.42-6.78.75-.6,1.52-1.2,2.26-1.83,5.26-4.5,4.8-10.07-1.09-13.67-.38-.23-.57-.78-.85-1.17,0-.23,0-.46,0-.7.55-1.88,1.33-3.78-1-5.18-1.21-.74-1.46-2-1.73-3.31-.71-3.45-3.28-5.09-6.55-5.46-2-.23-4.35-.16-5.21-2.05-1.84-4.08-5.74-5-9.11-6.83.69-3.49,3.62-4.33,6.38-4.66,2.44-.29,3.61,1.81,4.29,4,.89,2.88,3.26,3.4,5.81,3.51,2.94.13,2.18-2.75,3.27-4.13,7.55,2.56,13.69,12.05,13,20.25-.1,1.14-.67,2.4.07,3.34,3.78,4.79.72,9.63.21,14.45-.06.61-.36,1.6-.76,1.73C821.8,341.45,822.44,346.34,821.58,350.46Z" transform="translate(-540.37 -235.48)"/><path class="cls-16" d="M605.23,500.27c-7-.12-13.41-3.14-20.18-4.45-2.45-.48-3.47-3.31-3.51-5.91,0-1.85-.12-3.87-1.48-5-2.53-2.12-5.9-3.45-2.78-7.72.79-1.08-1.23-1.6-2.27-1.83-1.87-.4-3.78-.62-5.67-.91-.28-3.62-2.31-7.26.13-10.84,2.31-.37,4.55.4,6.91.44.07-.91-1.36-1.14-1.08-1.72,1.37-2.76,1.76-4.6-2-6.19-1.59-.68,1.33-3.32,1.07-5.3.47-1.27.93-2.53,1.39-3.8a1.88,1.88,0,0,0,1.76-1c2-1.2,3.55-.4,4.94,1.09-2.62,2.46-2.36,5.44-.71,8,3,4.74,1.42,8.7-1.65,12.35-1.75,2.08-1.68,3.41,0,5.44,3.49,4.12,6.09,8.62,6.55,14.34.23,2.87.9,6.94,6.07,5.28,1.51-.48,2.46,1.35,3.54,2.3,2.56,2.27,5,4.81,8.87,4.41l.29.29V500Z" transform="translate(-540.37 -235.48)"/><path class="cls-17" d="M589.34,510.21c1.42-3.09,4.45-3.31,7.11-3.4,4.64-.16,7.37-2.34,8.78-6.54h0c3.43,1.5,7.88-.16,10.68,3.25,1.76,2.14,3.57.28,5.36.27,2.25-.56,4.58-1.18,6.65.26,3.89,2.7,8.25,2.9,12.71,2.71,6.65-.28,13.36.15,19.93-1.46,1.44-.35,3.4-.77,3.81,1.69-3.85,3.43-8.74,4.14-13.53,4.77-5.29.69-10.64.89-16,1.31a22.38,22.38,0,0,1-8.58-2.63c-4.27-2.12-8.81.22-13.13,1.52C605.15,512.3,597,514.16,589.34,510.21Z" transform="translate(-540.37 -235.48)"/><path class="cls-18" d="M700,240.27c-.68,2.43-3,3.28-4.66,4.79-2.33,2.19-3.85-.2-5.23-1.66-1.9-2-3.22-3.6-6.27-1-2.49,2.15-6.72.8-9.59,3-3.87,3-7,7.43-13.31,5.11-1.71-.63-5.45,1.35-4.36,5.26,1,2.2.41,3.58-2,4.1-2.75-3.92.13-7.43.84-11.1C665.5,235.37,686.7,231.3,700,240.27Z" transform="translate(-540.37 -235.48)"/><path class="cls-19" d="M799.8,431.25c-3.38.34-5.32,3.61-3.28,6.68,2.25,3.38,1.52,7.63,4,10.82a1.92,1.92,0,0,1-.7,2.61c-2.61,1.7-4.23,4.56-6.72,6.15-3.82,2.45-4.19,4.51-.79,7.42.42.36.43,1.18.63,1.79-4.56.57-5.76-3.11-7.26-6s.54-5,2.38-6.94c4.5-4.7,4.59-4.68,1.72-10.84-1-2.18-1.56-4.53-.8-6.68,1-2.92,1.29-6,2-8.91-.09-1.38.19-2.75-1-4-3.26-3.34-1.19-4,2.12-4A20.94,20.94,0,0,1,799.8,431.25Z" transform="translate(-540.37 -235.48)"/><path class="cls-20" d="M636.79,316l-1.89-1c-1.66-1.22-3.4-2.4-3-4.89-1.39-1.92-.26-3.76.36-5.5,1.63-4.51,3.64-9,.69-13.66-.9-1.43,1.94-4.33-1.85-4.52a17.29,17.29,0,0,1,4.25-8.07c3.72-4.27,7.53-8.47,11.3-12.7,1.68-.41,2.4-1.94,3.52-3,1.46-1.4,3-2.4,4.93-.73,1.6,3.89-.13,5.95-3.27,8.5-5.12,4.17-10.23,8.6-13.84,14.3-1.39,2.18-2.09,4.36.81,6.32,2.49,1.69,1.39,4.23.3,6.2-2.35,4.22-3.9,8-.12,12.53C640.81,311.94,638.74,314.27,636.79,316Z" transform="translate(-540.37 -235.48)"/><path class="cls-21" d="M814.74,300c1.11,2.37,1.22,5.19-1.63,5.52-3,.35-6.82.16-8.56-3.32-2.74-5.45-2.62-5.52-7.74-2.45a19.15,19.15,0,0,0-1.92,1.47c-.11.18-.21.36-.31.55-1.42,1.58-3.57,2.14-5.12,3.56a6,6,0,0,1-1.06.68c-.79.31-1.58.74-2.42.14-5.46.22-5.35.26-3.37-5.43.86-2.49-.21-6.25,4.49-5.54,3.95.18,10.42-1.2,16.41-3.54-.56,4.1,1.31,5.83,5.27,5.46C811.31,296.83,813,298.55,814.74,300Z" transform="translate(-540.37 -235.48)"/><path class="cls-22" d="M633.8,514c1.72.53,4.36-1.19,5,2-2.89,1.82-6,.86-9.06.73-1.05,0-2.43-1.08-2.58.87-.11,1.3.92,2,2.19,2.22a7.37,7.37,0,0,0,1.48.1c1.6-.05,3.17.22,3.31,2.11s-1.84,2.42-3.08,2.53c-7.41.66-14.83,1.13-22.26.25-.87-.1-1.8-.39-1.93-1.24-.17-1.08.82-1.7,1.62-2.27,3-2.11,7.09-2.73,8.74-6.59A20.32,20.32,0,0,1,633.8,514Z" transform="translate(-540.37 -235.48)"/><path class="cls-23" d="M566.57,392c1.45-2.51,2.75-2.4,4.17.1,3.91,6.89,9.47,11.1,17.75,11.77,4.06.34,7.17,4.55,11.78,3.8,0,2.13-2.5,3.41-2,5.73C583.93,411.78,572.57,405.82,566.57,392Z" transform="translate(-540.37 -235.48)"/><path class="cls-24" d="M598.28,413.35c-3.67-3.41.47-4.12,2-5.73h1c5,1.32,9.9,1.71,14.84,0l4.91-2a1.35,1.35,0,0,1,2.08.24,1.55,1.55,0,0,1-.73,2.4c-1.92.88-3.45,2.31-5.22,3.39-2.06,2.55-3.94,5.38-7.9,4.9-.66.56-1.09,1.72-2.29.87.33-2-.46-2.88-2.55-3A53.17,53.17,0,0,1,598.28,413.35Z" transform="translate(-540.37 -235.48)"/><path class="cls-25" d="M614.1,311c-3.28-4.8-3.28-4.8-1.93-6.93,4.3,1,7.69,5,12.65,3.83-.33,4.05,1.92,7.38,3.09,11,1,1.06,2.07,2.12,1.27,3.8-1,.76-1.78.16-2.55-.45a8.29,8.29,0,0,1-.84-1.11C622.72,316.84,617.52,314.94,614.1,311Z" transform="translate(-540.37 -235.48)"/><path class="cls-26" d="M558.77,380c3.77-2.53,4.3-5.21,1-7.77-3-2.33-1.48-5.29-2-7.95,3.25,4.24,7.36,8.1,9.46,12.84,1.45,3.27-.71,7.5-3.18,10.69Z" transform="translate(-540.37 -235.48)"/><path class="cls-27" d="M805,478.53l-.39,2c-2.34.23-2.46-1.49-2.91-3.11s0-3.28-1-4.73c-.71-.89-1.43-1.77-2.13-2.67-3-3.86-2.2-7,2.4-8.58,3-1,2.24,1.87,2.74,3.34.34,1.37-.29,2.8.66,4.2C806.52,472,809.13,475.08,805,478.53Z" transform="translate(-540.37 -235.48)"/><path class="cls-28" d="M633.8,514c-5,.43-10.25-1-15.06,1.66-.26.14-1-.61-1.52-.94-.53-2.12-2.27-2.48-4.06-2.77,5.38-4.06,10.82-5.7,16.6-.67,1.43,1.24,3,1,4.32-.44.68-.73,1.7-.59,1.93.32.12.51-.73,1.26-1.14,1.9Z" transform="translate(-540.37 -235.48)"/><path class="cls-29" d="M574.41,450.84c1.71,1.87-1.5,3.12-.34,5.15,1.59.33,4.25-.5,5.09,1.86s-2.47,2.12-3.12,3.82c.52,2.1,3.14.21,3.9,1.92-4.24,2.39-5.25,2.39-10.47,0C570.81,459.23,571.7,454.68,574.41,450.84Z" transform="translate(-540.37 -235.48)"/><path class="cls-30" d="M544.81,358.25c2,0,4,0,4.74,2.47,1.78,5.56,6.22,9.54,8.81,14.63.33.67,1.48,1.14.8,2s-1.78-.24-2.7-.17c-4.93-5-6.69-12.42-13.28-16.21C541.22,359.83,544,359.06,544.81,358.25Z" transform="translate(-540.37 -235.48)"/><path class="cls-31" d="M728.62,265.87l-2,2.08c-2.58-3.19-7.36.05-9.63-3s-2-6.35,1-9.1c-.53,3.8,2.47,5.09,5,6.34A21.58,21.58,0,0,1,728.62,265.87Z" transform="translate(-540.37 -235.48)"/><path class="cls-32" d="M654.55,261.71c-2.07-.2-3.22.89-4.3,2.56-.71,1.1-1.54,3.4-3.64,1.33,2.91-5.6,4.51-11.89,8.8-16.77,1.08,3.75-1.73,7.24-.77,11A1.29,1.29,0,0,1,654.55,261.71Z" transform="translate(-540.37 -235.48)"/><path class="cls-33" d="M804.65,364.23c-1.13.38-2.36,1.76-3.43.24s.33-2.35,1.23-3.26c4.43-4.5,9-4.2,13.11.85a10.36,10.36,0,0,1-7,.63C806.92,362.27,805.38,362.24,804.65,364.23Z" transform="translate(-540.37 -235.48)"/><path class="cls-34" d="M606.93,417.38l2.29-.87c-2.16,3.43-3.28,8.52-9.3,6-2.07-.88.35-1.18.27-1.81A13.94,13.94,0,0,0,606.93,417.38Z" transform="translate(-540.37 -235.48)"/><path class="cls-25" d="M626.84,299.1c-.09,3.09-.08,6.21-2,8.88C625.42,305,624.34,301.65,626.84,299.1Z" transform="translate(-540.37 -235.48)"/><path class="cls-35" d="M747.46,400.72c4.35-.68,8.5,1.45,12.84.95,4.72,1.48,7.81,4.4,10.34,8.85,2.78,4.89,5.92,9.59,5.93,15.28,0,4.46-.32,8.9.52,13.32a26.36,26.36,0,0,0,1.59,4.08c2.35,4,1,6.51-2.12,9.75-4,4.18-8.23,9.06-5.54,15.94a21.94,21.94,0,0,1,1,3.79c1,5.41-.18,6.67-5.62,5.36a7.46,7.46,0,0,0-5.19.54c-5.13,2.33-10.44,3.36-16.1,2.11-1.54-.34-4-.59-4.74.25-4.79,5.64-9-.29-13.35-.55-5-.31-8.45-3.77-10.83-8.09-1.63-2.95-3.38-5.16-6.67-1.74-.85.88-2.41,1.64-3,.65-2-3.34-6.26-5.09-6.52-9.74-.18-3.26.28-6.48.4-9.67.29-7.95-4.28-15.58-1.37-23.61.19-1,.67-1.32,1.52-.55,2,3.78-.44,8.26,1.91,12A6.21,6.21,0,0,1,703,441c.28,5.84,3,11.32,2.18,17.39-.32,2.42,1.1,5.44,4.41,4.26,4.77-1.69,7.91.76,11.15,3.29,7.1,5.56,13.72,4.05,17-4.53,1.63-4.25,3.53-8.45,4.59-12.93,1-4.24,4.18-5.7,8.18-3.91a21,21,0,0,1,3.24,2.23c2,1.37,4.13,2.47,6.38,1a7.06,7.06,0,0,0,3.57-7.06,20.75,20.75,0,0,0-2.65-7.35,62,62,0,0,1-3.91-8.48c-1.25-3.5-1.74-6.59,1.94-9.08,2-1.34,1.78-3.35.62-5.26-2.25-3.72-4.78-7.08-9.57-7.76C749,402.69,747.31,402.7,747.46,400.72Z" transform="translate(-540.37 -235.48)"/><path class="cls-36" d="M747.46,400.72a16.94,16.94,0,0,1,13.46,9.13c1.67,3,2.09,5.62-1.39,7.45-2.59,1.35-2.32,2.82-1.75,5.5,1.27,5.9,5.32,10.4,7,16.08,1.47,4.94-.84,8.28-4.08,10.51-2.9,2-6.38.3-8.75-2.37a5.93,5.93,0,0,0-6.25-1.79c-2.67.63-1.57,3.18-2.31,4.79-3.07,6.62-3.7,14.51-10.18,19.4-2.18,1.65-9.34,2.07-10.93-.12-1.73-2.39-4.28-3.46-6.43-5.17a4,4,0,0,0-4.48-.64c-5,1.95-7.77.9-7.42-4.3.43-6.31-2.39-12-1.93-18.09,3.25-.13,3.35,2.75,4.14,4.65,2.63,6.36,7.49,10.3,13.65,12.67,4.21,1.63,5.36.74,5.61-3.65.14-2.48.2-5,1.35-7.2a16.51,16.51,0,0,0,1.42-12.77c-1-3.51.27-4.46,3.88-3.83a23.91,23.91,0,0,0,2.88.64c3,.17,4.31-1.33,3.49-4.24-.54-1.91-1.79-3.5-2.76-5.2-1.73-3.05-2.87-6.14-2.3-9.82.65-4.12-1.9-7.07-4.32-10-1.18-1.44-3.83-2.59-1.78-5.21,4-.48,15.84,1.85,18.21,3.56Z" transform="translate(-540.37 -235.48)"/><path class="cls-37" d="M745.49,400.66l-18.78-2.92a1.13,1.13,0,0,1-1.42,0c-.73-.8-1.32-1.62-.17-2.55a7.87,7.87,0,0,1,7.19.45c-2-3.1-2.75-6.25-1-9.63.63-.41,1.46-.43,1.71.2,1.77,4.45,5.45,4.59,9.37,4.37a7.88,7.88,0,0,1,4.36.67c7,4,12.6.78,17.92-3.57,1.53-1.24,2.87-2.72,5-3,3.14-.43,4.85-2.68,6.17-5.18,4.6-8.77,11.17-16.09,17.25-23.79,4.23-5.36,7.51-11.2,7.39-18.34,0-2.81.89-5.51.89-8.31,0-3.17-.43-6.11-4.82-5.64a4.3,4.3,0,0,1-3.22-1,11.52,11.52,0,0,0-11.54-2.3,5.34,5.34,0,0,1-4.72-.9c-6.8-4.81-13.27-2.91-19.2,1.34-7.06,5-14.58,3.62-22.19,2.63-.35-4.33,2.86-5.64,5.89-5.26,6.14.77,10.35-1.39,13.9-6.18,2.35-3.17,5.77-3,9.41-2,5.13,1.45,10.47.4,15.71.68a16.59,16.59,0,0,0,4.65-2.12c3.21-.65,6.58.16,9.74-1.1a2.11,2.11,0,0,1,1.92.06c3.76,3.49,10,4.06,11.61,10.12a50.39,50.39,0,0,0,5.87,14.47c1.86,2.93.51,5.46-1.69,7.42a10.92,10.92,0,0,0-3.86,7.66c-.38,4.25-4.33,5.93-6.73,8.72-3,3.44-6.09,6.7-6.48,11.66-.36,4.53-4.93,4.72-7.7,6.77-6.3,1.55-4.71,6.64-4.93,10.92-.14,1.39-.59,2.84-2.23,2.59-8.23-1.27-14.11,2.82-19.47,8.2-4.81,3.17-10.6,2.41-15.83,3.92C745.48,400,745.48,400.33,745.49,400.66Z" transform="translate(-540.37 -235.48)"/><path class="cls-38" d="M790.92,427.31c.68,2.62,2.29,4.86-.48,7.81-1.49,1.59-1.1,5.19.76,7.8,3,4.23,2.42,7.52-1.52,10.83-5.4,4.55-4.33,8.83,3.24,13,1.2.13,2.84.6,2.44,1.81-3.77,11.38-6.23,23.69-18.85,29.39-1.27.57-2.69,1.48-4.21.85-2.69-1.1-3.94.53-5.09,2.48-3.26-.34-6.29,0-9,2.29-1.16,1-2.78.77-4.26.57-8.09-1-16.07-2.72-24.21-3.56-3.43-.36-6.21-.68-9.18.86-5.45-4.16-11-8.26-13.65-15-.66-2.42-4.25-3.52-3.1-6.77.13-1.42.27-2.84.54-5.78,1.4,3.9,3.15,4.75,5.87,3.75a3,3,0,0,1,3.6.9c.07,1.7-5.78,6.3,2.17,4.21,2-.54,3.77.86,3.75,3.42,0,1.64-.06,3.28,0,4.92.2,4.34,1.43,5,5,2.64,1-.64,2-1.87,3-1,3.68,3,7.32,2.38,11.38.79,2.36-.93,4.72.37,6.89,1.79,2.51,1.65,4.85,1.93,8.1.47,5.11-2.31,10.69-5.38,16.54-1.27.33.23,1.21.3,1.35.1,3.87-5.31,14-4.62,14-12.92,0-5.65,1.77-11.54-.25-17.06-2.75-7.51-3.06-7.54,3.26-13.31,2.47-2.26.23-3.52-.58-4.94C785.33,440.85,786.47,431,790.92,427.31Z" transform="translate(-540.37 -235.48)"/><path class="cls-39" d="M664.37,507a2.78,2.78,0,0,0-3.15-.74c-8.28,2.63-16.8,1.71-25.25,1.83-2.4,0-4.93-.06-6.85-1.85-2.49-2.33-5.21-2.21-8.11-1.07a1.48,1.48,0,0,1-.5-1.15c.19-1.46,1.77-1,2.47-1.8l3.95-2c.27-.2.61-.54.85-.47,5,1.47,10.08-.56,15.27,1.05a21.08,21.08,0,0,0,17.85-2.15c7.73-4.82,12.92-12.45,20.13-17.87a14.59,14.59,0,0,0,5-8.35,6.33,6.33,0,0,1,1-2.76c6-6.51,3.92-14.08,2.77-21.45-.69-4.41-1.64-8.73.33-13l0-3c.79-3.28-2.31-5.82-1.71-9.07.57-1.56,1.55-2.51,3.34-2.25,1.43.65,2.68,2.11,2.37,3.28-.93,3.57,1.25,4.28,3.79,4.95-2.53,5.39-4.75,10.3-1.35,16.73a19,19,0,0,1-.45,19,4.13,4.13,0,0,1,.23,4.23c-4.8,12.2-11.39,23.19-21.55,31.78a8.82,8.82,0,0,1-2.65,1.25C668.94,502.74,668,507.05,664.37,507Z" transform="translate(-540.37 -235.48)"/><path class="cls-40" d="M672.18,502.14C679.58,496,685,488.29,690,480.22a43.47,43.47,0,0,0,6.2-15.34c5.54,3.4,6.34,9.25,7.71,14.81-.29,2.86,4.69,3.32,3.1,6.77-5.12,6.91-11.69,11.8-20.17,13.72-3.32.76-6.87.7-10,2.31C675.09,503.39,673.68,502.9,672.18,502.14Z" transform="translate(-540.37 -235.48)"/><path class="cls-37" d="M777.09,439.12c-2.51-4.38-1.14-9.19-1.67-13.79-1.16-10.11-6.71-17.91-15.12-23.66,3.9-.93,7.57.57,9,3.69,2.83,6.27,8,11.47,8.11,19.08A126.12,126.12,0,0,1,777.09,439.12Z" transform="translate(-540.37 -235.48)"/><path class="cls-41" d="M698,429.15l-5.63.36c.62-2.74,1.59-5.49-.17-8,.25-3.1,2.54-3.61,5-3.9,2.09.39,4.35.46,5.56,2.68.47,2.85.18,5.42-2.7,7l-1,.94Z" transform="translate(-540.37 -235.48)"/><path class="cls-42" d="M745.48,399.69a45.88,45.88,0,0,1,15.83-3.92c1.07,3.47-1.4,3.81-3.7,3.89C753.57,399.81,749.53,399.69,745.48,399.69Z" transform="translate(-540.37 -235.48)"/><path class="cls-43" d="M669.42,253.87a5.57,5.57,0,0,1,4.7-.63c3.28,1.16,5.67.73,7.71-2.81,1.72-3,5.44-1.53,8.21-1.25,3,.32,5.93,1.78,9.1,1.78a2.53,2.53,0,0,1,2.63,1.83c1.15,3.84,3.2,6.71,7.51,7.33.29,0,.77.38.76.55-.36,6.16,4.87,8.67,8.05,12.55,1,1.23,1.57,2.78,3.15,3.61a4.38,4.38,0,0,1,2.51,4.43,4.88,4.88,0,0,0,1.32,4.06c3.58,3.51,3.24,7,.39,10.86-3,4.1-1.86,9.14-2.09,13.7-.21,4.31,1.34,8.71-1.3,12.78a2.15,2.15,0,0,0-.25,1.43c1.13,6.36-1.42,10.67-6.81,14.12-2.62,1.67-4.73,3.13-8,2.47-2.35-.49-4.45-.11-5.29,2.94-.47,1.68-1.39,3.44-4.15,3.14-1.91-.21-2.15,2.07-2.55,3.64-3.73-1.83-1.79-4.46-1-6.92a45.19,45.19,0,0,1,12.63-14.06c10.78-8.05,13-24.87,8.2-38.86-1-2.78-2.18-5.48-3-8.33-.4-1.43-.89-3-2.28-3.67-3.68-1.69-5.09-4.45-5.69-8.43s-4.7-4.26-7.83-4.6c-2.82-.29-5.61.1-7.38-2.75-.26-.41-.9-.85-1.23-.64-4.88,3.15-10.19-1-15.39,1.16-3.72,1.54-5.86,3.35-6.11,7.21-.23,3.66-1.18,6-5.68,6.32-4.17.28-8,6.69-7.88,12.91.12,6-.73,11.4-4.79,16-1.71,2-1.33,4.69-2.33,6.93a2,2,0,0,1-2,.83,2.19,2.19,0,0,1-1.24-.79,6.51,6.51,0,0,1-.27-7.74c3.39-5.64,4.78-11.95,6-18.37.91-4.79,3.59-9.07,5.39-13.61,1.12-4.46,2.59-8.69,7.07-11a4,4,0,0,0,2.18-2.54C663.24,255.6,666,254.4,669.42,253.87Z" transform="translate(-540.37 -235.48)"/><path class="cls-44" d="M695.11,343.53c-1,2.28-1.86,4.56-.07,6.87l1.16,2c-4.85,4-9.86,7-16.12,2.76-1.76-2.07-4.66-3.39-4.49-6.74a10,10,0,0,0-3.54-9.26c-8.22-7.38-12-17.39-16.55-26.89-2.35-4.85-1.47-10.28-.65-15.44.38-2.41,2.22-3.76,4.76-2.69,3.79,1.6,5.49-.23,6.5-3.52.15-.47.33-.93.49-1.39,3.18-8.89,3.91-9.37,13.54-9,1.41,3.23.11,6.42-.57,9.46-.52,2.31-2.68,3.14-4.35.75-1.52-2.16-2.28-.95-3.25.27a22.06,22.06,0,0,0-3.45,5.37,8.84,8.84,0,0,1-5.65,5.65c-3.5,1.23-4,5.55-1.87,10.18,2.8,6,6.9,11.1,11.14,16.1a48.63,48.63,0,0,1,4.75,6.88c2.26,3.84,6,4.57,9.56,1.87a14.24,14.24,0,0,0,5.31-7.53,10,10,0,0,1,5.4-6.66c3.88-1.92,7.6-3.88,9.27-8.3a1.83,1.83,0,0,1,2.78-1.11c.89,5-.9,9.45-3.87,13.23A72.29,72.29,0,0,0,695.11,343.53Z" transform="translate(-540.37 -235.48)"/><path class="cls-45" d="M669.42,253.87c-2.79,1.28-5.37,2.62-5.72,6.26a4,4,0,0,1-2.71,3.22c-5,1.69-5.77,5.87-6.4,10.21-4.66,6.64-9.51,13.22-10.61,21.57a23.78,23.78,0,0,1-2.09,6c-1.67,4.06-2.46,8.13.85,11.88h0c2.35,2.33,2.13,5,1,7.77-3.22-.3-3.94-4.23-7-4.8,1.55-3.31,2.09-6.19-1.26-9.17-1.6-1.42-.95-4.18.41-6.34a47.27,47.27,0,0,0,2.93-6.13c.64-1.45.36-2.69-1.39-2.9-3.48-.42-2.73-2.46-1.91-4.59,1.09-2.87,2.11-5.87,4.92-7.54,5-2.94,6.58-9.46,12.77-11.33,2.42-.73,1.07-4.07,1.29-6.25l.09-1.89a5.79,5.79,0,0,0,1.93-4C660.63,253.75,664.65,251.4,669.42,253.87Z" transform="translate(-540.37 -235.48)"/><path class="cls-46" d="M781.05,311c-.56.56-1.48,1.7-1.61,1.61-4.26-2.74-9,.32-13.31-1.17-6.59-2.29-8.13-2.19-12,3.52-2.61,3.84-5.61,4.94-9.89,4.05-3.7-.77-6.8.18-8.63,3.81-2,4.93-3.57,10-5.59,14.91-2.13,5.13-7.56,7.36-11.6,10.81a2.36,2.36,0,0,1-2.08.31l-.56-.47c1.47-4.25,4.94-6.65,8.41-9,2.45-1.68,4.09-3.71,3.38-6.91-.88-3.31,1.23-6.2,1.31-9.37a14.3,14.3,0,0,1,2.21-3.92c4.18-6,9.14-10.26,17.22-10.64,3.38-.16,7.08-2.46,10.12-4.77,2.38-1.82,4.64-1.86,7.3-.43C770.76,306.05,775.91,308.52,781.05,311Z" transform="translate(-540.37 -235.48)"/><path class="cls-47" d="M680.29,354.41c4.06,1.26,8.09,3,11.82-.92,1-1,2.61-1.16,4.09-1.14,2.42,1.58,4.93,2.78,7.94,1.85a1.76,1.76,0,0,1,2,0c2.54,4,4.59,8.44,8.3,11.66a6.89,6.89,0,0,1,1.68,3.95,27.5,27.5,0,0,1,.69,4.33,3.25,3.25,0,0,1-.77,2c-4.5-1.71-6.19-5.94-8.58-9.54-.82-1.2-1.3-2.6-2.14-3.79-2.49-3.54-5.21-3.9-8.49-1-2.19,1.92-4.26,3.95-7,5.16-1.9.46-4.32.2-4.33-1.74C685.49,360.61,677.43,360.14,680.29,354.41Z" transform="translate(-540.37 -235.48)"/><path class="cls-48" d="M731.69,319.91l-1.87,3c-1.26-3.54-2.79,1.05-4.13-.14,1.62-6.13-1.42-12.75,2-18.69h1c2.4,3.59,1.92,8.23,4.3,11.83A8.26,8.26,0,0,1,731.69,319.91Z" transform="translate(-540.37 -235.48)"/><path class="cls-49" d="M725.69,322.81c.33-.33.69-.63,1-1,.86-1,.94-3.32,2.74-2.65,1.64.61-.35,2.54.4,3.78.34,3.43-1.13,6.44-2.25,9.52C722.94,330,726.83,325.93,725.69,322.81Z" transform="translate(-540.37 -235.48)"/><path class="cls-50" d="M706,354.41l-1.87-.21a7.55,7.55,0,0,1-.39-2.38c.28-1.71-1.41-4.62,1.08-4.83,1.58-.14,5.06.1,5.31,3.5.34,1.58-.8,2.41-1.71,3.36C707.69,354.35,707,354.92,706,354.41Z" transform="translate(-540.37 -235.48)"/><path class="cls-46" d="M707.88,353.35l2.25-2.86,5.65-2.08.11.12C715.31,352.4,712.61,354,707.88,353.35Z" transform="translate(-540.37 -235.48)"/><path class="cls-51" d="M632.86,492.35c-4.58,4.86-9.91,7.25-16.6,4.89-2.84-1-5.75-.88-8.65-.69-3.19.2-5.64-.36-6.88-3.83a4.94,4.94,0,0,0-3.1-2.91c-5.26-.71-5.09-4.75-6.46-8.45-1.62-4.42-.6-9.32-3.11-13.42-.25-.41-.6-1.19-.45-1.34,4.89-4.88-1.25-11.81,3.18-16.83a3.69,3.69,0,0,0-.06-4.63c-2.41-3.06-1.1-5.35,1.07-7.73,3-3.3,7.31-5.64,7.74-10.83.1-1.2,1.43-1.35,2.37-1.19,5.1.86,7.8-2.45,10.5-5.83,1.3-1.64,2.33-3.59,4.65-4.08,4.87-1.6,9.54-4.08,15-3.39,1.89.24,4-.1,5.13,2,.17,1.47-.8,2-2,2.45-5.41.09-10.41,3.06-15.94,2.34-2.89-.19-4.5,1.76-5.76,3.83a12.15,12.15,0,0,1-6.13,5.32,11.86,11.86,0,0,1-1.34.49,2.75,2.75,0,0,0-2.6,1.93c-1.13,4.87-4.23,8.86-6,13.4-1.45,3.78.45,7.68,1.27,11.51,1.24,5.8,3.48,11.61-.61,17.41-2,2.84.42,6,.65,9.07.29,3.73,9.21,10.66,13,10.52,5.09-.2,10.57.3,15-2.13,6.72-3.65,14.94-4.54,20.17-11.05a18.64,18.64,0,0,1,8.25-6.05,5.64,5.64,0,0,0,3.76-6.31c-.65-4.21.86-7.72,2.49-11.31,7.06-6.46,10.2-15.75,16.5-22.75,2.28-2.52,4.52-5.24,8.56-4.43,1.34,2.24-.25,3.79-1.47,5.22a32.92,32.92,0,0,0-7.11,12.75c-1,3.53-3.51,6.29-5.59,9.2a46.62,46.62,0,0,0-7.71,18.41c-.57,2.88-1.91,5.4-4.46,6.76-3.3,1.75-5,4.48-6.37,7.74-2,4.63-3.71,4.9-6.94,1.22-1.67-1.91-3.16-2.38-5.53-1.24C638.49,489.72,635.39,490.43,632.86,492.35Z" transform="translate(-540.37 -235.48)"/><path class="cls-52" d="M632.86,492.35c2.8-3.54,7.33-4,11-6,1.89-1.06,2.54.47,3.26,1.83s1.21,3.34,3.36,3,2.88-2.35,3-4c.22-3.6,1.89-5.59,5.22-6.84a7.25,7.25,0,0,0,4.68-5.93c1.12-9.24,5.67-16.81,11.08-24.06a16,16,0,0,0,2.77-5.68c1-4.48,3.5-8,6.51-11.3,1.35-1.46,2.86-2.75,2.51-5-.34-1.78-.14-3.16,2.19-3,.74,1.58,2.11,3.06.78,5-3.88,5.1-6,10.9-4.13,17.09s.7,11.52-1.14,17.13a11.89,11.89,0,0,0-.91,2.78c-.24,5.08-2.61,7.3-7.84,6.41-2.33-.39-3.46.94-3.86,3.35-.61,3.73-3.66,5.41-6.47,7.52-2.5,1.86-3.73,4.75-8,3.33-3-1-3.15,2.94-4.06,5-.49,1.12-.08,2.93-2,2.75-1.56-.14-3.56-.32-3.86-2.38-.78-5.4-4-4.51-7.57-3.17C637.18,490.88,635,491.6,632.86,492.35Z" transform="translate(-540.37 -235.48)"/><path class="cls-16" d="M690.11,435.2c-.87,9,2.92,17.71,2.07,26.77-.23,2.47.12,4.87-2.7,6.28a4.21,4.21,0,0,0-1.84,2.77c-1.31,8.22-7.07,12.85-13.47,17-.41.27-1.07.45-1.2.81-2,5.72-7.84,7.42-11.64,11.23-2.4,2.42-5.33,2.48-8.11,2.7-4.93.4-10.07,1.13-14.55-2.08-.13-.09-.41-.21-.44-.17-3.91,4.9-7.53-.53-11.3-.3,3.12-5.78,9-5.81,14.39-6.83a3,3,0,0,1,3.36,1.57c1.11,2.77,2.78,2.54,5.49,2.77,3.75.33,4.41-.25,4.54-3.74.16-4.09,2.64-2.76,4.66-1.26,2.24,1.67,4,3.12,3.34-1.59-.3-2.06,1.37-3.17,3.29-3.64,1.09-.26,2.94-.11,3.21-.71,3.31-7.32,13.16-8.19,15.72-16.35,2.63-8.36,6.26-16.42,2.8-25.48A8.45,8.45,0,0,1,690.11,435.2Z" transform="translate(-540.37 -235.48)"/><path class="cls-53" d="M617.12,411.61a9.55,9.55,0,0,1,4.55-4.18c2-1,.53-1.57-.68-1.85l2-1.95c2.11-4.61,6.79-4.06,10.61-5.1,1.82-.5,3.85-.14,5.79-.15a22.26,22.26,0,0,1,3.16.11c4.52,1.88,8.6.1,12.7-1.53a3.26,3.26,0,0,1,2.53,1.44,2.23,2.23,0,0,1,.06,1.42c-1.07,2.26-5.57,2.06-4.94,4.46.82,3.14,4.57,4.09,7.64,5.08a2,2,0,0,1,.57,1.33,4.63,4.63,0,0,1-2.74,3.53,5.21,5.21,0,0,1-1.52.37c-1.17.05-2.48,0-3.16-1-3.25-4.66-7.94-3.9-12.44-3.23-3.72.56-7.39,1.45-11.13,1.88-1.75.2-3.58.76-5.1-.74C622.32,406.89,619.75,412.6,617.12,411.61Z" transform="translate(-540.37 -235.48)"/><path class="cls-54" d="M625,411.53c5.07.06,10-1.18,14.85-2.28,4.32-1,8.35-.49,12.49.3,1,.19,2.09.21,1.83,1.62-.62,3.39,2,2,3.41,2.35-2.06,4.13-5,5-7.59,2.32-3.51-3.75-7-4.12-11.76-1.25a1.13,1.13,0,0,1-1.39-.15c-4.37-1.71-8.86-1.35-13.17-.12a19.68,19.68,0,0,1-6.59,1.16A19.4,19.4,0,0,1,625,411.53Z" transform="translate(-540.37 -235.48)"/><path class="cls-16" d="M623,502.21c-.67.64-1.34,1.28-2,1.93-1,.76-2.59,1.14-3.1.53-3.36-4-9-2.38-12.66-5.4l0,0a10.09,10.09,0,0,1,11.47,1.07A8.77,8.77,0,0,0,623,502.21Z" transform="translate(-540.37 -235.48)"/><path class="cls-55" d="M582.5,447.11,577.56,446c0-1.23-.32-2.89,1.88-2.06,1.84.7,4.35.27,5.35,2.25C585.17,447,583.36,446.9,582.5,447.11Z" transform="translate(-540.37 -235.48)"/><path class="cls-16" d="M689.16,430.27c-.33-1.65-.67-3.29-1-4.94-.57-1.12-.66-2,1-1.94.17,3,3.8,5.55,1,8.85Z" transform="translate(-540.37 -235.48)"/><path class="cls-56" d="M720.61,501.41c1.31-1.42,2.59-2.88,3.95-4.25.73-.75,2.15-1.26,2.51-.29,1.89,5.1,5.93,2.18,9.06,2.7,5.73,1,11.45,2,17.14,3.14,2.19.45,3.86.72,5.67-1.26,2.43-2.65,5.48-.73,8.27-.2a26,26,0,0,0-9.88,4.9,3.38,3.38,0,0,1-3.59,1c-3.72-.95-7.18-1.6-10.55,1.29-1.81,1.55-3-1.32-4.53-1.67-1.52,1.49-1.46,3.77-3,5.09-4.19.88-7.11-2.33-9.29-4.47C724.47,505.59,722.16,503.74,720.61,501.41Z" transform="translate(-540.37 -235.48)"/><path class="cls-57" d="M735.63,511.89c-.34-2.07.76-3.62,1.6-5.39,1.57-3.26,2.77-2.08,3.55.17.62,1.78,1.57,1.68,2.38.75,2.77-3.2,5.69-3.54,9.38-1.5,1.25.69,3.18.19,4.79.23,4.32.54,8-2,12.18-2.6,2.57-.38,5.2-1.31,8-1.35,4.26-.06,6.28-4.45,10.53-5.16s5.88-4.11,6.25-8.68c.28-3.47,2.33-6.86,4.57-9.81,2.14,3.42,2.79,6.93.65,10.61a4.54,4.54,0,0,0-.74,2.32c.15,4.34-2.29,6.36-6.13,7.72-2.88,1-6,1.75-8.3,4.1-3.82,2.43-8.5,2.22-12.53,4.07-7.74.66-15.31,2.86-23.21,2.29-3.55-.26-5,2.57-6.06,5.42C739.28,516,737.66,513.51,735.63,511.89Z" transform="translate(-540.37 -235.48)"/><path class="cls-58" d="M742.5,515.08c-1.71-2.75-.57-4.57,1.94-6a6.57,6.57,0,0,1,4.21-1c8,1.32,15.61-2.17,23.51-2,.35,1.79-.87,2.5-2.21,2.52-6.3.08-11.66,4.17-18.08,3.82,2.87,2.44,6.92-.19,9.53,2.68l-1.14,1c-4.92.29-9.84.87-14.76,0l-1.76-.29Z" transform="translate(-540.37 -235.48)"/><path class="cls-59" d="M783.05,502.25c3.27-2.49,7.22-3.53,11-4.9,1.57-.57,3.24-1.43,3-2.73-.78-4.93,4.64-9,1.81-14.12-.28-.5,0-1.29,0-1.95,3-1.18.65-4.15,2-5.9,3.1,1.73.58,6.21,3.86,7.84a63,63,0,0,1,1,11A15.89,15.89,0,0,1,801.75,502c-3.89-2.64-7.78-2.47-11.91-.4C787.79,502.57,785.53,504.22,783.05,502.25Z" transform="translate(-540.37 -235.48)"/><path class="cls-60" d="M783.05,502.25c3.53.19,6.36-1.83,9.38-3.1,4.06-1.7,7.08-1,9.32,2.8-5.21,6.93-12.87,9.38-20.83,11.17-2.51.57-5.12.68-7.69,1-3.88,1.24-8-.64-11.88,1h0c-2.93-.06-5.87-.16-8.8-.17-1.84,0-3.28-.31-3.14-2.63.16-2.62,1.71-2.31,3.41-1.61,3.49,1.44,6.72-.72,9.23-2,3.35-1.68,7.34.31,10.06-2.63,3.25-1.09,6.24-3.29,10-2.39C782.33,503.81,782.75,502.78,783.05,502.25Z" transform="translate(-540.37 -235.48)"/><path class="cls-4" d="M745.5,516.16h14.76C755.34,516.66,750.42,519,745.5,516.16Z" transform="translate(-540.37 -235.48)"/><path class="cls-58" d="M761.35,515.17c3.79-2.33,7.91-.79,11.88-1C769.34,515.2,765.33,515.05,761.35,515.17Z" transform="translate(-540.37 -235.48)"/><path class="cls-61" d="M642.74,399.72l-3,0c-5.22-2-10.35-.8-15.45.49a47.44,47.44,0,0,0-10.22,3.49h0c-4.32.61-7.67-2.55-11.77-3-3.08-.32-6.09-1.28-9.15-1.89-5.55-1.1-9.36-4.53-11.48-9.75-1.32-3.23-2.77-6.27-6.07-8-1.17-.62-2.43-1.86-2.29-3,.53-4.37-2.6-6.8-4.69-9.81l-9.88-6.89c-2.48-1.5-3.17-3.38-1.93-6.21,1.51-3.43.95-7.24,1.17-10.88.35-5.49,1.46-7.42,6.58-8.83a6.47,6.47,0,0,0,4.38-3.53,22.53,22.53,0,0,1,14.6-11.55,30.05,30.05,0,0,0,9.41-4.16,9.83,9.83,0,0,1,5.62-1.48,36.26,36.26,0,0,0,11.6-2c3-1.1,5.48-.7,7.61,1.62,2.59,2.83,5.87,4.67,9.11,6.58,0,.31,0,.63,0,.95a.83.83,0,0,1,0,1.28c-4,1.57-7.75.28-11.48-.93-2-.64-3.85-1-5.64.21-2.67,1.83-6,1.49-8.68,2.41-6.2,2.1-13,1.15-18.9,4.43-3.25,1.8-6.13,3.7-7.52,7.33-1,2.67-3.25,4-5.9,4.74-4.19,1.1-5.62,4.08-5.79,8.06-.13,3.26.74,6.45.41,9.77-.24,2.54,2.09,3.41,4.19,4.06a11.83,11.83,0,0,1,5.76,5.06,36,36,0,0,0,12.18,12.23,9.4,9.4,0,0,1,2.92,2.61c4.43,7.21,11.43,10.5,19.12,12.95a21.65,21.65,0,0,0,13.08.39c5.74-1.7,11.51-2.69,17.47-1.17,3.4.87,6.82-1.33,10.22.06,1.35,2.28-.6,2.74-2,3.37C645.25,399.22,643.79,398.75,642.74,399.72Z" transform="translate(-540.37 -235.48)"/><path class="cls-62" d="M626.92,320.89c-3.83-.39-7-1.8-9.16-5.23-1.33-2.13-3.61-3.38-5.89-2.32a29,29,0,0,1-14.24,2.55c-4-.25-6.07,3.35-9.65,4.3-6.6,1.75-13.68,3.77-17,10.78-1.73,3.71-3.5,6.26-8.14,5.93-1.86-.13-2.67,2-3.33,3.78-2,5.53.08,11.58-2.32,17.1-.34.8,1,2.32,1.53,3.51-5.19-1.14-4.82-1.79-3.09-6.65s3-10.38.92-15.67a11.4,11.4,0,0,1-.76-4.27c4.69.25,7.33-1.81,10.77-5.46,5.43-5.75,11.73-11.06,20-14,5.57-2,12.23-2,16.86-6.67,1-1,2.45-.52,3.74,0,2.27.86,4.58,1.64,6.88,2.45A28.39,28.39,0,0,1,626.92,320.89Z" transform="translate(-540.37 -235.48)"/><path class="cls-63" d="M568.65,368.18c3,2,5.27,4.48,5.21,8.29a3.26,3.26,0,0,0,1.94,3.15c4.7,1.91,5.82,6.31,7.66,10.24,2.29,4.87,6.18,7.14,11.48,8,6.61,1.07,13.19,2.5,19.16,5.81-1.36,2.51-3.25,2-5.47,1.25a42.11,42.11,0,0,0-12.71-2.6,19.43,19.43,0,0,1-14.53-7.21c-2.77-3.34-4.91-7.26-8.88-9.49a1.78,1.78,0,0,1-.84-2.13C573.64,377.77,571.35,373,568.65,368.18Z" transform="translate(-540.37 -235.48)"/><path class="cls-63" d="M614.1,403.66c7.16-6.11,15.6-6.59,24.38-5.38.49.07.87.92,1.29,1.4A27,27,0,0,0,623,403.63Z" transform="translate(-540.37 -235.48)"/><path class="cls-64" d="M549.86,340.55c2.54,4.69,3.85,9.55,2,14.83,0,1,0,2,0,3-.56-.55-1.67-1.19-1.6-1.64.74-4.74-.93-9-2.22-13.4A2,2,0,0,1,549.86,340.55Z" transform="translate(-540.37 -235.48)"/><path class="cls-23" d="M616.08,407.62c-.09.31-.08.76-.29.9-3,2-12.11,1.38-14.55-.9C606.19,405.77,611.14,408.62,616.08,407.62Z" transform="translate(-540.37 -235.48)"/><path class="cls-65" d="M731.69,319.91l.9-4c.77-4.29,2.12-8.34,5-11.75,1.65-1.81,3.28-3.64,5-5.41.79-.84,1.66-1.73,3-.88,4.7,3.09,7.79-.16,10.45-3.11,2-2.22,2.92-4,6.67-2.27,2.14,1,5.47-1.64,8.64-.26,2.23,1,4.25,1.14,3.39,4.57a13.26,13.26,0,0,0,.62,6.71c1.67,5.42,5.48,8.25,10.73,2.62l2-.94c1.52,3.19-1.68,2.82-3,3.9a5.62,5.62,0,0,1-4,2c-6-.37-10.78-4-15.82-6.61-2.45-1.28-3.8-1.11-6.12.21-4.39,2.51-8.31,6-14.22,5.66-3.06-.19-6.51,1.59-8.74,4.52C734.79,316.6,733.19,318.21,731.69,319.91Z" transform="translate(-540.37 -235.48)"/><path class="cls-66" d="M737.56,304.14c-1.06,4.16-2.26,8.28-5,11.75-2-.78-3.42-1.75-2.7-4.37s-2.68-4.6-1.19-7.39C731.66,301.92,734.61,300.14,737.56,304.14Z" transform="translate(-540.37 -235.48)"/><path class="cls-67" d="M628.91,322.86c-.33-1.31-.67-2.62-1-3.93,8.64,2.55,15.88,6.69,20,15.35,1.85,3.88,5,7.19,7.59,10.67a27.45,27.45,0,0,1,5,12.47c.47,2.9,1.08,5.4,4.89,4.79.86,1,.53,1.84-.42,2.56-4.31,1.62-6.25-1.67-8.52-4.18-1-1.1-1.09-2.82-2.22-3.8-9.86-8.5-14.12-21.37-23.63-30.14C629.54,325.7,628.31,324.62,628.91,322.86Z" transform="translate(-540.37 -235.48)"/><path class="cls-68" d="M643.77,320.76c-.34-2.59-.69-5.18-1-7.77h2c2-1.26,3,.28,3.9,1.59,1,1.47,2.15,2.89,3,4.4,3.53,6.16,8.72,10.75,13.74,15.59,2.61,2.52,5.24,5.47,4.76,9.7a8.19,8.19,0,0,0-.26,4.68c.57,3.3-.49,5.95-3.58,7.6-2.28-2.19-4.1-4.62-3.85-8,.49-6.43-5.44-9.45-7.63-14.43C652.39,328.58,648.3,324.51,643.77,320.76Z" transform="translate(-540.37 -235.48)"/><path class="cls-69" d="M666.31,356.54c1.86-3,3.85-6,1.81-9.8-.61-1.13.38-1.74,1.29-2.2a4.14,4.14,0,0,1,1.75,2.18,9.71,9.71,0,0,1,.46,1.38c.7,3,2.57,5.55,3.25,8.53s2,5.89-.22,8.75a2.48,2.48,0,0,1-2.76-.12c-1.28-.76-2.31-3.57-4.08-.52-1.28,2.21-3.44,4.35-.5,6.87,2.15,1.84,4.15,3.79,4.14,6.91s-1.11,5.15-4.8,3.86a8.93,8.93,0,0,0-4.54-7.94c-2.48-1.62-3.15-4.46-3.8-7.19,1.43-2.24,4.08-1.9,6.1-2.89a2,2,0,0,0,1-2.15C665.82,360.34,666.77,358.56,666.31,356.54Z" transform="translate(-540.37 -235.48)"/><path class="cls-70" d="M631.86,310.05c.88,1.71,2.9,2.72,3,4.89-2.38,2.61-5.61,2.58-6.73-.28a41.2,41.2,0,0,1-1.42-6.69C629.17,307.78,629.87,310.38,631.86,310.05Z" transform="translate(-540.37 -235.48)"/><path class="cls-71" d="M785,309.07c.92-1.35,3.13-1.73,3-3.9a4.78,4.78,0,0,1,.85-.2,4.39,4.39,0,0,1,2.09-.77,15.87,15.87,0,0,0,4.33-.7c3.1-.87,5.4,0,6.93,2.91A5.82,5.82,0,0,0,808,310c4.1-.06,7.32,2.59,7.49,6.65.14,3.28,4.3,4.69,3.11,8.2h0c-2.86,1.06-6,1.54-1,4.87,2.71,1.82,1.18,6.91,0,8.33-2.6,3.21-4.43,5.63-3.88,10.21.26,2.17-3.25,5.24-5.93,5.95-6.17,1.64-7.28,6.12-8.23,11.33-1.43,7.88-2.43,8.46-11.58,8.56.94-1.57,2.09-3.13,3.82-3.66,2.55-.8,3.11-1.86,2.59-4.64-.71-3.86,2.86-6.52,5-8.76s6.1-5.13,6.75-7.27A48.87,48.87,0,0,1,814,334.88a1.63,1.63,0,0,0-.18-2.25c-4.93-4.37-4.66-10.94-7-16.4a9.57,9.57,0,0,1-.44-2.36c-5.92,1.84-7.8-10.22-15.19-4.32C790,310.48,787.11,309.28,785,309.07Z" transform="translate(-540.37 -235.48)"/><path class="cls-14" d="M818.57,324.81c-4.32-3-2.52-9.78-7-12.21s-10-3.09-13.32-8.21c-1-1.54-4.6,2.13-7.33.71.32-2.31,2.73-2.52,4-3.92h0c4.07.15,7.72.93,9.3,5.46a3.37,3.37,0,0,0,3.43,2.35c5.7-.45,9.28,1.51,9.37,7.77a1.45,1.45,0,0,0,.84,1C823.09,319.61,821.13,322.17,818.57,324.81Z" transform="translate(-540.37 -235.48)"/><path class="cls-10" d="M605.22,499.27c4.16,1.91,9.57.31,12.93,4.65.39.5,1.86.16,2.83.22l0,1c-2.48.38-5.47,2.67-6.61-1.87-.11-.42-1.27-1-1.56-.87-3.3,1.8-5.26-.82-7.61-2.15C605.23,499.93,605.22,499.6,605.22,499.27Z" transform="translate(-540.37 -235.48)"/><path class="cls-15" d="M794.88,301.18c-.71,1.92-2.77,2.49-4,3.92l-2.1-.13C790.16,302.62,792.61,302,794.88,301.18Z" transform="translate(-540.37 -235.48)"/><path class="cls-62" d="M664.41,364.36a12.76,12.76,0,0,1-5.94,2.94,5.76,5.76,0,0,1-5.53,1.57c-3.11-1.82-4.28-4.1-1.42-7.07,1.36-1.41,1.15-2.51-.21-3.7a22,22,0,0,1-3.07-3.18c-4.23-5-7.23-10.91-12.13-15.35a9.74,9.74,0,0,1-1-.88c-4.38-2.84-5.61-8-8.7-11.79a5.38,5.38,0,0,1-.39-1.37,3.31,3.31,0,0,1,.91-2.66l.06-1,1.95,1c10.51,9.29,15.34,23.08,25.74,32.48,2.19,2,2.44,5.22,5,7.12A7.17,7.17,0,0,0,664.41,364.36Z" transform="translate(-540.37 -235.48)"/><path class="cls-72" d="M725.8,397.62c.3.05.61.09.91.12,1.41,1.58,2.93,3.09,4.22,4.76,2.54,3.25,5,6.6,3.55,11.11-.73,2.28.31,4.18,1.26,6,1.18,2.33,2.6,4.54,3.87,6.82.91,1.65,1.42,3.32.08,5s-3.29,1.93-5.33,1.49c-5.86-1.24-6-1.19-4.37,4.49a8.45,8.45,0,0,1-.54,7.05,20.32,20.32,0,0,0-2.76,11.76c.26,3.66-1.18,5.15-5.06,4-7.6-2.22-13.32-6.45-16.54-13.87-.81-1.85-.7-4.35-3.07-5.35,0-.32,0-.65,0-1-2.37-3.66-1.79-7.66-.66-11.4.8-2.65,1.26-5.39,2.18-8,2.57-1.06,3,.9,3.44,2.57a9,9,0,0,1-.33,5.33c-2.77,7.34,1.47,12.27,6.08,16.77,3.07,3,4.8,2,5.84-2.2,1.39-5.6.94-11.08.77-16.78-.18-5.94-1.69-13.42,4.69-18.3,1.61-1.24,1.76-3.41,1.25-5.47C724.84,400.92,724.13,399.13,725.8,397.62Z" transform="translate(-540.37 -235.48)"/><path class="cls-36" d="M704,420.41c0,3,.2,6-1.73,8.86-2.29,3.38-.9,7.21-.25,10.85-2.38-.33-1.94-2.17-2-3.71,0-3.05,0-6.11,0-9.16a20.89,20.89,0,0,0,2.2-6.92c.22-.66.67-1.09,1.35-1C704.05,419.46,704.19,419.92,704,420.41Z" transform="translate(-540.37 -235.48)"/><path class="cls-73" d="M717.84,348.48c.93-3.39,4.48-4,6.67-6,2.81-2.62,5-5.27,5.87-9.13s1.89-7.81,5.23-10.52c4,.09,8.08-.73,12.15,0,2.9.49,5.41-.57,7.76-2.37a23.66,23.66,0,0,1,11-5.09c1.13-.16,2.52-.74,3.36-.3,6.38,3.31,13.29,3.53,20.22,3.8,1.6.06,2.55,1.36,3.62,2.38.82.77,1.59,1.8,3,1.15,5.27-2.53,6,1.88,5.91,4.75-.26,11.79-1.81,22.88-10.85,32.31a96.25,96.25,0,0,0-16.4,23.09c-1.13,2.25-2.81,3.17-5.41,3.51-3.81.5-6,4.1-9.12,6-4,2.43-7.7,3.29-12,1.4-2-.86-3.85-1.91-6.09-1.6-5.16.71-9.49-.1-11.14-5.93a11.33,11.33,0,0,0-8-3.82,2.19,2.19,0,0,1-.19-1.4c.86-1.88,2-3.45,4.31-3.57,3,.32,4.32,2.6,5.53,4.9s2.44,4.19,4.82,5.22c2.13,1.71,4.67,1.26,7.1,1.33,1.64.05,3.5-.42,4.88.32,4.72,2.51,8-.16,10.84-3.06,5.56-5.63,11-11.28,13.41-19.33,1.24-4.14,4.54-7.48,8.46-9.87,6.13-3.72,8-9.94,8.17-16.34.16-6-4.88-8.75-10.42-6.56-5.37,2.11-7.51,1-8.69-4.58-.87-4.12-7.2-6.74-12.5-5.06-4,1.25-7.35,3.64-11,5.55-3.31,1.75-6.45,2.88-10.26,1.1s-4.74,1.37-5,4c-.7,7.15-5.21,11-11.17,13.73C720.57,349.1,719.21,349.73,717.84,348.48Z" transform="translate(-540.37 -235.48)"/><path class="cls-74" d="M704,420.41c-.54-1-1.18-.18-1.78-.08-1.28-1.79-3.81-.2-5.14-1.88a1.91,1.91,0,0,1-.52-1.28,3.08,3.08,0,0,1,1.6-2.19c1.55-1,4.1-.05,4.84-2.56a5.54,5.54,0,0,1,.67-1.12c2.07-1.62,3.88-3.53,5.93-5.17a13.2,13.2,0,0,0,4.07-3,10.65,10.65,0,0,1,2.57-2.11c3.4-.32,6.5-1,7.22-5.12a1.07,1.07,0,0,1,1.27-.05l1.08,1.81c-.08,1.47-.28,3,.57,4.3,1.25,1.92,1.09,4.72-.22,5.43-6.44,3.45-3.23,10.27-5.78,15a5.93,5.93,0,0,0,.21,5.66c3.26,6.6-.9,12.68-1.44,19-.2,2.24-2.37,2.22-4.33,1.47-6.39-2.45-11.51-13-9.59-19.65C706.07,425.89,707.3,422.79,704,420.41Z" transform="translate(-540.37 -235.48)"/><path class="cls-75" d="M724.72,395.81a4.63,4.63,0,0,0-.83-.33,1.35,1.35,0,0,1-.23-1.88c1.47-1.47,4.34.7,5.2-1.62,1-2.68-2.22-3.18-3.25-4.87-.68-1.1-1.68-2-2.28-3.15a1.84,1.84,0,0,1,.47-1.95c4.23-1.91,6.65-.21,7.85,3.92-.09,3.64-.22,7.3,2.05,10.87C730.62,395.54,727.67,395.74,724.72,395.81Z" transform="translate(-540.37 -235.48)"/><path class="cls-76" d="M697,417.46l.08,1a8.61,8.61,0,0,0-4.92,3,3.05,3.05,0,0,0-3,1.92,2,2,0,0,0-1,1.94l-2,3c-7.24,3.33-11.8,9.08-14.52,16.35-1.81,4.83-6.74,7-9.17,11.25-2.31.51-1.77,4.86-5.2,3.87A2.73,2.73,0,0,1,657,457c2.46-5.16,3.54-11.13,6.92-15.61,3.59-4.75,6.32-10.37,11.47-13.89.83-.56,1.64-1.37,1-2.43s-1.88-1.16-3-.87a7.66,7.66,0,0,0-2.54,1.45c-5.55,3.79-8.85,2.4-9.22-4.32-.16-2.84-1-4.6-3.38-5.82a1.92,1.92,0,0,1,.28-2.05l2.07-2.92c.75-1-.2-1.84-.2-2.77,0-1.47-.27-3.28,1.35-3.87s1.89,1.4,2.8,2.21c3.39,3,7.91,4.59,10.34,8.83.83,1.45,2.72.49,4.11,0a9.65,9.65,0,0,1,8.12.43C690.19,417.1,694.09,414.9,697,417.46Z" transform="translate(-540.37 -235.48)"/><path class="cls-77" d="M670.36,346.47a2,2,0,0,1-1-1.93c-.56-5.88-4.44-9.92-8.77-12.86-5.81-3.95-7.9-10.42-12.21-15.31-1.14-1.29-1.44-3.34-3.7-3.39A12,12,0,0,1,648,303.1c3.07-3.41,3.71-7.76,3-12.29-.68-4.32,3.49-13.1,7.23-15.33.28-.16.63-.54.83-.47,6.33,2.17,5.2-2.71,5.89-6.06,1-4.8,7.21-8.72,12.45-8,3.38.46,7.06,3.49,9.85-1.31.45-.78,1.56.14,1.81.92,1.23,3.67,3.39,4.31,7.18,3.46,2-.45,4.53,1.49,6.87,2.21,3.35,1,2.33,3.52,2.41,5.94,0,1.55.36,4,2.68,4.19,3.41.29,4.11,2.69,4.91,5.27,2.08,6.65,5,13.07,5.5,20.17.74,9.79-2.7,23.94-13.1,30.48-3.67,2.31-6.53,4.81-8.13,8.77a4.1,4.1,0,0,1-2.22,2.5c1.24-5,2.28-9.85,6.24-13.81,4.51-4.49,6.8-10.35,7.57-16.71-.53-3.69-2.77-6.73-4-10-3.38-8.94-10.8-16.72-8.85-27.41.26-1.44-.95-3.92-2.17-2.17-3.46,4.93-9.47,4.06-13.62,7.06-8.55-.28-12.14,4.7-13.71,12.33-.69,3.36-2.93,5.06-6.53,2.71-3.11-2-4.3,0-4.35,2.61-.1,6.26-.34,12.2,3.35,18.29,3.38,5.56,5.23,12.08,9.77,17.13,2.8,3.1,6.27,5.72,7.57,10,.51,1.7,1.76,3.27,0,4.91-1,.61-1.66,0-2.37-.58C673.07,346.67,672,345.88,670.36,346.47Z" transform="translate(-540.37 -235.48)"/><path class="cls-68" d="M642.74,313c-4.38-4.47-4.8-7.69-1.61-13.39.72-1.28,1.64-2.37,1.63-4-.08-8.92,6.26-14.81,10.43-21.72.18-.29.92-.24,1.4-.34-2,5.62-5.29,10.56-6,17-.41,3.57-1,8.45-3.92,12C642.18,305.51,640.88,309.07,642.74,313Z" transform="translate(-540.37 -235.48)"/><path class="cls-78" d="M680.27,280.48c1.46-2.29,3.11-4.31,6.23-3.94,2.69.33,4.35-.81,5.34-3.28.63-1.57,1.61-3.18,3.64-2.28s2.65,2.34,2.11,4.79c-1.33,6-.54,11.62,4.56,15.87,1.23,1,.79,2.41.84,3.66.14,3.46,1.5,7,3.9,8.73,3.84,2.78,3.07,5.62,2,9-2.78,5.59-7.28,9.13-13,11.66-4,1.76-3,6.79-5.53,9.91-5.85,7.05-11.09,6.88-15.75-1-2.13-3.59-5.12-6.68-7.7-10-4.26-5.42-8.87-11-8.46-18.67.13-2.44,1.08-4.51,3.52-4.54,3.17-.05,4.22-1.7,5-4.27,1.08-3.33,3.53-5.89,5.73-8.48,1.05-1.24,3.43-3,2.88,1.14-.16,1.18.32,2.09,1.43,2.1a2.07,2.07,0,0,0,1.89-2.41C677.93,285.46,679.75,283.1,680.27,280.48Z" transform="translate(-540.37 -235.48)"/><path class="cls-79" d="M674.4,347.44l2,1c-.25,3,3.69,3.27,3.93,6-.41.9-.78,1.77.19,2.62,2.64,2.3,5.72,4.16,6.17,8.28.14,1.33,2.23.78,3.48.91.77.89.42,1.7-.15,2.5-2.94,3.19-5,7.51-10.08,8a18.43,18.43,0,0,1-5.56-11.49c.91-4.36-.36-8.34-2.16-12.21-.81-1.77-2-3.39-1.78-5.5C671.72,346.81,673,346.46,674.4,347.44Z" transform="translate(-540.37 -235.48)"/><path class="cls-80" d="M717.84,348.48c8.72-1.86,12.75-6.07,13.82-14.42.63-4.85,3.39-6.46,7.53-4.17a5.84,5.84,0,0,0,6-.05,88.37,88.37,0,0,0,9.4-5.21c5.45-3.79,11-2.13,16.38-.48,2.15.65,2,3.07,2.14,5.07.3,4.5,2.42,5.81,6.45,3.59,3.22-1.77,5.92-3.37,9.12.08s5.16,7,3.11,11.83c-1.2,2.82-1.93,5.78-3.52,8.53a10.7,10.7,0,0,1-4.7,4.48c-4.16,2.25-6.51,6.15-8.7,10.42-2.48,4.82-2.87,10.82-9,14-2.89,1.49-5,5.49-8,7.93-1,.84-1.88,2.31-3.21,1.6-4.63-2.5-9.6-1.58-14.46-1.85a3,3,0,0,1-2.64-1.92c1.8-1.72,4-1.22,6.06-.91a16.74,16.74,0,0,0,5.81-.36c6.23-1.23,10.34-4.1,12.87-10.48,1.68-4.23,4.72-8,6-12.64.78-2.83,3.41-4.29,5.61-6,2.55-2,2.7-3.59.94-6.92-3.24-6.15-5.91-10.05-13.45-5.44-2.72,1.67-5.53-1.11-6.21-5-1.15-6.59-3.93-7.78-9.76-4.32a56.43,56.43,0,0,0-10.61,7.95A35.68,35.68,0,0,1,724,351.22c-5.28,2.26-8.46,6-8.89,11.91a3.85,3.85,0,0,1-1.23,3.09A17.77,17.77,0,0,1,706,354.41l1.88-1.05c3.08-.95,6.42-1.44,8-4.83Z" transform="translate(-540.37 -235.48)"/><path class="cls-81" d="M713.84,366.22c-.68-8,2.66-13.7,10.28-16.4,5.85-2.06,9.36-7,14-10.54,2.5-1.88,5.44-3.1,7.65-5.26,2.65-2.61,5.14-1.44,8-.43,3.11,1.11,2.43,3.45,2.56,5.65.29,5.11,3.06,6.55,7.55,3.94,5.77-3.36,8.26-2.44,10.15,3.89a5.87,5.87,0,0,0,1.39,3c3.48,3.25,3.56,5.73-.29,8.12-4.39,2.72-5.58,6.72-7.44,11.22a59.8,59.8,0,0,1-8.71,15c-2.67,3.23-7.81,2.86-11.78,4.12-2.85.9-6.35-1-9.64-.62a5.21,5.21,0,0,1-4.3-3.2c-1.31-2.54-2.06-5.87-5.58-6.68.48-3.2,2.44-4.49,5-3.23a4.19,4.19,0,0,1,2.06,2.05c3.95,9.39,8.54,7.13,17.86,1.21,6-3.8,6.52-11,2-17.1-2.26-3-2.23-3-4.88-4.2-.85,1.2.25,2.13.47,3.18.6,2.82-.69,4.77-2.88,6.25a4.82,4.82,0,0,1-6.35-.51c-2.81-2.5-5.87-4.78-8.41-7.54-2.77-3-5.73-2.54-9-1.46s-4.57,3.45-4.47,6.78a12,12,0,0,1-.36,4.39c-.6,1.73-1.32,3.52-3.79,2.32C714.56,368.84,714.2,367.53,713.84,366.22Z" transform="translate(-540.37 -235.48)"/><path class="cls-82" d="M714.91,370.15c4.09-.63,2.81-3.85,2.86-6.23.16-6.61,6.62-11.81,12.55-9.25,3.09,1.34,5.4,4.52,8,6.9,1.09,1,2.11,2.08,3.15,3.13,2,2,4,2,6,0,1.88-1.81,2.75-3.65.82-6-.83-1-2.71-2-.48-3.46a3.06,3.06,0,0,1,4.41.49c7.92,8.5,11,18.9-2.38,25.52l-2.21,1.11c-7.89,4-9.18,3.56-13.48-4.21-2.24-4-3.56-4.06-6.48-.14-2.1-.05-2.25,2.48-3.94,3-1-4.12-3.38-6.59-7.74-6.89Z" transform="translate(-540.37 -235.48)"/><path class="cls-83" d="M708,366.18q3.93,5,7.85,9.95a2.12,2.12,0,0,1,.45,2.6c-.37,1.08-2.87.26-2.19,2,1.54,3.88,1.49,8.49,5.13,11.43a3.45,3.45,0,0,1-1.17,3.75c-4.17-.69-4.91-5.24-8.2-6.84,0,1.81,2.26,4-.05,6-3.13-.91-3.95-3.62-4.76-6.25a38.7,38.7,0,0,1-.91-4.8c-.86-5.11-2.09-9.76-8.82-9.28a5.54,5.54,0,0,1-2.06-5.2C696.4,364.49,701.58,363.33,708,366.18Z" transform="translate(-540.37 -235.48)"/><path class="cls-84" d="M715.91,379l-.09-2.84c.06-.68.13-1.36.2-2,7.27-1.24,7.71-.85,7.74,6.89,0,.34,0,.69,0,1-.09.6-.19,1.21-.28,1.81-.47,3.34.81,6.62.34,10l0,1.69c-.59,6.58,1.48,6.18-8,6.22-1.4-2,.09-3.43.91-5,.32-.32.66-.64,1-.93l.92-3.89C717.21,387.7,715.6,383.54,715.91,379Z" transform="translate(-540.37 -235.48)"/><path class="cls-85" d="M708,366.18c-3.26.06-6.58-.2-9.77.3a4.75,4.75,0,0,0-4.13,3.66c-.93.77-1.33,2.57-3,2a2.85,2.85,0,0,1-1.94-3.84,2.13,2.13,0,0,0,1-2c2.39-2.21,4.71-4.49,7.19-6.6,3.45-2.93,6.16-.79,8.46,1.7A8,8,0,0,1,708,366.18Z" transform="translate(-540.37 -235.48)"/><path class="cls-86" d="M658.55,415.49c2.79,0,5.52-.2,4.13,4.2a6.37,6.37,0,0,0,2.51,7c2.16,1.49,3.69-1.23,5.25-2.47,1.34-1.06,2.66-2.05,4.41-1.76s3.47.77,4,2.46-1.22,2.52-2.26,3.48c-6.21,5.71-12,11.7-14.46,20.12-1.15,3.89-4.41,7-4.57,11.28-.77,6.19-3,11.52-7.65,16-4.9,4.72-8.68,10.28-16.71,10.66-6.09.29-11.44,4.54-17.91,4.67-7.71.16-14.78-8.95-12.52-16.3s3.83-14.53-1.66-21.31c-1.58-1.94-1-4.36-.21-6.61,1.53-4.26,3.56-8.33,2.31-13.23-.61-2.41,1-4.74,3-6.41h1c3.38-.59,5-3.18,6.85-5.67a16.36,16.36,0,0,1,4-4.19c5.82,1.26,11.06-2.42,16.79-2-.63,3.6-4,3.71-6.39,4.29-5.93,1.44-9.17,5.37-11.66,10.44-1.29,2.63-2.06,5.17-.47,7.94.49.85,1,2,.75,2.81-1.79,5.38-.34,10.85-.54,16.27s-2.06,10.66.56,15.88c1.53,3,3.61,3,5.12.43,3-5.13,7.74-8.45,11.69-12.58,1.13-1.19,2.15-2.79,4-2.45,2.11.39,1.84,2.43,2.16,4a2,2,0,0,0,1.17,1.77c1.66-1.6,1.07-3.46.42-5.23-.78-2.18-.35-3.89,1.63-5.1s4.28-2.73,6.32-.75c3.71,3.63,4.49.65,5.55-2.09.24-.62.22.13.14-.46-1.22-8.27,3.39-16.06,2-24.36-.47-2.8-1.68-3.35-4-2.08s-4.77,3-7.68,3.18c-3.71.25-5.77-1.48-4.62-4.92,1.27-3.81-.29-6.13-2.41-8.63,2.54-2.07,5.19-1.57,7.86-.34,1.32,1.15,1.33,2.78,1.53,4.33.14,1.08.52,1.8,1.79,1.52C652.94,418.63,655.11,415.63,658.55,415.49Z" transform="translate(-540.37 -235.48)"/><path class="cls-87" d="M638.79,414.5c3.89.1,5.4,1.78,3.92,5.65-.69,1.79-2,4-.25,5.49,1.92,1.63,4.36.66,6.46-.42,1-.53,2-1.1,3-1.69,1.63-1,3.16-2.76,5.28-1.59,2,1.07,1.47,3.21,1.29,4.91-.52,5,2.27,10.54-2.51,14.85-.37.33-.25,1.71.14,2.27,2.11,3,1,5.75-.28,8.75-2.34,5.32-2.27,5.48-6.25,1.6-2.3-2.24-3.88-.19-5.68.55s-2.46,2.05-1,3.79c.94,1.1.84,2.46.75,3.76-.13,1.84-.42,3.94-2.65,4.12-2.92.24-2-2.26-2.27-3.89-.18-1.19.65-2.95-1.14-3.31-1.16-.23-1.82,1.16-2.58,2-4.15,4.75-9.71,8.2-12.64,14.12-.64,1.29-3.29,2.75-4.14,1.7-1.94-2.41-4.89-5.29-3.95-8.43,1.37-4.62-1-9.49,1.55-13.86.29-.51.41-1.65.11-1.89-3.74-3-1.82-5.67-.09-8.79.75-1.36.32-3.48-.42-5.24-2.85-6.79,2.66-17.42,10-19.5,3.28-.93,6.64-1.71,9.35-4a2,2,0,0,0,2-1.05c.32,0,.63,0,.95,0C638.13,414,638.47,414,638.79,414.5Z" transform="translate(-540.37 -235.48)"/><path class="cls-88" d="M606.2,427.32c-1.11,3.79-3,7.17-.72,11.65.91,1.83-2.17,5.67-3.49,8.57-.85,1.89-1.59,4.35.13,5.47,5.64,3.68,3.19,9.27,3.72,14.07a12.94,12.94,0,0,1-2,8.58c-2.69,4.25,1.09,7.61,3.12,10.46a9.41,9.41,0,0,0,8.37,3.83c8.41-.52,15.52-6.22,24.12-5.6a1.74,1.74,0,0,0,1.31-.58c4.59-6.37,12.37-10.3,14.28-18.75.42-1.85.76-3.91,2.51-5.19,2.15-.68,2.07-4.15,4.94-3.93-1.34,3.58-3.09,6.81-2.24,11.15.63,3.23-1.34,6.44-5.32,7.63-4.25,1.27-6.77,4.95-9.75,7.89-2.65,2.63-5.51,4.59-9.42,4.32-.7-.05-1.31-.13-1.76.44-4.9,6.24-12.33,4.47-18.73,6.2-8.63,2.32-11.84-5.07-17.22-8.37-2.22-1.37.13-5.42-1.46-7.91-2-3.12-.22-5.21,1.86-7.23,1.34-1.3,2.26-2.47,0-3.83-.46-.28-1-1.27-.82-1.61,3.05-6.23-1.78-11.44-2.27-17.21-.25-3,1.19-5,2.37-7.21,1.51-2.86,3.58-5.35,3.75-8.92A3.89,3.89,0,0,1,606.2,427.32Z" transform="translate(-540.37 -235.48)"/><path class="cls-88" d="M618.05,417.46c-3,4-4.43,9.67-10.88,9.86,2.74-1.58,4.48-4.05,6.25-6.59C614.48,419.21,615.77,417.5,618.05,417.46Z" transform="translate(-540.37 -235.48)"/><path class="cls-89" d="M697,417.46c-4.11-.39-8.34,1-12.33-1.66-1.53-1-4-.56-6,.74-2.68,1.74-5.17,1.44-6-2-.67-2.68-2.83-3.7-4.76-4.52-2.71-1.16-4.74-2.67-5.7-5.81-1.31,2.29.33,4.7-1.56,6.32,0-.32-.06-.65-.1-1-1.7-3-1.53-6.63-3.09-9.69l.16-1.06c-.27-2.7,1-4.5,3.54-5,2.76-.61,4.07-2.45,5.06-4.76,3.46,1,4.36,3.89,2.42,7.2-1.19,2-4.85,2.8-3,6.37,1.92,3.8,5.31,5,9.1,5.72,4-.46,5.85,4.14,9.7,3.94s7,2.42,10.74,2.06a7.75,7.75,0,0,1,2.18.39,2.62,2.62,0,0,1,1.12.91Z" transform="translate(-540.37 -235.48)"/><path class="cls-90" d="M666.39,388.91c.74,3.4-.67,5.61-4.09,5.67-3.11.05-3.39,2.6-4.77,4.2l-1.92-1.11c-1.31-1-3.12-.58-4.45-1.54-1.56-1.6-4.19-2.53-3.45-5.55a2.27,2.27,0,0,1,.82-.48c6.25-1.46,6.25-1.46,5.12-7.41,2.62-1.42,4.69.55,7,1.1C663.18,384.8,666,385.52,666.39,388.91Z" transform="translate(-540.37 -235.48)"/><path class="cls-91" d="M657.37,399.84c4.15,2.24,3.29,6.07,3.09,9.69-2.7.78-9-2.38-9.62-4.87-.27-1.13-.34-2.32,1.12-2.84Z" transform="translate(-540.37 -235.48)"/><path class="cls-88" d="M638.79,414.5l-1-.05c1.83-3.07,11.08-4.54,12.12-1.64,2.38,6.59,5,2.64,7.67.71.31,0,.63-.07.94-.09,0,.69,0,1.37,0,2.06-3,1.6-5.31,4.41-8.9,4.93-2.95-1-1.2-4.33-3-5.92C644.06,413.35,641.42,412.67,638.79,414.5Z" transform="translate(-540.37 -235.48)"/><path class="cls-63" d="M651.64,395.75c1.67-.07,3.16.22,4,1.92-4,2.55-8.13,4.17-12.87,2.05.89-3,5-1,5.93-3.93A2.19,2.19,0,0,1,651.64,395.75Z" transform="translate(-540.37 -235.48)"/><path class="cls-92" d="M651.64,395.75l-3,0c-10.52,1.87-21.18.54-31.91,2.34-11,1.84-21.73-3.21-28.48-13.43-1-1.59-2.71-2.31-3.82-3.71,1.76-1.7,4.11-1.53,6.27-2a75.47,75.47,0,0,1,11.64,1.73c8.56,1.75,17-.74,25.44-.3a3.58,3.58,0,0,0,2.79-.77c4.28-4.59,9.38-3.58,14.6-2.4,2.55.57,5.21.62,7.75,1.26,2.79,1.62,6.53.52,9,3.09a3.21,3.21,0,0,1-1.45,3.31c-2.44-.17-4.3-2.39-6.91-2a2.12,2.12,0,0,1-2.66.61c-4.83-3.05-9.64-1.34-14.62.06,5.26.2,8,4.12,11.36,7.21Z" transform="translate(-540.37 -235.48)"/><path class="cls-93" d="M590.38,380c-1.83,1.18-3.89,1-5.92,1-6-2.77-9.35-8-12.86-13.19-1-1.42-2.61-2.38-3.94-3.56-2.93-.87-4.39-2.67-3.7-5.84a5.85,5.85,0,0,0,0-2.43c-1.86-8.81-1.72-9.14,5.54-14.08,2.31-1.57,4.6-3.11,5.85-5.8,3.1-6.72,9.39-8.37,15.67-7.93,6.59.47,12.48-1.58,18.62-2.81a76.46,76.46,0,0,1,14.13-1.52,3.4,3.4,0,0,1,3.15,2c0,.32,0,.64,0,1,2.06,4.62,4.34,9.07,8.88,11.84h0a1.69,1.69,0,0,1,.2,2.05c-5,.83-7.25-3.35-9.74-6.08s-4.39-3-7.5-1.42a56.37,56.37,0,0,1-31.45,5.27c-3.75-.39-6,1.38-7.36,4.44-2.41,5.33-4.38,10.68.41,15.94,2,2.2,2.9,4.63.52,7.43-2,2.34.56,3.48,1.87,4.67C585.74,373.61,589.4,375.68,590.38,380Z" transform="translate(-540.37 -235.48)"/><path class="cls-94" d="M626.94,325.81c-5.7-2.22-11.62-.81-16.68,1s-10.43,2.31-15.33,3.14c-3.67.61-8.3-.21-12.44.95a7.3,7.3,0,0,0-5.14,4.22c-1.78,4.33-5.28,6.93-9.15,9.18-4.47,2.61-5.6,6-3.38,10.68.6,1.26,1.23,2.5.57,3.7-1.64,2.93.62,4.09,2.27,5.58-4.3-.51-6.4-2.38-5.46-7.18.5-2.6-.52-5.44-.41-8.16.18-4.3,1.35-8,6.59-8.76a6.49,6.49,0,0,0,5.55-4.78c1.76-5.07,10.79-10.23,16.3-9.68,2.74.27,5.12-1.3,7.43-1.46,5.76-.4,10.92-4.32,16.13-3.77,4.22.44,8.67,1.88,13.11,2.42C626.91,323.85,626.93,324.83,626.94,325.81Z" transform="translate(-540.37 -235.48)"/><path class="cls-95" d="M660.51,385c.34-1,.67-2,1-3a3.43,3.43,0,0,1,4.93,0c3.92-.46,5.18-3.1,3.11-6.49a3.38,3.38,0,0,0-.55-.79c-1.92-1.68-5.39-3.14-5-5.5.58-3.06,3.12-5.75,4.84-8.63,2.68,1,2.29,4.88,5.45,4.67L680.23,376a1.59,1.59,0,0,1,.36,1.92c-2.81.82-5.3,1.77-5.71,5.37-.18,1.63-2.23,2.15-3.5,3.08-1.54,1.63.23,3.12.2,4.69a15,15,0,0,1,.13,5.29c-1.17,4.86,2.26,8.68,2.69,13.14-3.67-.71-7.22-1.64-9.43-5.08-1.82-2.83-3.24-5.1,1.11-7.56,3-1.71,4.06-5.16.32-8C664.6,387.34,663,385.52,660.51,385Z" transform="translate(-540.37 -235.48)"/><path class="cls-90" d="M666.44,382h-4.93c-2.48-1.28-5.6,0-7.91-1.95-.34-2.3-.36-4.57-2.07-6.63-1.38-1.67-1.43-3.92,1.1-5.2l5.84-.87a29,29,0,0,0,8.5,9.81C669.47,378.93,667.25,380.41,666.44,382Z" transform="translate(-540.37 -235.48)"/><path class="cls-68" d="M674.4,347.44c-1.33.11-2.65,1-4,.07,0-.34,0-.69,0-1,.16-1,.49-2,1.79-1.78C673.71,344.9,674.23,346,674.4,347.44Z" transform="translate(-540.37 -235.48)"/><path class="cls-96" d="M652.63,368.17c-.89,1.79-1.91,3.91.13,5.26,3.09,2.05,2.33,4.17.84,6.58-4.82-.78-9.69-1.32-14.43-2.43-2.47-.58-4.56-.14-5.66,1.65-1.59,2.6-3.69,2.75-6.25,2.78-10.89.14-21.81,1.9-32.6-1-1.41-.38-2.86-.66-4.28-1q-5.62-5.37-11.25-10.75c-1.39-1.32-2.16-2.81.18-3.79,3.52-1.46,2.09-3.16.68-5.27s-4.48-3.91-4.13-6.89c.62-5.16,1.44-10.4,5.16-14.5,3.27-3.6,8.23-2.44,11.39-1.75,9.7,2.08,17.65-2.15,26-5.16,3.74-1.36,6.1-3.25,8.82,2a14.42,14.42,0,0,0,8.64,6.71c3.85.81,5.12,4.42,7.26,7,1.89,2.24,3.71,4.57,5.59,6.83,1.22,1.05,2.4,2.16,3.67,3.14,2.29,1.76,3.84,3.18-.05,5.13C648.83,364.36,651.79,366.35,652.63,368.17Z" transform="translate(-540.37 -235.48)"/><path class="cls-94" d="M648.68,354.37c-3.49-1.21-4.35-4.87-6.68-7.17-2.15-2.12-4.12-4.4-6.17-6.62v-2c1.87.05,2.87,1.32,3.81,2.69Q644.14,347.84,648.68,354.37Z" transform="translate(-540.37 -235.48)"/><path class="cls-94" d="M635.83,338.61c-5.33-2.18-8.59-5.9-8.88-11.84C630.92,330,632.05,335.28,635.83,338.61Z" transform="translate(-540.37 -235.48)"/><path class="cls-97" d="M696.11,374.11a2.92,2.92,0,0,0,2.8.06c3.68-1.86,4.4.46,5.13,3.41,1.44,5.91,1.06,12.47,5.84,17.26,4.31,3.9,1.64,7.93.21,11.93-1.71,2-3.06,4.33-5.89,5-1.49.72-2.4,0-3.06-1.25-.44-1.62-1.54-3-1.46-4.81a3.71,3.71,0,0,1,3.36-2.41c4.36-.46,4.14-3.35,3.37-6.43-1.3-5.13-5.36-8.41-8.43-12.36-1.23-1.86-2.57-3.68-3-6C694.81,376.91,694.84,375.36,696.11,374.11Z" transform="translate(-540.37 -235.48)"/><path class="cls-98" d="M710.09,406.77c-.42-.86-1.47-2-.74-2.65,3.34-3,.92-6.17.53-9.28.1-1.82.16-3.61-1.43-5-1.36-1.16-1.12-2.27.31-3.11a1.88,1.88,0,0,1,2.81,1.07c1.24,3.33,4.54,5,6.22,7.92,0,.33,0,.66,0,1-3.85.9-2.24,4.79-3.82,6.93C713.44,405.65,711.8,406.26,710.09,406.77Z" transform="translate(-540.37 -235.48)"/><path class="cls-99" d="M702,409.56c0,1.44.89,2,2.17,2.18l-.15,1c-1.08,1.36-2.36,2-4.08,1.18-2.84-2.93-6.38-5.14-9-8.34-.93-1.14-2.07-2.5-.8-3.9s3-1.05,4.46,0C697.54,403.92,699.72,406.81,702,409.56Z" transform="translate(-540.37 -235.48)"/><path class="cls-100" d="M714,403.68a36.82,36.82,0,0,0-.12-3.79c-.39-3.24.77-4.42,3.94-3.14-.49,1.71-2,3-1.94,4.95C715.77,402.86,715.28,403.66,714,403.68Z" transform="translate(-540.37 -235.48)"/><path class="cls-76" d="M700,413.54l4-.79c-.25,4.28-3.65,2.2-5.71,2.81l-.35-.11C697.39,413.46,698,412.7,700,413.54Z" transform="translate(-540.37 -235.48)"/><path class="cls-101" d="M723.86,393.79c-1-3.3-3.69-6.53-.34-10,3,.7,3.67,4.12,6.44,5.33,1.32.58,1,3,.14,4.42s-2.06,1.24-3.41.75A16.45,16.45,0,0,0,723.86,393.79Z" transform="translate(-540.37 -235.48)"/><path class="cls-102" d="M696.11,374.11l0,4.93c-1.06.5-1.9-.13-2.73-.61-2.79-1.6-5.13.05-5.28,2.23-.3,4.63-2.75,3.37-5.29,2.73-1.91-1.29-3.18-2.88-2.55-5.37v-2c2-.22,4.82.17,3-3.41-.34-.68-.49-1.53.38-1.38,2.74.48,4.1-1.22,5.51-3,1,2.39,2.15,4.2,4.91,1.88A5.59,5.59,0,0,0,696.11,374.11Z" transform="translate(-540.37 -235.48)"/><path class="cls-103" d="M715.91,379c1.8,4.11,3.83,8.18,2.8,12.9-3-.42-3.6-3-4.12-5.18a15.72,15.72,0,0,0-1.62-5c-.74-1.17-1.56-2.33-.42-3.53C714,376.62,714.71,379,715.91,379Z" transform="translate(-540.37 -235.48)"/><path class="cls-76" d="M646.69,414.5c2.76,1.09,1.51,4.18,3,5.92-1.63,1.52-2.66,1-2.9-1A46.64,46.64,0,0,1,646.69,414.5Z" transform="translate(-540.37 -235.48)"/><path class="cls-104" d="M680.23,378c1,1.66,2,3.32,3,5,2.91,1.6,3,5,4.77,7.35,2.94,4.42,6.74,8.13,10.16,12.15.8.93,2.21,1.46,2,3.05.4,1.45,2.14,2.27,1.91,4-2.44-1.37-4.31-3.39-6.32-5.28-1.28-1.2-2.85-3.92-4.68-2-1.62,1.68,1.42,2.67,2.26,4.06,1.73,2.88,6.24,3.19,6.74,7.22a2,2,0,0,0-2,1.91l-2,0c-2.76-1.18-5.7-1.84-8.51-2.89-1.26-.46-2.5-.54-3.28.9a4.59,4.59,0,0,1-4.76-1.66,5.39,5.39,0,0,0-5.08-2.23c-6-5.62-3.65-12.88-3.89-19.63,2.61-.45,3.68,1.76,5.17,3.12,3.21,2.94,6,6.41,11.11,9-2.92-6.38-7.62-9.56-11.95-13-1.37-1.09-3.37-1.34-4.31-3.07,1.82-1.64,3.92-2.67,4-6C674.7,376.23,677.94,377.61,680.23,378Z" transform="translate(-540.37 -235.48)"/><path class="cls-105" d="M684.24,413.42c.42-.87-1.32-3,.59-2.58,3.9.94,8.3,1.06,11.2,4.57C691.76,416.73,688.28,413.38,684.24,413.42Z" transform="translate(-540.37 -235.48)"/><path class="cls-96" d="M647.68,390.85A6.44,6.44,0,0,1,642.8,388c-1.34-2.09-3-3.28-5.7-2.36a2.15,2.15,0,0,1-3.06-2.12c0-1.79,1.06-2.64,3-2,.46.17,1.11.5,1.4.32,5.35-3.4,10.2,0,15.21,1.09,1.48,1.65,3.64,3,2.5,5.8-1.21,3-3.81,1.87-6,2.07C649.33,390.91,648.5,390.85,647.68,390.85Z" transform="translate(-540.37 -235.48)"/><path class="cls-106" d="M670.53,385.89c7.62,2.22,12.42,7.83,16.82,13.94.76,1.05,1.19,2.17.36,3.1-1.24,1.39-2.27.11-3.36-.59-5.3-3.4-8.91-8.65-13.84-12.44C670.54,388.56,666.44,387.21,670.53,385.89Z" transform="translate(-540.37 -235.48)"/><path class="cls-107" d="M700.12,405.54a59.79,59.79,0,0,1-12.94-14.67,1.74,1.74,0,0,1,.72-2.84c2-.84,2.28,1.3,3.38,2.15.22,0-.07-.06-.23-.43-1-2.22-5.09-4.59-2.72-6.44,3.2-2.51,4.74,2.48,6.29,3.24,1,.66.69.55.56.16-.62-1.81-4.48-2.9-2.34-4.95,2.37-2.29,4.19,1.15,6.2,2.23,2.51,3.39,5.91,6,7.66,10.07,2.85,6.68,2,8.86-4.91,10.47A6.06,6.06,0,0,0,700.12,405.54Z" transform="translate(-540.37 -235.48)"/><path class="cls-108" d="M699,384c-2.16.08-3.39-2.87-6-1.69a37.06,37.06,0,0,1,3,3.51,46.79,46.79,0,0,1,2.42,4.82c-4.22-2.06-5.86-6-10.07-6.89l6.08,10c-2.9-.92-3.54-2.92-4.84-4.12-2.25-2.08-2,.06-2.38,1.29-2-2.29-2.68-5.24-4-7.88,1.21-1.82,2.2.14,3.78.26-2.32-3.77.7-5.23,2.93-6.68,2.88-1.87,4.1,1.64,6.18,2.47Z" transform="translate(-540.37 -235.48)"/>
    
    </svg>